G04 #@! TF.FileFunction,Copper,L2,Bot,Signal*
%FSLAX46Y46*%
G04 Gerber Fmt 4.6, Leading zero omitted, Abs format (unit mm)*
G04 Created by KiCad (PCBNEW (2016-11-06 revision 9ab7cfe)-master) date Tue Jan 10 10:26:56 2017*
%MOMM*%
%LPD*%
G01*
G04 APERTURE LIST*
%ADD10C,0.100000*%
%ADD11R,1.700000X1.700000*%
%ADD12O,1.700000X1.700000*%
%ADD13O,1.000000X2.000000*%
%ADD14R,1.727200X3.000000*%
%ADD15R,2.032000X1.727200*%
%ADD16O,2.032000X1.727200*%
%ADD17R,3.000000X1.727200*%
%ADD18C,0.635000*%
%ADD19C,0.800000*%
%ADD20C,0.254000*%
%ADD21C,1.000000*%
%ADD22C,2.000000*%
%ADD23C,0.250000*%
G04 APERTURE END LIST*
D10*
D11*
X94410000Y-105920000D03*
D12*
X94410000Y-103380000D03*
X94410000Y-100840000D03*
D13*
X98610000Y-105060000D03*
X100610000Y-105060000D03*
X102610000Y-105060000D03*
X104610000Y-105060000D03*
X106610000Y-105060000D03*
X108610000Y-105060000D03*
X110610000Y-105060000D03*
X112610000Y-105060000D03*
X114610000Y-105060000D03*
X116610000Y-105060000D03*
X100610000Y-70960000D03*
X115710000Y-70960000D03*
D11*
X104140000Y-55480000D03*
X104140000Y-60560000D03*
D12*
X104140000Y-58020000D03*
D11*
X109220000Y-55480000D03*
D12*
X109220000Y-58020000D03*
X109220000Y-60560000D03*
D11*
X111760000Y-55480000D03*
D12*
X111760000Y-58020000D03*
X111760000Y-60560000D03*
D11*
X114300000Y-55480000D03*
D12*
X114300000Y-58020000D03*
X114300000Y-60560000D03*
D11*
X101600000Y-55480000D03*
D12*
X101600000Y-58020000D03*
X101600000Y-60560000D03*
D11*
X99060000Y-55480000D03*
D12*
X99060000Y-58020000D03*
X99060000Y-60560000D03*
D11*
X96520000Y-55480000D03*
D12*
X96520000Y-58020000D03*
X96520000Y-60560000D03*
D11*
X93980000Y-55480000D03*
D12*
X93980000Y-58020000D03*
X93980000Y-60560000D03*
D11*
X116840000Y-55480000D03*
D12*
X116840000Y-58020000D03*
X116840000Y-60560000D03*
D14*
X106680000Y-58020000D03*
D15*
X94410000Y-93220000D03*
D16*
X94410000Y-95760000D03*
X94410000Y-98300000D03*
D14*
X106680000Y-66548000D03*
X104140000Y-66548000D03*
D16*
X94410000Y-77700000D03*
X94410000Y-75160000D03*
D15*
X94410000Y-72620000D03*
D17*
X94410000Y-89900000D03*
X94410000Y-87360000D03*
X94410000Y-84820000D03*
X94410000Y-82280000D03*
D14*
X109220000Y-66548000D03*
X111760000Y-66548000D03*
X114300000Y-66548000D03*
X116840000Y-66548000D03*
X93980000Y-66548000D03*
X96520000Y-66548000D03*
X99060000Y-66548000D03*
X101600000Y-66548000D03*
D18*
X102210000Y-76660000D03*
X108010000Y-76460000D03*
X101709241Y-75722547D03*
X107919960Y-75369960D03*
X106510000Y-90260000D03*
X106332310Y-97460000D03*
X104710000Y-97160000D03*
D19*
X117310000Y-102660000D03*
D18*
X108810000Y-81660000D03*
X104210000Y-81060000D03*
X106010000Y-81760000D03*
X100310000Y-80259998D03*
X107410000Y-86160000D03*
X105160000Y-78560000D03*
D19*
X109210000Y-79560000D03*
X116796000Y-73360000D03*
D18*
X103410000Y-84960000D03*
X104210000Y-93160000D03*
X104307693Y-94837690D03*
X104810000Y-99360000D03*
X110410000Y-102560000D03*
X93710000Y-79960000D03*
X100672460Y-83551349D03*
X105710000Y-102960000D03*
X97810000Y-75060000D03*
X105710000Y-106660000D03*
X114810000Y-95785000D03*
X97991644Y-88760000D03*
X104310000Y-73810000D03*
X103410000Y-89960000D03*
X114210000Y-91159998D03*
X99210000Y-79960016D03*
X111410002Y-84760000D03*
X104410000Y-85887690D03*
X109410000Y-91560000D03*
X111810000Y-87560000D03*
X114210000Y-86960000D03*
X94410000Y-87360000D03*
X94310000Y-81960000D03*
X101710000Y-86460000D03*
X99236256Y-88722229D03*
X97047927Y-91877317D03*
X97510000Y-81560002D03*
X98837690Y-83760000D03*
X95714688Y-86001076D03*
X97021827Y-91064924D03*
X112511988Y-105106314D03*
X110464453Y-104914121D03*
X114635197Y-104482310D03*
X102610000Y-102959990D03*
X107994961Y-103175041D03*
X104610012Y-102960000D03*
X101910000Y-101060000D03*
X99310000Y-103160000D03*
X97670237Y-93160000D03*
X99900052Y-89879650D03*
X97810124Y-92359316D03*
X99037876Y-89800689D03*
D19*
X114410000Y-70460000D03*
D18*
X101310000Y-89560000D03*
X98210000Y-87860000D03*
D20*
X102410000Y-76460000D02*
X102210000Y-76660000D01*
X108010000Y-76460000D02*
X102410000Y-76460000D01*
X102158253Y-75722547D02*
X101709241Y-75722547D01*
X107919960Y-75369960D02*
X107567373Y-75722547D01*
X107567373Y-75722547D02*
X102158253Y-75722547D01*
X107410000Y-86160000D02*
X107410000Y-89360000D01*
X106827499Y-89942501D02*
X106510000Y-90260000D01*
X107410000Y-89360000D02*
X106827499Y-89942501D01*
X104710000Y-97160000D02*
X106032310Y-97160000D01*
X106032310Y-97160000D02*
X106332310Y-97460000D01*
D21*
X116610000Y-105060000D02*
X117310000Y-104360000D01*
X117310000Y-104360000D02*
X117310000Y-103225685D01*
X117310000Y-103225685D02*
X117310000Y-102660000D01*
D20*
X108710000Y-81760000D02*
X108810000Y-81660000D01*
X106010000Y-81760000D02*
X108710000Y-81760000D01*
X103892501Y-80742501D02*
X104210000Y-81060000D01*
X100310000Y-80259998D02*
X103409998Y-80259998D01*
X103409998Y-80259998D02*
X103892501Y-80742501D01*
X108210000Y-78560000D02*
X109210000Y-79560000D01*
X105160000Y-78560000D02*
X108210000Y-78560000D01*
X94410000Y-72620000D02*
X93140000Y-72620000D01*
X92910000Y-79060000D02*
X93710000Y-79860000D01*
X93140000Y-72620000D02*
X92910000Y-72850000D01*
X92910000Y-72850000D02*
X92910000Y-79060000D01*
X93710000Y-79860000D02*
X93710000Y-79960000D01*
X103410000Y-89960000D02*
X103410000Y-84960000D01*
X96510000Y-74567600D02*
X97002400Y-75060000D01*
X94410000Y-72620000D02*
X95680000Y-72620000D01*
X96510000Y-73450000D02*
X96510000Y-74567600D01*
X95680000Y-72620000D02*
X96510000Y-73450000D01*
X103990194Y-98540194D02*
X103990194Y-95155189D01*
X103990194Y-95155189D02*
X104307693Y-94837690D01*
X104810000Y-99360000D02*
X103990194Y-98540194D01*
X104307693Y-94837690D02*
X104307693Y-93257693D01*
X104307693Y-93257693D02*
X104210000Y-93160000D01*
X110092501Y-102242501D02*
X110410000Y-102560000D01*
X106427499Y-102242501D02*
X110092501Y-102242501D01*
X105710000Y-102960000D02*
X106427499Y-102242501D01*
X106610000Y-105060000D02*
X106610000Y-103306000D01*
X106610000Y-103306000D02*
X106264000Y-102960000D01*
X106264000Y-102960000D02*
X105710000Y-102960000D01*
X97002400Y-75060000D02*
X97810000Y-75060000D01*
X106610000Y-105060000D02*
X106610000Y-105760000D01*
X106610000Y-105760000D02*
X105710000Y-106660000D01*
X94410000Y-82280000D02*
X94310000Y-82180000D01*
X94410000Y-82280000D02*
X95430000Y-82280000D01*
X95430000Y-82280000D02*
X99610000Y-86460000D01*
X99610000Y-86460000D02*
X101260988Y-86460000D01*
X101260988Y-86460000D02*
X101710000Y-86460000D01*
D22*
X106680000Y-55480000D02*
X104140000Y-55480000D01*
X106680000Y-55480000D02*
X109220000Y-55480000D01*
X106680000Y-58020000D02*
X106680000Y-55480000D01*
X104140000Y-55480000D02*
X101600000Y-55480000D01*
X96520000Y-55480000D02*
X93980000Y-55480000D01*
X99060000Y-55480000D02*
X96520000Y-55480000D01*
X99060000Y-55480000D02*
X101600000Y-55480000D01*
X111760000Y-55480000D02*
X109220000Y-55480000D01*
X114300000Y-55480000D02*
X111760000Y-55480000D01*
X116840000Y-55480000D02*
X114300000Y-55480000D01*
D20*
X98292501Y-90750332D02*
X98292501Y-89665984D01*
X97165516Y-91877317D02*
X98292501Y-90750332D01*
X97047927Y-91877317D02*
X97165516Y-91877317D01*
X98292501Y-89665984D02*
X98918757Y-89039728D01*
X98918757Y-89039728D02*
X99236256Y-88722229D01*
X94410000Y-77700000D02*
X96150000Y-77700000D01*
X96150000Y-77700000D02*
X97510000Y-79060000D01*
X97510000Y-79060000D02*
X97510000Y-81110990D01*
X97510000Y-81110990D02*
X97510000Y-81560002D01*
X98520191Y-79117791D02*
X98520191Y-83442501D01*
X94562400Y-75160000D02*
X98520191Y-79117791D01*
X94410000Y-75160000D02*
X94562400Y-75160000D01*
X98520191Y-83442501D02*
X98837690Y-83760000D01*
X94410000Y-84820000D02*
X94750000Y-85160000D01*
X94750000Y-85160000D02*
X95410000Y-85160000D01*
X95410000Y-85160000D02*
X95714688Y-85464688D01*
X95714688Y-85464688D02*
X95714688Y-86001076D01*
X95591076Y-86001076D02*
X95714688Y-86001076D01*
X96572815Y-91064924D02*
X97021827Y-91064924D01*
X96211324Y-91064924D02*
X96572815Y-91064924D01*
X95046400Y-89900000D02*
X96211324Y-91064924D01*
X94410000Y-89900000D02*
X95046400Y-89900000D01*
X112610000Y-105060000D02*
X112563686Y-105106314D01*
X112563686Y-105106314D02*
X112511988Y-105106314D01*
X110464453Y-105031324D02*
X110464453Y-104914121D01*
X110493129Y-105060000D02*
X110464453Y-105031324D01*
X110610000Y-105060000D02*
X110493129Y-105060000D01*
X114610000Y-105060000D02*
X114635197Y-105034803D01*
X114635197Y-104931322D02*
X114635197Y-104482310D01*
X114635197Y-105034803D02*
X114635197Y-104931322D01*
X102610000Y-105060000D02*
X102610000Y-102959990D01*
D22*
X104140000Y-58020000D02*
X101600000Y-58020000D01*
X99060000Y-58020000D02*
X101600000Y-58020000D01*
X96520000Y-58020000D02*
X99060000Y-58020000D01*
X93980000Y-58020000D02*
X96520000Y-58020000D01*
X114300000Y-58020000D02*
X116840000Y-58020000D01*
X111760000Y-58020000D02*
X114300000Y-58020000D01*
X109220000Y-58020000D02*
X111760000Y-58020000D01*
D20*
X108479041Y-103175041D02*
X108443973Y-103175041D01*
X108610000Y-103306000D02*
X108479041Y-103175041D01*
X108443973Y-103175041D02*
X107994961Y-103175041D01*
X108610000Y-105060000D02*
X108610000Y-103306000D01*
X104610000Y-105060000D02*
X104610000Y-102960012D01*
X104610000Y-102960012D02*
X104610012Y-102960000D01*
X101592501Y-101377499D02*
X101910000Y-101060000D01*
X100610000Y-102360000D02*
X101592501Y-101377499D01*
X100610000Y-105060000D02*
X100610000Y-102360000D01*
X99256000Y-103160000D02*
X99310000Y-103160000D01*
X98610000Y-103806000D02*
X99256000Y-103160000D01*
X98610000Y-105060000D02*
X98610000Y-103806000D01*
X99900052Y-91379197D02*
X98119249Y-93160000D01*
X99900052Y-89879650D02*
X99900052Y-91379197D01*
X98119249Y-93160000D02*
X97670237Y-93160000D01*
X99037876Y-89800689D02*
X99037876Y-91131564D01*
X99037876Y-91131564D02*
X98127623Y-92041817D01*
X98127623Y-92041817D02*
X97810124Y-92359316D01*
D21*
X114300000Y-66548000D02*
X114300000Y-70350000D01*
X114300000Y-70350000D02*
X114410000Y-70460000D01*
X111760000Y-66548000D02*
X109220000Y-66548000D01*
X114300000Y-66548000D02*
X111760000Y-66548000D01*
X116840000Y-66548000D02*
X114300000Y-66548000D01*
D20*
X99610000Y-87860000D02*
X100992501Y-89242501D01*
X98210000Y-87860000D02*
X99610000Y-87860000D01*
X100992501Y-89242501D02*
X101310000Y-89560000D01*
D23*
G36*
X107828860Y-68048000D02*
X107838997Y-68150918D01*
X107869017Y-68249881D01*
X107917767Y-68341086D01*
X107983373Y-68421027D01*
X108063314Y-68486633D01*
X108154519Y-68535383D01*
X108253482Y-68565403D01*
X108356400Y-68575540D01*
X110083600Y-68575540D01*
X110186518Y-68565403D01*
X110285481Y-68535383D01*
X110376686Y-68486633D01*
X110456627Y-68421027D01*
X110490000Y-68380362D01*
X110523373Y-68421027D01*
X110603314Y-68486633D01*
X110694519Y-68535383D01*
X110793482Y-68565403D01*
X110896400Y-68575540D01*
X112623600Y-68575540D01*
X112726518Y-68565403D01*
X112825481Y-68535383D01*
X112916686Y-68486633D01*
X112996627Y-68421027D01*
X113030000Y-68380362D01*
X113063373Y-68421027D01*
X113143314Y-68486633D01*
X113234519Y-68535383D01*
X113275000Y-68547663D01*
X113275000Y-70350000D01*
X113284242Y-70444253D01*
X113292492Y-70538550D01*
X113293995Y-70543722D01*
X113294521Y-70549090D01*
X113321894Y-70639755D01*
X113348302Y-70730653D01*
X113350783Y-70735438D01*
X113352340Y-70740597D01*
X113396784Y-70824184D01*
X113440363Y-70908255D01*
X113443726Y-70912468D01*
X113446256Y-70917226D01*
X113506104Y-70990607D01*
X113565167Y-71064594D01*
X113572561Y-71072091D01*
X113572690Y-71072250D01*
X113572837Y-71072372D01*
X113575216Y-71074784D01*
X113685215Y-71184784D01*
X113839797Y-71311759D01*
X114016097Y-71406290D01*
X114207401Y-71464777D01*
X114406422Y-71484993D01*
X114605579Y-71466168D01*
X114685000Y-71442491D01*
X114685000Y-71467379D01*
X114704521Y-71666469D01*
X114762340Y-71857976D01*
X114856256Y-72034605D01*
X114982690Y-72189629D01*
X115136827Y-72317143D01*
X115312797Y-72412289D01*
X115503895Y-72471444D01*
X115702844Y-72492354D01*
X115902066Y-72474223D01*
X116093972Y-72417742D01*
X116271252Y-72325062D01*
X116427155Y-72199713D01*
X116555741Y-72046470D01*
X116652114Y-71871169D01*
X116712601Y-71680488D01*
X116734900Y-71481690D01*
X116735000Y-71467379D01*
X116735000Y-70452621D01*
X116715479Y-70253531D01*
X116657660Y-70062024D01*
X116563744Y-69885395D01*
X116437310Y-69730371D01*
X116283173Y-69602857D01*
X116107203Y-69507711D01*
X115916105Y-69448556D01*
X115717156Y-69427646D01*
X115517934Y-69445777D01*
X115326028Y-69502258D01*
X115325000Y-69502795D01*
X115325000Y-68547663D01*
X115365481Y-68535383D01*
X115456686Y-68486633D01*
X115536627Y-68421027D01*
X115570000Y-68380362D01*
X115603373Y-68421027D01*
X115683314Y-68486633D01*
X115774519Y-68535383D01*
X115873482Y-68565403D01*
X115976400Y-68575540D01*
X117703600Y-68575540D01*
X117785000Y-68567522D01*
X117785000Y-101757154D01*
X117707203Y-101715090D01*
X117516105Y-101655935D01*
X117317156Y-101635025D01*
X117117934Y-101653156D01*
X116926028Y-101709637D01*
X116748748Y-101802317D01*
X116592845Y-101927666D01*
X116464259Y-102080909D01*
X116367886Y-102256210D01*
X116307399Y-102446891D01*
X116285100Y-102645689D01*
X116285000Y-102660000D01*
X116285000Y-103584902D01*
X116226028Y-103602258D01*
X116048748Y-103694938D01*
X115892845Y-103820287D01*
X115764259Y-103973530D01*
X115667886Y-104148831D01*
X115609370Y-104333298D01*
X115557660Y-104162024D01*
X115463744Y-103985395D01*
X115337310Y-103830371D01*
X115183173Y-103702857D01*
X115007203Y-103607711D01*
X114816105Y-103548556D01*
X114617156Y-103527646D01*
X114417934Y-103545777D01*
X114226028Y-103602258D01*
X114048748Y-103694938D01*
X113892845Y-103820287D01*
X113764259Y-103973530D01*
X113667886Y-104148831D01*
X113609370Y-104333298D01*
X113557660Y-104162024D01*
X113463744Y-103985395D01*
X113337310Y-103830371D01*
X113183173Y-103702857D01*
X113007203Y-103607711D01*
X112816105Y-103548556D01*
X112617156Y-103527646D01*
X112417934Y-103545777D01*
X112226028Y-103602258D01*
X112048748Y-103694938D01*
X111892845Y-103820287D01*
X111764259Y-103973530D01*
X111667886Y-104148831D01*
X111609370Y-104333298D01*
X111557660Y-104162024D01*
X111463744Y-103985395D01*
X111337310Y-103830371D01*
X111183173Y-103702857D01*
X111007203Y-103607711D01*
X110816105Y-103548556D01*
X110617156Y-103527646D01*
X110417934Y-103545777D01*
X110226028Y-103602258D01*
X110048748Y-103694938D01*
X109892845Y-103820287D01*
X109764259Y-103973530D01*
X109667886Y-104148831D01*
X109609370Y-104333298D01*
X109557660Y-104162024D01*
X109463744Y-103985395D01*
X109337310Y-103830371D01*
X109262000Y-103768069D01*
X109262000Y-103306000D01*
X109256122Y-103246047D01*
X109250874Y-103186063D01*
X109249918Y-103182771D01*
X109249583Y-103179359D01*
X109232180Y-103121717D01*
X109215373Y-103063868D01*
X109213795Y-103060823D01*
X109212804Y-103057542D01*
X109184530Y-103004367D01*
X109156813Y-102950895D01*
X109154675Y-102948216D01*
X109153065Y-102945189D01*
X109114982Y-102898494D01*
X109077425Y-102851448D01*
X109072720Y-102846676D01*
X109072640Y-102846578D01*
X109072550Y-102846503D01*
X109071034Y-102844966D01*
X108940075Y-102714007D01*
X108893476Y-102675731D01*
X108847399Y-102637067D01*
X108844397Y-102635417D01*
X108841746Y-102633239D01*
X108788649Y-102604769D01*
X108735891Y-102575765D01*
X108732623Y-102574728D01*
X108729601Y-102573108D01*
X108671975Y-102555490D01*
X108614599Y-102537289D01*
X108611195Y-102536907D01*
X108607914Y-102535904D01*
X108547952Y-102529813D01*
X108540815Y-102529013D01*
X108534589Y-102522743D01*
X108397613Y-102430352D01*
X108245300Y-102366325D01*
X108083452Y-102333103D01*
X107918234Y-102331949D01*
X107755937Y-102362909D01*
X107602746Y-102424802D01*
X107464493Y-102515272D01*
X107346446Y-102630872D01*
X107253101Y-102767200D01*
X107188013Y-102919062D01*
X107153661Y-103080674D01*
X107151354Y-103245881D01*
X107181180Y-103408389D01*
X107242002Y-103562009D01*
X107331505Y-103700890D01*
X107446278Y-103819741D01*
X107581951Y-103914036D01*
X107733355Y-103980183D01*
X107757663Y-103985528D01*
X107667886Y-104148831D01*
X107607399Y-104339512D01*
X107585100Y-104538310D01*
X107585000Y-104552621D01*
X107585000Y-105567379D01*
X107604521Y-105766469D01*
X107662340Y-105957976D01*
X107756256Y-106134605D01*
X107882690Y-106289629D01*
X108036827Y-106417143D01*
X108212797Y-106512289D01*
X108403895Y-106571444D01*
X108602844Y-106592354D01*
X108802066Y-106574223D01*
X108993972Y-106517742D01*
X109171252Y-106425062D01*
X109327155Y-106299713D01*
X109455741Y-106146470D01*
X109552114Y-105971169D01*
X109610630Y-105786702D01*
X109662340Y-105957976D01*
X109756256Y-106134605D01*
X109882690Y-106289629D01*
X110036827Y-106417143D01*
X110212797Y-106512289D01*
X110403895Y-106571444D01*
X110602844Y-106592354D01*
X110802066Y-106574223D01*
X110993972Y-106517742D01*
X111171252Y-106425062D01*
X111327155Y-106299713D01*
X111455741Y-106146470D01*
X111552114Y-105971169D01*
X111610630Y-105786702D01*
X111662340Y-105957976D01*
X111756256Y-106134605D01*
X111882690Y-106289629D01*
X112036827Y-106417143D01*
X112212797Y-106512289D01*
X112403895Y-106571444D01*
X112602844Y-106592354D01*
X112802066Y-106574223D01*
X112993972Y-106517742D01*
X113171252Y-106425062D01*
X113327155Y-106299713D01*
X113455741Y-106146470D01*
X113552114Y-105971169D01*
X113610630Y-105786702D01*
X113662340Y-105957976D01*
X113756256Y-106134605D01*
X113882690Y-106289629D01*
X114036827Y-106417143D01*
X114212797Y-106512289D01*
X114403895Y-106571444D01*
X114602844Y-106592354D01*
X114802066Y-106574223D01*
X114993972Y-106517742D01*
X115171252Y-106425062D01*
X115327155Y-106299713D01*
X115455741Y-106146470D01*
X115552114Y-105971169D01*
X115610630Y-105786702D01*
X115662340Y-105957976D01*
X115756256Y-106134605D01*
X115882690Y-106289629D01*
X116036827Y-106417143D01*
X116212797Y-106512289D01*
X116403895Y-106571444D01*
X116602844Y-106592354D01*
X116802066Y-106574223D01*
X116993972Y-106517742D01*
X117171252Y-106425062D01*
X117327155Y-106299713D01*
X117455741Y-106146470D01*
X117552114Y-105971169D01*
X117612601Y-105780488D01*
X117634900Y-105581690D01*
X117635000Y-105567379D01*
X117635000Y-105484568D01*
X117785000Y-105334569D01*
X117785000Y-106835000D01*
X95781138Y-106835000D01*
X95787540Y-106770000D01*
X95787540Y-105070000D01*
X95777403Y-104967082D01*
X95747383Y-104868119D01*
X95698633Y-104776914D01*
X95633027Y-104696973D01*
X95553086Y-104631367D01*
X95461881Y-104582617D01*
X95362998Y-104552621D01*
X97585000Y-104552621D01*
X97585000Y-105567379D01*
X97604521Y-105766469D01*
X97662340Y-105957976D01*
X97756256Y-106134605D01*
X97882690Y-106289629D01*
X98036827Y-106417143D01*
X98212797Y-106512289D01*
X98403895Y-106571444D01*
X98602844Y-106592354D01*
X98802066Y-106574223D01*
X98993972Y-106517742D01*
X99171252Y-106425062D01*
X99327155Y-106299713D01*
X99455741Y-106146470D01*
X99552114Y-105971169D01*
X99610630Y-105786702D01*
X99662340Y-105957976D01*
X99756256Y-106134605D01*
X99882690Y-106289629D01*
X100036827Y-106417143D01*
X100212797Y-106512289D01*
X100403895Y-106571444D01*
X100602844Y-106592354D01*
X100802066Y-106574223D01*
X100993972Y-106517742D01*
X101171252Y-106425062D01*
X101327155Y-106299713D01*
X101455741Y-106146470D01*
X101552114Y-105971169D01*
X101610630Y-105786702D01*
X101662340Y-105957976D01*
X101756256Y-106134605D01*
X101882690Y-106289629D01*
X102036827Y-106417143D01*
X102212797Y-106512289D01*
X102403895Y-106571444D01*
X102602844Y-106592354D01*
X102802066Y-106574223D01*
X102993972Y-106517742D01*
X103171252Y-106425062D01*
X103327155Y-106299713D01*
X103455741Y-106146470D01*
X103552114Y-105971169D01*
X103610630Y-105786702D01*
X103662340Y-105957976D01*
X103756256Y-106134605D01*
X103882690Y-106289629D01*
X104036827Y-106417143D01*
X104212797Y-106512289D01*
X104403895Y-106571444D01*
X104602844Y-106592354D01*
X104802066Y-106574223D01*
X104993972Y-106517742D01*
X105171252Y-106425062D01*
X105327155Y-106299713D01*
X105455741Y-106146470D01*
X105552114Y-105971169D01*
X105612601Y-105780488D01*
X105634900Y-105581690D01*
X105635000Y-105567379D01*
X105635000Y-105185000D01*
X105685000Y-105185000D01*
X105685000Y-105685000D01*
X105727160Y-105863057D01*
X105803247Y-106029467D01*
X105910337Y-106177836D01*
X106044315Y-106302462D01*
X106200032Y-106398555D01*
X106343164Y-106445677D01*
X106485000Y-106369152D01*
X106485000Y-105185000D01*
X106735000Y-105185000D01*
X106735000Y-106369152D01*
X106876836Y-106445677D01*
X107019968Y-106398555D01*
X107175685Y-106302462D01*
X107309663Y-106177836D01*
X107416753Y-106029467D01*
X107492840Y-105863057D01*
X107535000Y-105685000D01*
X107535000Y-105185000D01*
X106735000Y-105185000D01*
X106485000Y-105185000D01*
X105685000Y-105185000D01*
X105635000Y-105185000D01*
X105635000Y-104552621D01*
X105623468Y-104435000D01*
X105685000Y-104435000D01*
X105685000Y-104935000D01*
X106485000Y-104935000D01*
X106485000Y-103750848D01*
X106735000Y-103750848D01*
X106735000Y-104935000D01*
X107535000Y-104935000D01*
X107535000Y-104435000D01*
X107492840Y-104256943D01*
X107416753Y-104090533D01*
X107309663Y-103942164D01*
X107175685Y-103817538D01*
X107019968Y-103721445D01*
X106876836Y-103674323D01*
X106735000Y-103750848D01*
X106485000Y-103750848D01*
X106343164Y-103674323D01*
X106200032Y-103721445D01*
X106044315Y-103817538D01*
X105910337Y-103942164D01*
X105803247Y-104090533D01*
X105727160Y-104256943D01*
X105685000Y-104435000D01*
X105623468Y-104435000D01*
X105615479Y-104353531D01*
X105557660Y-104162024D01*
X105463744Y-103985395D01*
X105337310Y-103830371D01*
X105262000Y-103768069D01*
X105262000Y-103497387D01*
X105346106Y-103378159D01*
X105413308Y-103227221D01*
X105449912Y-103066104D01*
X105452548Y-102877389D01*
X105420456Y-102715313D01*
X105357494Y-102562557D01*
X105266061Y-102424939D01*
X105149640Y-102307702D01*
X105012664Y-102215311D01*
X104860351Y-102151284D01*
X104698503Y-102118062D01*
X104533285Y-102116908D01*
X104370988Y-102147868D01*
X104217797Y-102209761D01*
X104079544Y-102300231D01*
X103961497Y-102415831D01*
X103868152Y-102552159D01*
X103803064Y-102704021D01*
X103768712Y-102865633D01*
X103766405Y-103030840D01*
X103796231Y-103193348D01*
X103857053Y-103346968D01*
X103946556Y-103485849D01*
X103958000Y-103497700D01*
X103958000Y-103767901D01*
X103892845Y-103820287D01*
X103764259Y-103973530D01*
X103667886Y-104148831D01*
X103609370Y-104333298D01*
X103557660Y-104162024D01*
X103463744Y-103985395D01*
X103337310Y-103830371D01*
X103262000Y-103768069D01*
X103262000Y-103497360D01*
X103346094Y-103378149D01*
X103413296Y-103227211D01*
X103449900Y-103066094D01*
X103452536Y-102877379D01*
X103420444Y-102715303D01*
X103357482Y-102562547D01*
X103266049Y-102424929D01*
X103149628Y-102307692D01*
X103012652Y-102215301D01*
X102860339Y-102151274D01*
X102698491Y-102118052D01*
X102533273Y-102116898D01*
X102370976Y-102147858D01*
X102217785Y-102209751D01*
X102079532Y-102300221D01*
X101961485Y-102415821D01*
X101868140Y-102552149D01*
X101803052Y-102704011D01*
X101768700Y-102865623D01*
X101766393Y-103030830D01*
X101796219Y-103193338D01*
X101857041Y-103346958D01*
X101946544Y-103485839D01*
X101958000Y-103497702D01*
X101958000Y-103767901D01*
X101892845Y-103820287D01*
X101764259Y-103973530D01*
X101667886Y-104148831D01*
X101609370Y-104333298D01*
X101557660Y-104162024D01*
X101463744Y-103985395D01*
X101337310Y-103830371D01*
X101262000Y-103768069D01*
X101262000Y-102630068D01*
X101990777Y-101901290D01*
X102137661Y-101875390D01*
X102291702Y-101815642D01*
X102431204Y-101727111D01*
X102550854Y-101613170D01*
X102646094Y-101478159D01*
X102713296Y-101327221D01*
X102749900Y-101166104D01*
X102752536Y-100977389D01*
X102720444Y-100815313D01*
X102657482Y-100662557D01*
X102566049Y-100524939D01*
X102449628Y-100407702D01*
X102312652Y-100315311D01*
X102160339Y-100251284D01*
X101998491Y-100218062D01*
X101833273Y-100216908D01*
X101670976Y-100247868D01*
X101517785Y-100309761D01*
X101379532Y-100400231D01*
X101261485Y-100515831D01*
X101168140Y-100652159D01*
X101103052Y-100804021D01*
X101068700Y-100965633D01*
X101068507Y-100979426D01*
X100148966Y-101898966D01*
X100110690Y-101945565D01*
X100072026Y-101991642D01*
X100070376Y-101994644D01*
X100068198Y-101997295D01*
X100039728Y-102050392D01*
X100010724Y-102103150D01*
X100009687Y-102106418D01*
X100008067Y-102109440D01*
X99990449Y-102167066D01*
X99972248Y-102224442D01*
X99971866Y-102227846D01*
X99970863Y-102231127D01*
X99964772Y-102291089D01*
X99958064Y-102350897D01*
X99958017Y-102357598D01*
X99958004Y-102357725D01*
X99958015Y-102357843D01*
X99958000Y-102360000D01*
X99958000Y-102616834D01*
X99849628Y-102507702D01*
X99712652Y-102415311D01*
X99560339Y-102351284D01*
X99398491Y-102318062D01*
X99233273Y-102316908D01*
X99070976Y-102347868D01*
X98917785Y-102409761D01*
X98779532Y-102500231D01*
X98661485Y-102615831D01*
X98568140Y-102752159D01*
X98503052Y-102904021D01*
X98479606Y-103014326D01*
X98148966Y-103344966D01*
X98110690Y-103391565D01*
X98072026Y-103437642D01*
X98070376Y-103440644D01*
X98068198Y-103443295D01*
X98039728Y-103496392D01*
X98010724Y-103549150D01*
X98009687Y-103552418D01*
X98008067Y-103555440D01*
X97990449Y-103613066D01*
X97972248Y-103670442D01*
X97971866Y-103673846D01*
X97970863Y-103677127D01*
X97964772Y-103737089D01*
X97961645Y-103764970D01*
X97892845Y-103820287D01*
X97764259Y-103973530D01*
X97667886Y-104148831D01*
X97607399Y-104339512D01*
X97585100Y-104538310D01*
X97585000Y-104552621D01*
X95362998Y-104552621D01*
X95362918Y-104552597D01*
X95260000Y-104542460D01*
X95145231Y-104542460D01*
X95177566Y-104525267D01*
X95385525Y-104355660D01*
X95556580Y-104148890D01*
X95684215Y-103912834D01*
X95763569Y-103656482D01*
X95791619Y-103389599D01*
X95767298Y-103122351D01*
X95691531Y-102864916D01*
X95567204Y-102627101D01*
X95399053Y-102417963D01*
X95193483Y-102245469D01*
X94958323Y-102116189D01*
X94774666Y-102057929D01*
X94966449Y-101987172D01*
X95179559Y-101856572D01*
X95363095Y-101686905D01*
X95510005Y-101484692D01*
X95614642Y-101257704D01*
X95643682Y-101161954D01*
X95572046Y-100965000D01*
X94535000Y-100965000D01*
X94535000Y-100985000D01*
X94285000Y-100985000D01*
X94285000Y-100965000D01*
X93247954Y-100965000D01*
X93176318Y-101161954D01*
X93205358Y-101257704D01*
X93309995Y-101484692D01*
X93456905Y-101686905D01*
X93640441Y-101856572D01*
X93853551Y-101987172D01*
X94046399Y-102058322D01*
X93879375Y-102108749D01*
X93642434Y-102234733D01*
X93434475Y-102404340D01*
X93263420Y-102611110D01*
X93135785Y-102847166D01*
X93056431Y-103103518D01*
X93035000Y-103307424D01*
X93035000Y-98958560D01*
X93088213Y-99060346D01*
X93258027Y-99271553D01*
X93465631Y-99445753D01*
X93703116Y-99576311D01*
X93953813Y-99655837D01*
X93853551Y-99692828D01*
X93640441Y-99823428D01*
X93456905Y-99993095D01*
X93309995Y-100195308D01*
X93205358Y-100422296D01*
X93176318Y-100518046D01*
X93247954Y-100715000D01*
X94285000Y-100715000D01*
X94285000Y-100695000D01*
X94535000Y-100695000D01*
X94535000Y-100715000D01*
X95572046Y-100715000D01*
X95643682Y-100518046D01*
X95614642Y-100422296D01*
X95510005Y-100195308D01*
X95363095Y-99993095D01*
X95179559Y-99823428D01*
X94966449Y-99692828D01*
X94863624Y-99654892D01*
X95099010Y-99583825D01*
X95338296Y-99456594D01*
X95548311Y-99285310D01*
X95721058Y-99076495D01*
X95849955Y-98838104D01*
X95930094Y-98579217D01*
X95958422Y-98309694D01*
X95933860Y-98039802D01*
X95857344Y-97779821D01*
X95731787Y-97539654D01*
X95561973Y-97328447D01*
X95445650Y-97230840D01*
X103866393Y-97230840D01*
X103896219Y-97393348D01*
X103957041Y-97546968D01*
X104046544Y-97685849D01*
X104161317Y-97804700D01*
X104296990Y-97898995D01*
X104448394Y-97965142D01*
X104609762Y-98000621D01*
X104774948Y-98004081D01*
X104937661Y-97975390D01*
X105091702Y-97915642D01*
X105231204Y-97827111D01*
X105247072Y-97812000D01*
X105565506Y-97812000D01*
X105579351Y-97846968D01*
X105668854Y-97985849D01*
X105783627Y-98104700D01*
X105919300Y-98198995D01*
X106070704Y-98265142D01*
X106232072Y-98300621D01*
X106397258Y-98304081D01*
X106559971Y-98275390D01*
X106714012Y-98215642D01*
X106853514Y-98127111D01*
X106973164Y-98013170D01*
X107068404Y-97878159D01*
X107135606Y-97727221D01*
X107172210Y-97566104D01*
X107174846Y-97377389D01*
X107142754Y-97215313D01*
X107079792Y-97062557D01*
X106988359Y-96924939D01*
X106871938Y-96807702D01*
X106734962Y-96715311D01*
X106582649Y-96651284D01*
X106420801Y-96618062D01*
X106394418Y-96617878D01*
X106341918Y-96589728D01*
X106289160Y-96560724D01*
X106285892Y-96559687D01*
X106282870Y-96558067D01*
X106225244Y-96540449D01*
X106167868Y-96522248D01*
X106164464Y-96521866D01*
X106161183Y-96520863D01*
X106101221Y-96514772D01*
X106041413Y-96508064D01*
X106034712Y-96508017D01*
X106034585Y-96508004D01*
X106034467Y-96508015D01*
X106032310Y-96508000D01*
X105249924Y-96508000D01*
X105249628Y-96507702D01*
X105112652Y-96415311D01*
X104960339Y-96351284D01*
X104798491Y-96318062D01*
X104633273Y-96316908D01*
X104470976Y-96347868D01*
X104317785Y-96409761D01*
X104179532Y-96500231D01*
X104061485Y-96615831D01*
X103968140Y-96752159D01*
X103903052Y-96904021D01*
X103868700Y-97065633D01*
X103866393Y-97230840D01*
X95445650Y-97230840D01*
X95354369Y-97154247D01*
X95126715Y-97029094D01*
X95338296Y-96916594D01*
X95548311Y-96745310D01*
X95721058Y-96536495D01*
X95849955Y-96298104D01*
X95930094Y-96039217D01*
X95958422Y-95769694D01*
X95933860Y-95499802D01*
X95857344Y-95239821D01*
X95731787Y-94999654D01*
X95561973Y-94788447D01*
X95354369Y-94614247D01*
X95162197Y-94508600D01*
X95467859Y-94508600D01*
X95549968Y-94492267D01*
X95627313Y-94460230D01*
X95696922Y-94413719D01*
X95756119Y-94354522D01*
X95802630Y-94284913D01*
X95834668Y-94207568D01*
X95851000Y-94125459D01*
X95851000Y-93451250D01*
X95744750Y-93345000D01*
X94535000Y-93345000D01*
X94535000Y-93365000D01*
X94285000Y-93365000D01*
X94285000Y-93345000D01*
X94265000Y-93345000D01*
X94265000Y-93095000D01*
X94285000Y-93095000D01*
X94285000Y-92037650D01*
X94535000Y-92037650D01*
X94535000Y-93095000D01*
X95744750Y-93095000D01*
X95851000Y-92988750D01*
X95851000Y-92314541D01*
X95834668Y-92232432D01*
X95802630Y-92155087D01*
X95756119Y-92085478D01*
X95696922Y-92026281D01*
X95627313Y-91979770D01*
X95549968Y-91947733D01*
X95467859Y-91931400D01*
X94641250Y-91931400D01*
X94535000Y-92037650D01*
X94285000Y-92037650D01*
X94178750Y-91931400D01*
X93352141Y-91931400D01*
X93270032Y-91947733D01*
X93192687Y-91979770D01*
X93123078Y-92026281D01*
X93063881Y-92085478D01*
X93035000Y-92128702D01*
X93035000Y-91291140D01*
X95515473Y-91291140D01*
X95750290Y-91525957D01*
X95796859Y-91564209D01*
X95842966Y-91602898D01*
X95845968Y-91604548D01*
X95848619Y-91606726D01*
X95901735Y-91635207D01*
X95954474Y-91664200D01*
X95957740Y-91665236D01*
X95960763Y-91666857D01*
X96018404Y-91684480D01*
X96075766Y-91702676D01*
X96079170Y-91703058D01*
X96082451Y-91704061D01*
X96142417Y-91710152D01*
X96202221Y-91716860D01*
X96208921Y-91716907D01*
X96209048Y-91716920D01*
X96209166Y-91716909D01*
X96211324Y-91716924D01*
X96220661Y-91716924D01*
X96206627Y-91782950D01*
X96204320Y-91948157D01*
X96234146Y-92110665D01*
X96294968Y-92264285D01*
X96384471Y-92403166D01*
X96499244Y-92522017D01*
X96634917Y-92616312D01*
X96786321Y-92682459D01*
X96947689Y-92717938D01*
X96951750Y-92718023D01*
X96928377Y-92752159D01*
X96863289Y-92904021D01*
X96828937Y-93065633D01*
X96826630Y-93230840D01*
X96856456Y-93393348D01*
X96917278Y-93546968D01*
X97006781Y-93685849D01*
X97121554Y-93804700D01*
X97257227Y-93898995D01*
X97408631Y-93965142D01*
X97569999Y-94000621D01*
X97735185Y-94004081D01*
X97897898Y-93975390D01*
X98051939Y-93915642D01*
X98191441Y-93827111D01*
X98216950Y-93802819D01*
X98239186Y-93800874D01*
X98242478Y-93799918D01*
X98245890Y-93799583D01*
X98303532Y-93782180D01*
X98361381Y-93765373D01*
X98364426Y-93763795D01*
X98367707Y-93762804D01*
X98420882Y-93734530D01*
X98474354Y-93706813D01*
X98477033Y-93704675D01*
X98480060Y-93703065D01*
X98526755Y-93664982D01*
X98573801Y-93627425D01*
X98578573Y-93622720D01*
X98578671Y-93622640D01*
X98578746Y-93622550D01*
X98580283Y-93621034D01*
X100361086Y-91840230D01*
X100399342Y-91793657D01*
X100438026Y-91747555D01*
X100439676Y-91744553D01*
X100441854Y-91741902D01*
X100470324Y-91688805D01*
X100499328Y-91636047D01*
X100500365Y-91632779D01*
X100501985Y-91629757D01*
X100519603Y-91572131D01*
X100537804Y-91514755D01*
X100538186Y-91511351D01*
X100539189Y-91508070D01*
X100545280Y-91448108D01*
X100551988Y-91388300D01*
X100552035Y-91381599D01*
X100552048Y-91381472D01*
X100552037Y-91381354D01*
X100552052Y-91379197D01*
X100552052Y-90417020D01*
X100636146Y-90297809D01*
X100703348Y-90146871D01*
X100703753Y-90145090D01*
X100761317Y-90204700D01*
X100896990Y-90298995D01*
X101048394Y-90365142D01*
X101209762Y-90400621D01*
X101374948Y-90404081D01*
X101537661Y-90375390D01*
X101652518Y-90330840D01*
X105666393Y-90330840D01*
X105696219Y-90493348D01*
X105757041Y-90646968D01*
X105846544Y-90785849D01*
X105961317Y-90904700D01*
X106096990Y-90998995D01*
X106248394Y-91065142D01*
X106409762Y-91100621D01*
X106574948Y-91104081D01*
X106737661Y-91075390D01*
X106891702Y-91015642D01*
X107031204Y-90927111D01*
X107150854Y-90813170D01*
X107246094Y-90678159D01*
X107313296Y-90527221D01*
X107349900Y-90366104D01*
X107350239Y-90341829D01*
X107871034Y-89821033D01*
X107909290Y-89774460D01*
X107947974Y-89728358D01*
X107949624Y-89725356D01*
X107951802Y-89722705D01*
X107980272Y-89669608D01*
X108009276Y-89616850D01*
X108010313Y-89613582D01*
X108011933Y-89610560D01*
X108029551Y-89552934D01*
X108047752Y-89495558D01*
X108048134Y-89492154D01*
X108049137Y-89488873D01*
X108055228Y-89428911D01*
X108061936Y-89369103D01*
X108061983Y-89362402D01*
X108061996Y-89362275D01*
X108061985Y-89362157D01*
X108062000Y-89360000D01*
X108062000Y-86697370D01*
X108146094Y-86578159D01*
X108213296Y-86427221D01*
X108249900Y-86266104D01*
X108252536Y-86077389D01*
X108220444Y-85915313D01*
X108157482Y-85762557D01*
X108066049Y-85624939D01*
X107949628Y-85507702D01*
X107812652Y-85415311D01*
X107660339Y-85351284D01*
X107498491Y-85318062D01*
X107333273Y-85316908D01*
X107170976Y-85347868D01*
X107017785Y-85409761D01*
X106879532Y-85500231D01*
X106761485Y-85615831D01*
X106668140Y-85752159D01*
X106603052Y-85904021D01*
X106568700Y-86065633D01*
X106566393Y-86230840D01*
X106596219Y-86393348D01*
X106657041Y-86546968D01*
X106746544Y-86685849D01*
X106758000Y-86697712D01*
X106758000Y-89089933D01*
X106430494Y-89417438D01*
X106270976Y-89447868D01*
X106117785Y-89509761D01*
X105979532Y-89600231D01*
X105861485Y-89715831D01*
X105768140Y-89852159D01*
X105703052Y-90004021D01*
X105668700Y-90165633D01*
X105666393Y-90330840D01*
X101652518Y-90330840D01*
X101691702Y-90315642D01*
X101831204Y-90227111D01*
X101950854Y-90113170D01*
X102046094Y-89978159D01*
X102113296Y-89827221D01*
X102149900Y-89666104D01*
X102152536Y-89477389D01*
X102120444Y-89315313D01*
X102057482Y-89162557D01*
X101966049Y-89024939D01*
X101849628Y-88907702D01*
X101712652Y-88815311D01*
X101560339Y-88751284D01*
X101398491Y-88718062D01*
X101390070Y-88718003D01*
X100071034Y-87398966D01*
X100024435Y-87360690D01*
X99978358Y-87322026D01*
X99975356Y-87320376D01*
X99972705Y-87318198D01*
X99919608Y-87289728D01*
X99866850Y-87260724D01*
X99863582Y-87259687D01*
X99860560Y-87258067D01*
X99802934Y-87240449D01*
X99745558Y-87222248D01*
X99742154Y-87221866D01*
X99738873Y-87220863D01*
X99678911Y-87214772D01*
X99619103Y-87208064D01*
X99612402Y-87208017D01*
X99612275Y-87208004D01*
X99612157Y-87208015D01*
X99610000Y-87208000D01*
X98749924Y-87208000D01*
X98749628Y-87207702D01*
X98612652Y-87115311D01*
X98460339Y-87051284D01*
X98298491Y-87018062D01*
X98133273Y-87016908D01*
X97970976Y-87047868D01*
X97817785Y-87109761D01*
X97679532Y-87200231D01*
X97561485Y-87315831D01*
X97468140Y-87452159D01*
X97403052Y-87604021D01*
X97368700Y-87765633D01*
X97366393Y-87930840D01*
X97396219Y-88093348D01*
X97457041Y-88246968D01*
X97546544Y-88385849D01*
X97661317Y-88504700D01*
X97796990Y-88598995D01*
X97948394Y-88665142D01*
X98109762Y-88700621D01*
X98274948Y-88704081D01*
X98344622Y-88691795D01*
X97831467Y-89204950D01*
X97793191Y-89251549D01*
X97754527Y-89297626D01*
X97752877Y-89300628D01*
X97750699Y-89303279D01*
X97722229Y-89356376D01*
X97693225Y-89409134D01*
X97692188Y-89412402D01*
X97690568Y-89415424D01*
X97672950Y-89473050D01*
X97654749Y-89530426D01*
X97654367Y-89533830D01*
X97653364Y-89537111D01*
X97647273Y-89597073D01*
X97640565Y-89656881D01*
X97640518Y-89663582D01*
X97640505Y-89663709D01*
X97640516Y-89663827D01*
X97640501Y-89665984D01*
X97640501Y-90480265D01*
X97634541Y-90486225D01*
X97561455Y-90412626D01*
X97424479Y-90320235D01*
X97272166Y-90256208D01*
X97110318Y-90222986D01*
X96945100Y-90221832D01*
X96782803Y-90252792D01*
X96629612Y-90314685D01*
X96491359Y-90405155D01*
X96483426Y-90412924D01*
X96481391Y-90412924D01*
X96437540Y-90369073D01*
X96437540Y-89036400D01*
X96427403Y-88933482D01*
X96397383Y-88834519D01*
X96348633Y-88743314D01*
X96283027Y-88663373D01*
X96203086Y-88597767D01*
X96154148Y-88571609D01*
X96180922Y-88553719D01*
X96240119Y-88494522D01*
X96286630Y-88424913D01*
X96318668Y-88347568D01*
X96335000Y-88265459D01*
X96335000Y-87591250D01*
X96228750Y-87485000D01*
X94535000Y-87485000D01*
X94535000Y-87505000D01*
X94285000Y-87505000D01*
X94285000Y-87485000D01*
X94265000Y-87485000D01*
X94265000Y-87235000D01*
X94285000Y-87235000D01*
X94285000Y-87215000D01*
X94535000Y-87215000D01*
X94535000Y-87235000D01*
X96228750Y-87235000D01*
X96335000Y-87128750D01*
X96335000Y-86573808D01*
X96355542Y-86554246D01*
X96450782Y-86419235D01*
X96517984Y-86268297D01*
X96554588Y-86107180D01*
X96557224Y-85918465D01*
X96525132Y-85756389D01*
X96462170Y-85603633D01*
X96437540Y-85566562D01*
X96437540Y-84209608D01*
X99148967Y-86921034D01*
X99195540Y-86959290D01*
X99241642Y-86997974D01*
X99244644Y-86999624D01*
X99247295Y-87001802D01*
X99300392Y-87030272D01*
X99353150Y-87059276D01*
X99356418Y-87060313D01*
X99359440Y-87061933D01*
X99417066Y-87079551D01*
X99474442Y-87097752D01*
X99477846Y-87098134D01*
X99481127Y-87099137D01*
X99541133Y-87105233D01*
X99600897Y-87111936D01*
X99607588Y-87111983D01*
X99607725Y-87111997D01*
X99607853Y-87111985D01*
X99610000Y-87112000D01*
X101171820Y-87112000D01*
X101296990Y-87198995D01*
X101448394Y-87265142D01*
X101609762Y-87300621D01*
X101774948Y-87304081D01*
X101937661Y-87275390D01*
X102091702Y-87215642D01*
X102231204Y-87127111D01*
X102350854Y-87013170D01*
X102446094Y-86878159D01*
X102513296Y-86727221D01*
X102549900Y-86566104D01*
X102552536Y-86377389D01*
X102520444Y-86215313D01*
X102457482Y-86062557D01*
X102366049Y-85924939D01*
X102249628Y-85807702D01*
X102112652Y-85715311D01*
X101960339Y-85651284D01*
X101798491Y-85618062D01*
X101633273Y-85616908D01*
X101470976Y-85647868D01*
X101317785Y-85709761D01*
X101179532Y-85800231D01*
X101171599Y-85808000D01*
X99880067Y-85808000D01*
X98654436Y-84582369D01*
X98737452Y-84600621D01*
X98902638Y-84604081D01*
X99065351Y-84575390D01*
X99219392Y-84515642D01*
X99358894Y-84427111D01*
X99478544Y-84313170D01*
X99573784Y-84178159D01*
X99640986Y-84027221D01*
X99677590Y-83866104D01*
X99680226Y-83677389D01*
X99648134Y-83515313D01*
X99585172Y-83362557D01*
X99493739Y-83224939D01*
X99377318Y-83107702D01*
X99240342Y-83015311D01*
X99172191Y-82986663D01*
X99172191Y-80330838D01*
X99466393Y-80330838D01*
X99496219Y-80493346D01*
X99557041Y-80646966D01*
X99646544Y-80785847D01*
X99761317Y-80904698D01*
X99896990Y-80998993D01*
X100048394Y-81065140D01*
X100209762Y-81100619D01*
X100374948Y-81104079D01*
X100537661Y-81075388D01*
X100691702Y-81015640D01*
X100831204Y-80927109D01*
X100847072Y-80911998D01*
X103139930Y-80911998D01*
X103368106Y-81140173D01*
X103396219Y-81293348D01*
X103457041Y-81446968D01*
X103546544Y-81585849D01*
X103661317Y-81704700D01*
X103796990Y-81798995D01*
X103948394Y-81865142D01*
X104109762Y-81900621D01*
X104274948Y-81904081D01*
X104437661Y-81875390D01*
X104552518Y-81830840D01*
X105166393Y-81830840D01*
X105196219Y-81993348D01*
X105257041Y-82146968D01*
X105346544Y-82285849D01*
X105461317Y-82404700D01*
X105596990Y-82498995D01*
X105748394Y-82565142D01*
X105909762Y-82600621D01*
X106074948Y-82604081D01*
X106237661Y-82575390D01*
X106391702Y-82515642D01*
X106531204Y-82427111D01*
X106547072Y-82412000D01*
X108426757Y-82412000D01*
X108548394Y-82465142D01*
X108709762Y-82500621D01*
X108874948Y-82504081D01*
X109037661Y-82475390D01*
X109191702Y-82415642D01*
X109331204Y-82327111D01*
X109450854Y-82213170D01*
X109546094Y-82078159D01*
X109613296Y-81927221D01*
X109649900Y-81766104D01*
X109652536Y-81577389D01*
X109620444Y-81415313D01*
X109557482Y-81262557D01*
X109466049Y-81124939D01*
X109349628Y-81007702D01*
X109212652Y-80915311D01*
X109060339Y-80851284D01*
X108898491Y-80818062D01*
X108733273Y-80816908D01*
X108570976Y-80847868D01*
X108417785Y-80909761D01*
X108279532Y-81000231D01*
X108169482Y-81108000D01*
X106549924Y-81108000D01*
X106549628Y-81107702D01*
X106412652Y-81015311D01*
X106260339Y-80951284D01*
X106098491Y-80918062D01*
X105933273Y-80916908D01*
X105770976Y-80947868D01*
X105617785Y-81009761D01*
X105479532Y-81100231D01*
X105361485Y-81215831D01*
X105268140Y-81352159D01*
X105203052Y-81504021D01*
X105168700Y-81665633D01*
X105166393Y-81830840D01*
X104552518Y-81830840D01*
X104591702Y-81815642D01*
X104731204Y-81727111D01*
X104850854Y-81613170D01*
X104946094Y-81478159D01*
X105013296Y-81327221D01*
X105049900Y-81166104D01*
X105052536Y-80977389D01*
X105020444Y-80815313D01*
X104957482Y-80662557D01*
X104866049Y-80524939D01*
X104749628Y-80407702D01*
X104612652Y-80315311D01*
X104460339Y-80251284D01*
X104298491Y-80218062D01*
X104290070Y-80218003D01*
X103871032Y-79798964D01*
X103824433Y-79760688D01*
X103778356Y-79722024D01*
X103775354Y-79720374D01*
X103772703Y-79718196D01*
X103719606Y-79689726D01*
X103666848Y-79660722D01*
X103663580Y-79659685D01*
X103660558Y-79658065D01*
X103602932Y-79640447D01*
X103545556Y-79622246D01*
X103542152Y-79621864D01*
X103538871Y-79620861D01*
X103478909Y-79614770D01*
X103419101Y-79608062D01*
X103412400Y-79608015D01*
X103412273Y-79608002D01*
X103412155Y-79608013D01*
X103409998Y-79607998D01*
X100849924Y-79607998D01*
X100849628Y-79607700D01*
X100712652Y-79515309D01*
X100560339Y-79451282D01*
X100398491Y-79418060D01*
X100233273Y-79416906D01*
X100070976Y-79447866D01*
X99917785Y-79509759D01*
X99779532Y-79600229D01*
X99661485Y-79715829D01*
X99568140Y-79852157D01*
X99503052Y-80004019D01*
X99468700Y-80165631D01*
X99466393Y-80330838D01*
X99172191Y-80330838D01*
X99172191Y-79117791D01*
X99166312Y-79057834D01*
X99161065Y-78997855D01*
X99160109Y-78994563D01*
X99159774Y-78991150D01*
X99142367Y-78933496D01*
X99125564Y-78875659D01*
X99123986Y-78872614D01*
X99122995Y-78869333D01*
X99094721Y-78816158D01*
X99067004Y-78762686D01*
X99064866Y-78760007D01*
X99063256Y-78756980D01*
X99025153Y-78710261D01*
X98987616Y-78663240D01*
X98982915Y-78658472D01*
X98982831Y-78658369D01*
X98982735Y-78658290D01*
X98981225Y-78656758D01*
X96117855Y-75793387D01*
X100865634Y-75793387D01*
X100895460Y-75955895D01*
X100956282Y-76109515D01*
X101045785Y-76248396D01*
X101160558Y-76367247D01*
X101296231Y-76461542D01*
X101382787Y-76499358D01*
X101368700Y-76565633D01*
X101366393Y-76730840D01*
X101396219Y-76893348D01*
X101457041Y-77046968D01*
X101546544Y-77185849D01*
X101661317Y-77304700D01*
X101796990Y-77398995D01*
X101948394Y-77465142D01*
X102109762Y-77500621D01*
X102274948Y-77504081D01*
X102437661Y-77475390D01*
X102591702Y-77415642D01*
X102731204Y-77327111D01*
X102850854Y-77213170D01*
X102922222Y-77112000D01*
X107471820Y-77112000D01*
X107596990Y-77198995D01*
X107748394Y-77265142D01*
X107909762Y-77300621D01*
X108074948Y-77304081D01*
X108237661Y-77275390D01*
X108391702Y-77215642D01*
X108531204Y-77127111D01*
X108650854Y-77013170D01*
X108746094Y-76878159D01*
X108813296Y-76727221D01*
X108849900Y-76566104D01*
X108852536Y-76377389D01*
X108820444Y-76215313D01*
X108757482Y-76062557D01*
X108666049Y-75924939D01*
X108603775Y-75862229D01*
X108656054Y-75788119D01*
X108723256Y-75637181D01*
X108759860Y-75476064D01*
X108762496Y-75287349D01*
X108730404Y-75125273D01*
X108667442Y-74972517D01*
X108576009Y-74834899D01*
X108459588Y-74717662D01*
X108322612Y-74625271D01*
X108170299Y-74561244D01*
X108008451Y-74528022D01*
X107843233Y-74526868D01*
X107680936Y-74557828D01*
X107527745Y-74619721D01*
X107389492Y-74710191D01*
X107271445Y-74825791D01*
X107178100Y-74962119D01*
X107131628Y-75070547D01*
X102249165Y-75070547D01*
X102248869Y-75070249D01*
X102111893Y-74977858D01*
X101959580Y-74913831D01*
X101797732Y-74880609D01*
X101632514Y-74879455D01*
X101470217Y-74910415D01*
X101317026Y-74972308D01*
X101178773Y-75062778D01*
X101060726Y-75178378D01*
X100967381Y-75314706D01*
X100902293Y-75466568D01*
X100867941Y-75628180D01*
X100865634Y-75793387D01*
X96117855Y-75793387D01*
X95890758Y-75566290D01*
X95930094Y-75439217D01*
X95958422Y-75169694D01*
X95933860Y-74899802D01*
X95857344Y-74639821D01*
X95731787Y-74399654D01*
X95561973Y-74188447D01*
X95354369Y-74014247D01*
X95162197Y-73908600D01*
X95467859Y-73908600D01*
X95549968Y-73892267D01*
X95627313Y-73860230D01*
X95696922Y-73813719D01*
X95756119Y-73754522D01*
X95802630Y-73684913D01*
X95834668Y-73607568D01*
X95851000Y-73525459D01*
X95851000Y-72851250D01*
X95744750Y-72745000D01*
X94535000Y-72745000D01*
X94535000Y-72765000D01*
X94285000Y-72765000D01*
X94285000Y-72745000D01*
X94265000Y-72745000D01*
X94265000Y-72495000D01*
X94285000Y-72495000D01*
X94285000Y-71437650D01*
X94535000Y-71437650D01*
X94535000Y-72495000D01*
X95744750Y-72495000D01*
X95851000Y-72388750D01*
X95851000Y-71714541D01*
X95834668Y-71632432D01*
X95802630Y-71555087D01*
X95756119Y-71485478D01*
X95696922Y-71426281D01*
X95627313Y-71379770D01*
X95549968Y-71347733D01*
X95467859Y-71331400D01*
X94641250Y-71331400D01*
X94535000Y-71437650D01*
X94285000Y-71437650D01*
X94178750Y-71331400D01*
X93352141Y-71331400D01*
X93270032Y-71347733D01*
X93192687Y-71379770D01*
X93123078Y-71426281D01*
X93063881Y-71485478D01*
X93035000Y-71528702D01*
X93035000Y-70452621D01*
X99585000Y-70452621D01*
X99585000Y-71467379D01*
X99604521Y-71666469D01*
X99662340Y-71857976D01*
X99756256Y-72034605D01*
X99882690Y-72189629D01*
X100036827Y-72317143D01*
X100212797Y-72412289D01*
X100403895Y-72471444D01*
X100602844Y-72492354D01*
X100802066Y-72474223D01*
X100993972Y-72417742D01*
X101171252Y-72325062D01*
X101327155Y-72199713D01*
X101455741Y-72046470D01*
X101552114Y-71871169D01*
X101612601Y-71680488D01*
X101634900Y-71481690D01*
X101635000Y-71467379D01*
X101635000Y-70452621D01*
X101615479Y-70253531D01*
X101557660Y-70062024D01*
X101463744Y-69885395D01*
X101337310Y-69730371D01*
X101183173Y-69602857D01*
X101007203Y-69507711D01*
X100816105Y-69448556D01*
X100617156Y-69427646D01*
X100417934Y-69445777D01*
X100226028Y-69502258D01*
X100048748Y-69594938D01*
X99892845Y-69720287D01*
X99764259Y-69873530D01*
X99667886Y-70048831D01*
X99607399Y-70239512D01*
X99585100Y-70438310D01*
X99585000Y-70452621D01*
X93035000Y-70452621D01*
X93035000Y-68567522D01*
X93116400Y-68575540D01*
X94843600Y-68575540D01*
X94946518Y-68565403D01*
X95045481Y-68535383D01*
X95136686Y-68486633D01*
X95216627Y-68421027D01*
X95250000Y-68380362D01*
X95283373Y-68421027D01*
X95363314Y-68486633D01*
X95454519Y-68535383D01*
X95553482Y-68565403D01*
X95656400Y-68575540D01*
X97383600Y-68575540D01*
X97486518Y-68565403D01*
X97585481Y-68535383D01*
X97676686Y-68486633D01*
X97756627Y-68421027D01*
X97790000Y-68380362D01*
X97823373Y-68421027D01*
X97903314Y-68486633D01*
X97994519Y-68535383D01*
X98093482Y-68565403D01*
X98196400Y-68575540D01*
X99923600Y-68575540D01*
X100026518Y-68565403D01*
X100125481Y-68535383D01*
X100216686Y-68486633D01*
X100296627Y-68421027D01*
X100330000Y-68380362D01*
X100363373Y-68421027D01*
X100443314Y-68486633D01*
X100534519Y-68535383D01*
X100633482Y-68565403D01*
X100736400Y-68575540D01*
X102463600Y-68575540D01*
X102566518Y-68565403D01*
X102665481Y-68535383D01*
X102756686Y-68486633D01*
X102836627Y-68421027D01*
X102870000Y-68380362D01*
X102903373Y-68421027D01*
X102983314Y-68486633D01*
X103074519Y-68535383D01*
X103173482Y-68565403D01*
X103276400Y-68575540D01*
X105003600Y-68575540D01*
X105106518Y-68565403D01*
X105205481Y-68535383D01*
X105296686Y-68486633D01*
X105376627Y-68421027D01*
X105442233Y-68341086D01*
X105490983Y-68249881D01*
X105521003Y-68150918D01*
X105531140Y-68048000D01*
X105531140Y-65085000D01*
X107828860Y-65085000D01*
X107828860Y-68048000D01*
X107828860Y-68048000D01*
G37*
X107828860Y-68048000D02*
X107838997Y-68150918D01*
X107869017Y-68249881D01*
X107917767Y-68341086D01*
X107983373Y-68421027D01*
X108063314Y-68486633D01*
X108154519Y-68535383D01*
X108253482Y-68565403D01*
X108356400Y-68575540D01*
X110083600Y-68575540D01*
X110186518Y-68565403D01*
X110285481Y-68535383D01*
X110376686Y-68486633D01*
X110456627Y-68421027D01*
X110490000Y-68380362D01*
X110523373Y-68421027D01*
X110603314Y-68486633D01*
X110694519Y-68535383D01*
X110793482Y-68565403D01*
X110896400Y-68575540D01*
X112623600Y-68575540D01*
X112726518Y-68565403D01*
X112825481Y-68535383D01*
X112916686Y-68486633D01*
X112996627Y-68421027D01*
X113030000Y-68380362D01*
X113063373Y-68421027D01*
X113143314Y-68486633D01*
X113234519Y-68535383D01*
X113275000Y-68547663D01*
X113275000Y-70350000D01*
X113284242Y-70444253D01*
X113292492Y-70538550D01*
X113293995Y-70543722D01*
X113294521Y-70549090D01*
X113321894Y-70639755D01*
X113348302Y-70730653D01*
X113350783Y-70735438D01*
X113352340Y-70740597D01*
X113396784Y-70824184D01*
X113440363Y-70908255D01*
X113443726Y-70912468D01*
X113446256Y-70917226D01*
X113506104Y-70990607D01*
X113565167Y-71064594D01*
X113572561Y-71072091D01*
X113572690Y-71072250D01*
X113572837Y-71072372D01*
X113575216Y-71074784D01*
X113685215Y-71184784D01*
X113839797Y-71311759D01*
X114016097Y-71406290D01*
X114207401Y-71464777D01*
X114406422Y-71484993D01*
X114605579Y-71466168D01*
X114685000Y-71442491D01*
X114685000Y-71467379D01*
X114704521Y-71666469D01*
X114762340Y-71857976D01*
X114856256Y-72034605D01*
X114982690Y-72189629D01*
X115136827Y-72317143D01*
X115312797Y-72412289D01*
X115503895Y-72471444D01*
X115702844Y-72492354D01*
X115902066Y-72474223D01*
X116093972Y-72417742D01*
X116271252Y-72325062D01*
X116427155Y-72199713D01*
X116555741Y-72046470D01*
X116652114Y-71871169D01*
X116712601Y-71680488D01*
X116734900Y-71481690D01*
X116735000Y-71467379D01*
X116735000Y-70452621D01*
X116715479Y-70253531D01*
X116657660Y-70062024D01*
X116563744Y-69885395D01*
X116437310Y-69730371D01*
X116283173Y-69602857D01*
X116107203Y-69507711D01*
X115916105Y-69448556D01*
X115717156Y-69427646D01*
X115517934Y-69445777D01*
X115326028Y-69502258D01*
X115325000Y-69502795D01*
X115325000Y-68547663D01*
X115365481Y-68535383D01*
X115456686Y-68486633D01*
X115536627Y-68421027D01*
X115570000Y-68380362D01*
X115603373Y-68421027D01*
X115683314Y-68486633D01*
X115774519Y-68535383D01*
X115873482Y-68565403D01*
X115976400Y-68575540D01*
X117703600Y-68575540D01*
X117785000Y-68567522D01*
X117785000Y-101757154D01*
X117707203Y-101715090D01*
X117516105Y-101655935D01*
X117317156Y-101635025D01*
X117117934Y-101653156D01*
X116926028Y-101709637D01*
X116748748Y-101802317D01*
X116592845Y-101927666D01*
X116464259Y-102080909D01*
X116367886Y-102256210D01*
X116307399Y-102446891D01*
X116285100Y-102645689D01*
X116285000Y-102660000D01*
X116285000Y-103584902D01*
X116226028Y-103602258D01*
X116048748Y-103694938D01*
X115892845Y-103820287D01*
X115764259Y-103973530D01*
X115667886Y-104148831D01*
X115609370Y-104333298D01*
X115557660Y-104162024D01*
X115463744Y-103985395D01*
X115337310Y-103830371D01*
X115183173Y-103702857D01*
X115007203Y-103607711D01*
X114816105Y-103548556D01*
X114617156Y-103527646D01*
X114417934Y-103545777D01*
X114226028Y-103602258D01*
X114048748Y-103694938D01*
X113892845Y-103820287D01*
X113764259Y-103973530D01*
X113667886Y-104148831D01*
X113609370Y-104333298D01*
X113557660Y-104162024D01*
X113463744Y-103985395D01*
X113337310Y-103830371D01*
X113183173Y-103702857D01*
X113007203Y-103607711D01*
X112816105Y-103548556D01*
X112617156Y-103527646D01*
X112417934Y-103545777D01*
X112226028Y-103602258D01*
X112048748Y-103694938D01*
X111892845Y-103820287D01*
X111764259Y-103973530D01*
X111667886Y-104148831D01*
X111609370Y-104333298D01*
X111557660Y-104162024D01*
X111463744Y-103985395D01*
X111337310Y-103830371D01*
X111183173Y-103702857D01*
X111007203Y-103607711D01*
X110816105Y-103548556D01*
X110617156Y-103527646D01*
X110417934Y-103545777D01*
X110226028Y-103602258D01*
X110048748Y-103694938D01*
X109892845Y-103820287D01*
X109764259Y-103973530D01*
X109667886Y-104148831D01*
X109609370Y-104333298D01*
X109557660Y-104162024D01*
X109463744Y-103985395D01*
X109337310Y-103830371D01*
X109262000Y-103768069D01*
X109262000Y-103306000D01*
X109256122Y-103246047D01*
X109250874Y-103186063D01*
X109249918Y-103182771D01*
X109249583Y-103179359D01*
X109232180Y-103121717D01*
X109215373Y-103063868D01*
X109213795Y-103060823D01*
X109212804Y-103057542D01*
X109184530Y-103004367D01*
X109156813Y-102950895D01*
X109154675Y-102948216D01*
X109153065Y-102945189D01*
X109114982Y-102898494D01*
X109077425Y-102851448D01*
X109072720Y-102846676D01*
X109072640Y-102846578D01*
X109072550Y-102846503D01*
X109071034Y-102844966D01*
X108940075Y-102714007D01*
X108893476Y-102675731D01*
X108847399Y-102637067D01*
X108844397Y-102635417D01*
X108841746Y-102633239D01*
X108788649Y-102604769D01*
X108735891Y-102575765D01*
X108732623Y-102574728D01*
X108729601Y-102573108D01*
X108671975Y-102555490D01*
X108614599Y-102537289D01*
X108611195Y-102536907D01*
X108607914Y-102535904D01*
X108547952Y-102529813D01*
X108540815Y-102529013D01*
X108534589Y-102522743D01*
X108397613Y-102430352D01*
X108245300Y-102366325D01*
X108083452Y-102333103D01*
X107918234Y-102331949D01*
X107755937Y-102362909D01*
X107602746Y-102424802D01*
X107464493Y-102515272D01*
X107346446Y-102630872D01*
X107253101Y-102767200D01*
X107188013Y-102919062D01*
X107153661Y-103080674D01*
X107151354Y-103245881D01*
X107181180Y-103408389D01*
X107242002Y-103562009D01*
X107331505Y-103700890D01*
X107446278Y-103819741D01*
X107581951Y-103914036D01*
X107733355Y-103980183D01*
X107757663Y-103985528D01*
X107667886Y-104148831D01*
X107607399Y-104339512D01*
X107585100Y-104538310D01*
X107585000Y-104552621D01*
X107585000Y-105567379D01*
X107604521Y-105766469D01*
X107662340Y-105957976D01*
X107756256Y-106134605D01*
X107882690Y-106289629D01*
X108036827Y-106417143D01*
X108212797Y-106512289D01*
X108403895Y-106571444D01*
X108602844Y-106592354D01*
X108802066Y-106574223D01*
X108993972Y-106517742D01*
X109171252Y-106425062D01*
X109327155Y-106299713D01*
X109455741Y-106146470D01*
X109552114Y-105971169D01*
X109610630Y-105786702D01*
X109662340Y-105957976D01*
X109756256Y-106134605D01*
X109882690Y-106289629D01*
X110036827Y-106417143D01*
X110212797Y-106512289D01*
X110403895Y-106571444D01*
X110602844Y-106592354D01*
X110802066Y-106574223D01*
X110993972Y-106517742D01*
X111171252Y-106425062D01*
X111327155Y-106299713D01*
X111455741Y-106146470D01*
X111552114Y-105971169D01*
X111610630Y-105786702D01*
X111662340Y-105957976D01*
X111756256Y-106134605D01*
X111882690Y-106289629D01*
X112036827Y-106417143D01*
X112212797Y-106512289D01*
X112403895Y-106571444D01*
X112602844Y-106592354D01*
X112802066Y-106574223D01*
X112993972Y-106517742D01*
X113171252Y-106425062D01*
X113327155Y-106299713D01*
X113455741Y-106146470D01*
X113552114Y-105971169D01*
X113610630Y-105786702D01*
X113662340Y-105957976D01*
X113756256Y-106134605D01*
X113882690Y-106289629D01*
X114036827Y-106417143D01*
X114212797Y-106512289D01*
X114403895Y-106571444D01*
X114602844Y-106592354D01*
X114802066Y-106574223D01*
X114993972Y-106517742D01*
X115171252Y-106425062D01*
X115327155Y-106299713D01*
X115455741Y-106146470D01*
X115552114Y-105971169D01*
X115610630Y-105786702D01*
X115662340Y-105957976D01*
X115756256Y-106134605D01*
X115882690Y-106289629D01*
X116036827Y-106417143D01*
X116212797Y-106512289D01*
X116403895Y-106571444D01*
X116602844Y-106592354D01*
X116802066Y-106574223D01*
X116993972Y-106517742D01*
X117171252Y-106425062D01*
X117327155Y-106299713D01*
X117455741Y-106146470D01*
X117552114Y-105971169D01*
X117612601Y-105780488D01*
X117634900Y-105581690D01*
X117635000Y-105567379D01*
X117635000Y-105484568D01*
X117785000Y-105334569D01*
X117785000Y-106835000D01*
X95781138Y-106835000D01*
X95787540Y-106770000D01*
X95787540Y-105070000D01*
X95777403Y-104967082D01*
X95747383Y-104868119D01*
X95698633Y-104776914D01*
X95633027Y-104696973D01*
X95553086Y-104631367D01*
X95461881Y-104582617D01*
X95362998Y-104552621D01*
X97585000Y-104552621D01*
X97585000Y-105567379D01*
X97604521Y-105766469D01*
X97662340Y-105957976D01*
X97756256Y-106134605D01*
X97882690Y-106289629D01*
X98036827Y-106417143D01*
X98212797Y-106512289D01*
X98403895Y-106571444D01*
X98602844Y-106592354D01*
X98802066Y-106574223D01*
X98993972Y-106517742D01*
X99171252Y-106425062D01*
X99327155Y-106299713D01*
X99455741Y-106146470D01*
X99552114Y-105971169D01*
X99610630Y-105786702D01*
X99662340Y-105957976D01*
X99756256Y-106134605D01*
X99882690Y-106289629D01*
X100036827Y-106417143D01*
X100212797Y-106512289D01*
X100403895Y-106571444D01*
X100602844Y-106592354D01*
X100802066Y-106574223D01*
X100993972Y-106517742D01*
X101171252Y-106425062D01*
X101327155Y-106299713D01*
X101455741Y-106146470D01*
X101552114Y-105971169D01*
X101610630Y-105786702D01*
X101662340Y-105957976D01*
X101756256Y-106134605D01*
X101882690Y-106289629D01*
X102036827Y-106417143D01*
X102212797Y-106512289D01*
X102403895Y-106571444D01*
X102602844Y-106592354D01*
X102802066Y-106574223D01*
X102993972Y-106517742D01*
X103171252Y-106425062D01*
X103327155Y-106299713D01*
X103455741Y-106146470D01*
X103552114Y-105971169D01*
X103610630Y-105786702D01*
X103662340Y-105957976D01*
X103756256Y-106134605D01*
X103882690Y-106289629D01*
X104036827Y-106417143D01*
X104212797Y-106512289D01*
X104403895Y-106571444D01*
X104602844Y-106592354D01*
X104802066Y-106574223D01*
X104993972Y-106517742D01*
X105171252Y-106425062D01*
X105327155Y-106299713D01*
X105455741Y-106146470D01*
X105552114Y-105971169D01*
X105612601Y-105780488D01*
X105634900Y-105581690D01*
X105635000Y-105567379D01*
X105635000Y-105185000D01*
X105685000Y-105185000D01*
X105685000Y-105685000D01*
X105727160Y-105863057D01*
X105803247Y-106029467D01*
X105910337Y-106177836D01*
X106044315Y-106302462D01*
X106200032Y-106398555D01*
X106343164Y-106445677D01*
X106485000Y-106369152D01*
X106485000Y-105185000D01*
X106735000Y-105185000D01*
X106735000Y-106369152D01*
X106876836Y-106445677D01*
X107019968Y-106398555D01*
X107175685Y-106302462D01*
X107309663Y-106177836D01*
X107416753Y-106029467D01*
X107492840Y-105863057D01*
X107535000Y-105685000D01*
X107535000Y-105185000D01*
X106735000Y-105185000D01*
X106485000Y-105185000D01*
X105685000Y-105185000D01*
X105635000Y-105185000D01*
X105635000Y-104552621D01*
X105623468Y-104435000D01*
X105685000Y-104435000D01*
X105685000Y-104935000D01*
X106485000Y-104935000D01*
X106485000Y-103750848D01*
X106735000Y-103750848D01*
X106735000Y-104935000D01*
X107535000Y-104935000D01*
X107535000Y-104435000D01*
X107492840Y-104256943D01*
X107416753Y-104090533D01*
X107309663Y-103942164D01*
X107175685Y-103817538D01*
X107019968Y-103721445D01*
X106876836Y-103674323D01*
X106735000Y-103750848D01*
X106485000Y-103750848D01*
X106343164Y-103674323D01*
X106200032Y-103721445D01*
X106044315Y-103817538D01*
X105910337Y-103942164D01*
X105803247Y-104090533D01*
X105727160Y-104256943D01*
X105685000Y-104435000D01*
X105623468Y-104435000D01*
X105615479Y-104353531D01*
X105557660Y-104162024D01*
X105463744Y-103985395D01*
X105337310Y-103830371D01*
X105262000Y-103768069D01*
X105262000Y-103497387D01*
X105346106Y-103378159D01*
X105413308Y-103227221D01*
X105449912Y-103066104D01*
X105452548Y-102877389D01*
X105420456Y-102715313D01*
X105357494Y-102562557D01*
X105266061Y-102424939D01*
X105149640Y-102307702D01*
X105012664Y-102215311D01*
X104860351Y-102151284D01*
X104698503Y-102118062D01*
X104533285Y-102116908D01*
X104370988Y-102147868D01*
X104217797Y-102209761D01*
X104079544Y-102300231D01*
X103961497Y-102415831D01*
X103868152Y-102552159D01*
X103803064Y-102704021D01*
X103768712Y-102865633D01*
X103766405Y-103030840D01*
X103796231Y-103193348D01*
X103857053Y-103346968D01*
X103946556Y-103485849D01*
X103958000Y-103497700D01*
X103958000Y-103767901D01*
X103892845Y-103820287D01*
X103764259Y-103973530D01*
X103667886Y-104148831D01*
X103609370Y-104333298D01*
X103557660Y-104162024D01*
X103463744Y-103985395D01*
X103337310Y-103830371D01*
X103262000Y-103768069D01*
X103262000Y-103497360D01*
X103346094Y-103378149D01*
X103413296Y-103227211D01*
X103449900Y-103066094D01*
X103452536Y-102877379D01*
X103420444Y-102715303D01*
X103357482Y-102562547D01*
X103266049Y-102424929D01*
X103149628Y-102307692D01*
X103012652Y-102215301D01*
X102860339Y-102151274D01*
X102698491Y-102118052D01*
X102533273Y-102116898D01*
X102370976Y-102147858D01*
X102217785Y-102209751D01*
X102079532Y-102300221D01*
X101961485Y-102415821D01*
X101868140Y-102552149D01*
X101803052Y-102704011D01*
X101768700Y-102865623D01*
X101766393Y-103030830D01*
X101796219Y-103193338D01*
X101857041Y-103346958D01*
X101946544Y-103485839D01*
X101958000Y-103497702D01*
X101958000Y-103767901D01*
X101892845Y-103820287D01*
X101764259Y-103973530D01*
X101667886Y-104148831D01*
X101609370Y-104333298D01*
X101557660Y-104162024D01*
X101463744Y-103985395D01*
X101337310Y-103830371D01*
X101262000Y-103768069D01*
X101262000Y-102630068D01*
X101990777Y-101901290D01*
X102137661Y-101875390D01*
X102291702Y-101815642D01*
X102431204Y-101727111D01*
X102550854Y-101613170D01*
X102646094Y-101478159D01*
X102713296Y-101327221D01*
X102749900Y-101166104D01*
X102752536Y-100977389D01*
X102720444Y-100815313D01*
X102657482Y-100662557D01*
X102566049Y-100524939D01*
X102449628Y-100407702D01*
X102312652Y-100315311D01*
X102160339Y-100251284D01*
X101998491Y-100218062D01*
X101833273Y-100216908D01*
X101670976Y-100247868D01*
X101517785Y-100309761D01*
X101379532Y-100400231D01*
X101261485Y-100515831D01*
X101168140Y-100652159D01*
X101103052Y-100804021D01*
X101068700Y-100965633D01*
X101068507Y-100979426D01*
X100148966Y-101898966D01*
X100110690Y-101945565D01*
X100072026Y-101991642D01*
X100070376Y-101994644D01*
X100068198Y-101997295D01*
X100039728Y-102050392D01*
X100010724Y-102103150D01*
X100009687Y-102106418D01*
X100008067Y-102109440D01*
X99990449Y-102167066D01*
X99972248Y-102224442D01*
X99971866Y-102227846D01*
X99970863Y-102231127D01*
X99964772Y-102291089D01*
X99958064Y-102350897D01*
X99958017Y-102357598D01*
X99958004Y-102357725D01*
X99958015Y-102357843D01*
X99958000Y-102360000D01*
X99958000Y-102616834D01*
X99849628Y-102507702D01*
X99712652Y-102415311D01*
X99560339Y-102351284D01*
X99398491Y-102318062D01*
X99233273Y-102316908D01*
X99070976Y-102347868D01*
X98917785Y-102409761D01*
X98779532Y-102500231D01*
X98661485Y-102615831D01*
X98568140Y-102752159D01*
X98503052Y-102904021D01*
X98479606Y-103014326D01*
X98148966Y-103344966D01*
X98110690Y-103391565D01*
X98072026Y-103437642D01*
X98070376Y-103440644D01*
X98068198Y-103443295D01*
X98039728Y-103496392D01*
X98010724Y-103549150D01*
X98009687Y-103552418D01*
X98008067Y-103555440D01*
X97990449Y-103613066D01*
X97972248Y-103670442D01*
X97971866Y-103673846D01*
X97970863Y-103677127D01*
X97964772Y-103737089D01*
X97961645Y-103764970D01*
X97892845Y-103820287D01*
X97764259Y-103973530D01*
X97667886Y-104148831D01*
X97607399Y-104339512D01*
X97585100Y-104538310D01*
X97585000Y-104552621D01*
X95362998Y-104552621D01*
X95362918Y-104552597D01*
X95260000Y-104542460D01*
X95145231Y-104542460D01*
X95177566Y-104525267D01*
X95385525Y-104355660D01*
X95556580Y-104148890D01*
X95684215Y-103912834D01*
X95763569Y-103656482D01*
X95791619Y-103389599D01*
X95767298Y-103122351D01*
X95691531Y-102864916D01*
X95567204Y-102627101D01*
X95399053Y-102417963D01*
X95193483Y-102245469D01*
X94958323Y-102116189D01*
X94774666Y-102057929D01*
X94966449Y-101987172D01*
X95179559Y-101856572D01*
X95363095Y-101686905D01*
X95510005Y-101484692D01*
X95614642Y-101257704D01*
X95643682Y-101161954D01*
X95572046Y-100965000D01*
X94535000Y-100965000D01*
X94535000Y-100985000D01*
X94285000Y-100985000D01*
X94285000Y-100965000D01*
X93247954Y-100965000D01*
X93176318Y-101161954D01*
X93205358Y-101257704D01*
X93309995Y-101484692D01*
X93456905Y-101686905D01*
X93640441Y-101856572D01*
X93853551Y-101987172D01*
X94046399Y-102058322D01*
X93879375Y-102108749D01*
X93642434Y-102234733D01*
X93434475Y-102404340D01*
X93263420Y-102611110D01*
X93135785Y-102847166D01*
X93056431Y-103103518D01*
X93035000Y-103307424D01*
X93035000Y-98958560D01*
X93088213Y-99060346D01*
X93258027Y-99271553D01*
X93465631Y-99445753D01*
X93703116Y-99576311D01*
X93953813Y-99655837D01*
X93853551Y-99692828D01*
X93640441Y-99823428D01*
X93456905Y-99993095D01*
X93309995Y-100195308D01*
X93205358Y-100422296D01*
X93176318Y-100518046D01*
X93247954Y-100715000D01*
X94285000Y-100715000D01*
X94285000Y-100695000D01*
X94535000Y-100695000D01*
X94535000Y-100715000D01*
X95572046Y-100715000D01*
X95643682Y-100518046D01*
X95614642Y-100422296D01*
X95510005Y-100195308D01*
X95363095Y-99993095D01*
X95179559Y-99823428D01*
X94966449Y-99692828D01*
X94863624Y-99654892D01*
X95099010Y-99583825D01*
X95338296Y-99456594D01*
X95548311Y-99285310D01*
X95721058Y-99076495D01*
X95849955Y-98838104D01*
X95930094Y-98579217D01*
X95958422Y-98309694D01*
X95933860Y-98039802D01*
X95857344Y-97779821D01*
X95731787Y-97539654D01*
X95561973Y-97328447D01*
X95445650Y-97230840D01*
X103866393Y-97230840D01*
X103896219Y-97393348D01*
X103957041Y-97546968D01*
X104046544Y-97685849D01*
X104161317Y-97804700D01*
X104296990Y-97898995D01*
X104448394Y-97965142D01*
X104609762Y-98000621D01*
X104774948Y-98004081D01*
X104937661Y-97975390D01*
X105091702Y-97915642D01*
X105231204Y-97827111D01*
X105247072Y-97812000D01*
X105565506Y-97812000D01*
X105579351Y-97846968D01*
X105668854Y-97985849D01*
X105783627Y-98104700D01*
X105919300Y-98198995D01*
X106070704Y-98265142D01*
X106232072Y-98300621D01*
X106397258Y-98304081D01*
X106559971Y-98275390D01*
X106714012Y-98215642D01*
X106853514Y-98127111D01*
X106973164Y-98013170D01*
X107068404Y-97878159D01*
X107135606Y-97727221D01*
X107172210Y-97566104D01*
X107174846Y-97377389D01*
X107142754Y-97215313D01*
X107079792Y-97062557D01*
X106988359Y-96924939D01*
X106871938Y-96807702D01*
X106734962Y-96715311D01*
X106582649Y-96651284D01*
X106420801Y-96618062D01*
X106394418Y-96617878D01*
X106341918Y-96589728D01*
X106289160Y-96560724D01*
X106285892Y-96559687D01*
X106282870Y-96558067D01*
X106225244Y-96540449D01*
X106167868Y-96522248D01*
X106164464Y-96521866D01*
X106161183Y-96520863D01*
X106101221Y-96514772D01*
X106041413Y-96508064D01*
X106034712Y-96508017D01*
X106034585Y-96508004D01*
X106034467Y-96508015D01*
X106032310Y-96508000D01*
X105249924Y-96508000D01*
X105249628Y-96507702D01*
X105112652Y-96415311D01*
X104960339Y-96351284D01*
X104798491Y-96318062D01*
X104633273Y-96316908D01*
X104470976Y-96347868D01*
X104317785Y-96409761D01*
X104179532Y-96500231D01*
X104061485Y-96615831D01*
X103968140Y-96752159D01*
X103903052Y-96904021D01*
X103868700Y-97065633D01*
X103866393Y-97230840D01*
X95445650Y-97230840D01*
X95354369Y-97154247D01*
X95126715Y-97029094D01*
X95338296Y-96916594D01*
X95548311Y-96745310D01*
X95721058Y-96536495D01*
X95849955Y-96298104D01*
X95930094Y-96039217D01*
X95958422Y-95769694D01*
X95933860Y-95499802D01*
X95857344Y-95239821D01*
X95731787Y-94999654D01*
X95561973Y-94788447D01*
X95354369Y-94614247D01*
X95162197Y-94508600D01*
X95467859Y-94508600D01*
X95549968Y-94492267D01*
X95627313Y-94460230D01*
X95696922Y-94413719D01*
X95756119Y-94354522D01*
X95802630Y-94284913D01*
X95834668Y-94207568D01*
X95851000Y-94125459D01*
X95851000Y-93451250D01*
X95744750Y-93345000D01*
X94535000Y-93345000D01*
X94535000Y-93365000D01*
X94285000Y-93365000D01*
X94285000Y-93345000D01*
X94265000Y-93345000D01*
X94265000Y-93095000D01*
X94285000Y-93095000D01*
X94285000Y-92037650D01*
X94535000Y-92037650D01*
X94535000Y-93095000D01*
X95744750Y-93095000D01*
X95851000Y-92988750D01*
X95851000Y-92314541D01*
X95834668Y-92232432D01*
X95802630Y-92155087D01*
X95756119Y-92085478D01*
X95696922Y-92026281D01*
X95627313Y-91979770D01*
X95549968Y-91947733D01*
X95467859Y-91931400D01*
X94641250Y-91931400D01*
X94535000Y-92037650D01*
X94285000Y-92037650D01*
X94178750Y-91931400D01*
X93352141Y-91931400D01*
X93270032Y-91947733D01*
X93192687Y-91979770D01*
X93123078Y-92026281D01*
X93063881Y-92085478D01*
X93035000Y-92128702D01*
X93035000Y-91291140D01*
X95515473Y-91291140D01*
X95750290Y-91525957D01*
X95796859Y-91564209D01*
X95842966Y-91602898D01*
X95845968Y-91604548D01*
X95848619Y-91606726D01*
X95901735Y-91635207D01*
X95954474Y-91664200D01*
X95957740Y-91665236D01*
X95960763Y-91666857D01*
X96018404Y-91684480D01*
X96075766Y-91702676D01*
X96079170Y-91703058D01*
X96082451Y-91704061D01*
X96142417Y-91710152D01*
X96202221Y-91716860D01*
X96208921Y-91716907D01*
X96209048Y-91716920D01*
X96209166Y-91716909D01*
X96211324Y-91716924D01*
X96220661Y-91716924D01*
X96206627Y-91782950D01*
X96204320Y-91948157D01*
X96234146Y-92110665D01*
X96294968Y-92264285D01*
X96384471Y-92403166D01*
X96499244Y-92522017D01*
X96634917Y-92616312D01*
X96786321Y-92682459D01*
X96947689Y-92717938D01*
X96951750Y-92718023D01*
X96928377Y-92752159D01*
X96863289Y-92904021D01*
X96828937Y-93065633D01*
X96826630Y-93230840D01*
X96856456Y-93393348D01*
X96917278Y-93546968D01*
X97006781Y-93685849D01*
X97121554Y-93804700D01*
X97257227Y-93898995D01*
X97408631Y-93965142D01*
X97569999Y-94000621D01*
X97735185Y-94004081D01*
X97897898Y-93975390D01*
X98051939Y-93915642D01*
X98191441Y-93827111D01*
X98216950Y-93802819D01*
X98239186Y-93800874D01*
X98242478Y-93799918D01*
X98245890Y-93799583D01*
X98303532Y-93782180D01*
X98361381Y-93765373D01*
X98364426Y-93763795D01*
X98367707Y-93762804D01*
X98420882Y-93734530D01*
X98474354Y-93706813D01*
X98477033Y-93704675D01*
X98480060Y-93703065D01*
X98526755Y-93664982D01*
X98573801Y-93627425D01*
X98578573Y-93622720D01*
X98578671Y-93622640D01*
X98578746Y-93622550D01*
X98580283Y-93621034D01*
X100361086Y-91840230D01*
X100399342Y-91793657D01*
X100438026Y-91747555D01*
X100439676Y-91744553D01*
X100441854Y-91741902D01*
X100470324Y-91688805D01*
X100499328Y-91636047D01*
X100500365Y-91632779D01*
X100501985Y-91629757D01*
X100519603Y-91572131D01*
X100537804Y-91514755D01*
X100538186Y-91511351D01*
X100539189Y-91508070D01*
X100545280Y-91448108D01*
X100551988Y-91388300D01*
X100552035Y-91381599D01*
X100552048Y-91381472D01*
X100552037Y-91381354D01*
X100552052Y-91379197D01*
X100552052Y-90417020D01*
X100636146Y-90297809D01*
X100703348Y-90146871D01*
X100703753Y-90145090D01*
X100761317Y-90204700D01*
X100896990Y-90298995D01*
X101048394Y-90365142D01*
X101209762Y-90400621D01*
X101374948Y-90404081D01*
X101537661Y-90375390D01*
X101652518Y-90330840D01*
X105666393Y-90330840D01*
X105696219Y-90493348D01*
X105757041Y-90646968D01*
X105846544Y-90785849D01*
X105961317Y-90904700D01*
X106096990Y-90998995D01*
X106248394Y-91065142D01*
X106409762Y-91100621D01*
X106574948Y-91104081D01*
X106737661Y-91075390D01*
X106891702Y-91015642D01*
X107031204Y-90927111D01*
X107150854Y-90813170D01*
X107246094Y-90678159D01*
X107313296Y-90527221D01*
X107349900Y-90366104D01*
X107350239Y-90341829D01*
X107871034Y-89821033D01*
X107909290Y-89774460D01*
X107947974Y-89728358D01*
X107949624Y-89725356D01*
X107951802Y-89722705D01*
X107980272Y-89669608D01*
X108009276Y-89616850D01*
X108010313Y-89613582D01*
X108011933Y-89610560D01*
X108029551Y-89552934D01*
X108047752Y-89495558D01*
X108048134Y-89492154D01*
X108049137Y-89488873D01*
X108055228Y-89428911D01*
X108061936Y-89369103D01*
X108061983Y-89362402D01*
X108061996Y-89362275D01*
X108061985Y-89362157D01*
X108062000Y-89360000D01*
X108062000Y-86697370D01*
X108146094Y-86578159D01*
X108213296Y-86427221D01*
X108249900Y-86266104D01*
X108252536Y-86077389D01*
X108220444Y-85915313D01*
X108157482Y-85762557D01*
X108066049Y-85624939D01*
X107949628Y-85507702D01*
X107812652Y-85415311D01*
X107660339Y-85351284D01*
X107498491Y-85318062D01*
X107333273Y-85316908D01*
X107170976Y-85347868D01*
X107017785Y-85409761D01*
X106879532Y-85500231D01*
X106761485Y-85615831D01*
X106668140Y-85752159D01*
X106603052Y-85904021D01*
X106568700Y-86065633D01*
X106566393Y-86230840D01*
X106596219Y-86393348D01*
X106657041Y-86546968D01*
X106746544Y-86685849D01*
X106758000Y-86697712D01*
X106758000Y-89089933D01*
X106430494Y-89417438D01*
X106270976Y-89447868D01*
X106117785Y-89509761D01*
X105979532Y-89600231D01*
X105861485Y-89715831D01*
X105768140Y-89852159D01*
X105703052Y-90004021D01*
X105668700Y-90165633D01*
X105666393Y-90330840D01*
X101652518Y-90330840D01*
X101691702Y-90315642D01*
X101831204Y-90227111D01*
X101950854Y-90113170D01*
X102046094Y-89978159D01*
X102113296Y-89827221D01*
X102149900Y-89666104D01*
X102152536Y-89477389D01*
X102120444Y-89315313D01*
X102057482Y-89162557D01*
X101966049Y-89024939D01*
X101849628Y-88907702D01*
X101712652Y-88815311D01*
X101560339Y-88751284D01*
X101398491Y-88718062D01*
X101390070Y-88718003D01*
X100071034Y-87398966D01*
X100024435Y-87360690D01*
X99978358Y-87322026D01*
X99975356Y-87320376D01*
X99972705Y-87318198D01*
X99919608Y-87289728D01*
X99866850Y-87260724D01*
X99863582Y-87259687D01*
X99860560Y-87258067D01*
X99802934Y-87240449D01*
X99745558Y-87222248D01*
X99742154Y-87221866D01*
X99738873Y-87220863D01*
X99678911Y-87214772D01*
X99619103Y-87208064D01*
X99612402Y-87208017D01*
X99612275Y-87208004D01*
X99612157Y-87208015D01*
X99610000Y-87208000D01*
X98749924Y-87208000D01*
X98749628Y-87207702D01*
X98612652Y-87115311D01*
X98460339Y-87051284D01*
X98298491Y-87018062D01*
X98133273Y-87016908D01*
X97970976Y-87047868D01*
X97817785Y-87109761D01*
X97679532Y-87200231D01*
X97561485Y-87315831D01*
X97468140Y-87452159D01*
X97403052Y-87604021D01*
X97368700Y-87765633D01*
X97366393Y-87930840D01*
X97396219Y-88093348D01*
X97457041Y-88246968D01*
X97546544Y-88385849D01*
X97661317Y-88504700D01*
X97796990Y-88598995D01*
X97948394Y-88665142D01*
X98109762Y-88700621D01*
X98274948Y-88704081D01*
X98344622Y-88691795D01*
X97831467Y-89204950D01*
X97793191Y-89251549D01*
X97754527Y-89297626D01*
X97752877Y-89300628D01*
X97750699Y-89303279D01*
X97722229Y-89356376D01*
X97693225Y-89409134D01*
X97692188Y-89412402D01*
X97690568Y-89415424D01*
X97672950Y-89473050D01*
X97654749Y-89530426D01*
X97654367Y-89533830D01*
X97653364Y-89537111D01*
X97647273Y-89597073D01*
X97640565Y-89656881D01*
X97640518Y-89663582D01*
X97640505Y-89663709D01*
X97640516Y-89663827D01*
X97640501Y-89665984D01*
X97640501Y-90480265D01*
X97634541Y-90486225D01*
X97561455Y-90412626D01*
X97424479Y-90320235D01*
X97272166Y-90256208D01*
X97110318Y-90222986D01*
X96945100Y-90221832D01*
X96782803Y-90252792D01*
X96629612Y-90314685D01*
X96491359Y-90405155D01*
X96483426Y-90412924D01*
X96481391Y-90412924D01*
X96437540Y-90369073D01*
X96437540Y-89036400D01*
X96427403Y-88933482D01*
X96397383Y-88834519D01*
X96348633Y-88743314D01*
X96283027Y-88663373D01*
X96203086Y-88597767D01*
X96154148Y-88571609D01*
X96180922Y-88553719D01*
X96240119Y-88494522D01*
X96286630Y-88424913D01*
X96318668Y-88347568D01*
X96335000Y-88265459D01*
X96335000Y-87591250D01*
X96228750Y-87485000D01*
X94535000Y-87485000D01*
X94535000Y-87505000D01*
X94285000Y-87505000D01*
X94285000Y-87485000D01*
X94265000Y-87485000D01*
X94265000Y-87235000D01*
X94285000Y-87235000D01*
X94285000Y-87215000D01*
X94535000Y-87215000D01*
X94535000Y-87235000D01*
X96228750Y-87235000D01*
X96335000Y-87128750D01*
X96335000Y-86573808D01*
X96355542Y-86554246D01*
X96450782Y-86419235D01*
X96517984Y-86268297D01*
X96554588Y-86107180D01*
X96557224Y-85918465D01*
X96525132Y-85756389D01*
X96462170Y-85603633D01*
X96437540Y-85566562D01*
X96437540Y-84209608D01*
X99148967Y-86921034D01*
X99195540Y-86959290D01*
X99241642Y-86997974D01*
X99244644Y-86999624D01*
X99247295Y-87001802D01*
X99300392Y-87030272D01*
X99353150Y-87059276D01*
X99356418Y-87060313D01*
X99359440Y-87061933D01*
X99417066Y-87079551D01*
X99474442Y-87097752D01*
X99477846Y-87098134D01*
X99481127Y-87099137D01*
X99541133Y-87105233D01*
X99600897Y-87111936D01*
X99607588Y-87111983D01*
X99607725Y-87111997D01*
X99607853Y-87111985D01*
X99610000Y-87112000D01*
X101171820Y-87112000D01*
X101296990Y-87198995D01*
X101448394Y-87265142D01*
X101609762Y-87300621D01*
X101774948Y-87304081D01*
X101937661Y-87275390D01*
X102091702Y-87215642D01*
X102231204Y-87127111D01*
X102350854Y-87013170D01*
X102446094Y-86878159D01*
X102513296Y-86727221D01*
X102549900Y-86566104D01*
X102552536Y-86377389D01*
X102520444Y-86215313D01*
X102457482Y-86062557D01*
X102366049Y-85924939D01*
X102249628Y-85807702D01*
X102112652Y-85715311D01*
X101960339Y-85651284D01*
X101798491Y-85618062D01*
X101633273Y-85616908D01*
X101470976Y-85647868D01*
X101317785Y-85709761D01*
X101179532Y-85800231D01*
X101171599Y-85808000D01*
X99880067Y-85808000D01*
X98654436Y-84582369D01*
X98737452Y-84600621D01*
X98902638Y-84604081D01*
X99065351Y-84575390D01*
X99219392Y-84515642D01*
X99358894Y-84427111D01*
X99478544Y-84313170D01*
X99573784Y-84178159D01*
X99640986Y-84027221D01*
X99677590Y-83866104D01*
X99680226Y-83677389D01*
X99648134Y-83515313D01*
X99585172Y-83362557D01*
X99493739Y-83224939D01*
X99377318Y-83107702D01*
X99240342Y-83015311D01*
X99172191Y-82986663D01*
X99172191Y-80330838D01*
X99466393Y-80330838D01*
X99496219Y-80493346D01*
X99557041Y-80646966D01*
X99646544Y-80785847D01*
X99761317Y-80904698D01*
X99896990Y-80998993D01*
X100048394Y-81065140D01*
X100209762Y-81100619D01*
X100374948Y-81104079D01*
X100537661Y-81075388D01*
X100691702Y-81015640D01*
X100831204Y-80927109D01*
X100847072Y-80911998D01*
X103139930Y-80911998D01*
X103368106Y-81140173D01*
X103396219Y-81293348D01*
X103457041Y-81446968D01*
X103546544Y-81585849D01*
X103661317Y-81704700D01*
X103796990Y-81798995D01*
X103948394Y-81865142D01*
X104109762Y-81900621D01*
X104274948Y-81904081D01*
X104437661Y-81875390D01*
X104552518Y-81830840D01*
X105166393Y-81830840D01*
X105196219Y-81993348D01*
X105257041Y-82146968D01*
X105346544Y-82285849D01*
X105461317Y-82404700D01*
X105596990Y-82498995D01*
X105748394Y-82565142D01*
X105909762Y-82600621D01*
X106074948Y-82604081D01*
X106237661Y-82575390D01*
X106391702Y-82515642D01*
X106531204Y-82427111D01*
X106547072Y-82412000D01*
X108426757Y-82412000D01*
X108548394Y-82465142D01*
X108709762Y-82500621D01*
X108874948Y-82504081D01*
X109037661Y-82475390D01*
X109191702Y-82415642D01*
X109331204Y-82327111D01*
X109450854Y-82213170D01*
X109546094Y-82078159D01*
X109613296Y-81927221D01*
X109649900Y-81766104D01*
X109652536Y-81577389D01*
X109620444Y-81415313D01*
X109557482Y-81262557D01*
X109466049Y-81124939D01*
X109349628Y-81007702D01*
X109212652Y-80915311D01*
X109060339Y-80851284D01*
X108898491Y-80818062D01*
X108733273Y-80816908D01*
X108570976Y-80847868D01*
X108417785Y-80909761D01*
X108279532Y-81000231D01*
X108169482Y-81108000D01*
X106549924Y-81108000D01*
X106549628Y-81107702D01*
X106412652Y-81015311D01*
X106260339Y-80951284D01*
X106098491Y-80918062D01*
X105933273Y-80916908D01*
X105770976Y-80947868D01*
X105617785Y-81009761D01*
X105479532Y-81100231D01*
X105361485Y-81215831D01*
X105268140Y-81352159D01*
X105203052Y-81504021D01*
X105168700Y-81665633D01*
X105166393Y-81830840D01*
X104552518Y-81830840D01*
X104591702Y-81815642D01*
X104731204Y-81727111D01*
X104850854Y-81613170D01*
X104946094Y-81478159D01*
X105013296Y-81327221D01*
X105049900Y-81166104D01*
X105052536Y-80977389D01*
X105020444Y-80815313D01*
X104957482Y-80662557D01*
X104866049Y-80524939D01*
X104749628Y-80407702D01*
X104612652Y-80315311D01*
X104460339Y-80251284D01*
X104298491Y-80218062D01*
X104290070Y-80218003D01*
X103871032Y-79798964D01*
X103824433Y-79760688D01*
X103778356Y-79722024D01*
X103775354Y-79720374D01*
X103772703Y-79718196D01*
X103719606Y-79689726D01*
X103666848Y-79660722D01*
X103663580Y-79659685D01*
X103660558Y-79658065D01*
X103602932Y-79640447D01*
X103545556Y-79622246D01*
X103542152Y-79621864D01*
X103538871Y-79620861D01*
X103478909Y-79614770D01*
X103419101Y-79608062D01*
X103412400Y-79608015D01*
X103412273Y-79608002D01*
X103412155Y-79608013D01*
X103409998Y-79607998D01*
X100849924Y-79607998D01*
X100849628Y-79607700D01*
X100712652Y-79515309D01*
X100560339Y-79451282D01*
X100398491Y-79418060D01*
X100233273Y-79416906D01*
X100070976Y-79447866D01*
X99917785Y-79509759D01*
X99779532Y-79600229D01*
X99661485Y-79715829D01*
X99568140Y-79852157D01*
X99503052Y-80004019D01*
X99468700Y-80165631D01*
X99466393Y-80330838D01*
X99172191Y-80330838D01*
X99172191Y-79117791D01*
X99166312Y-79057834D01*
X99161065Y-78997855D01*
X99160109Y-78994563D01*
X99159774Y-78991150D01*
X99142367Y-78933496D01*
X99125564Y-78875659D01*
X99123986Y-78872614D01*
X99122995Y-78869333D01*
X99094721Y-78816158D01*
X99067004Y-78762686D01*
X99064866Y-78760007D01*
X99063256Y-78756980D01*
X99025153Y-78710261D01*
X98987616Y-78663240D01*
X98982915Y-78658472D01*
X98982831Y-78658369D01*
X98982735Y-78658290D01*
X98981225Y-78656758D01*
X96117855Y-75793387D01*
X100865634Y-75793387D01*
X100895460Y-75955895D01*
X100956282Y-76109515D01*
X101045785Y-76248396D01*
X101160558Y-76367247D01*
X101296231Y-76461542D01*
X101382787Y-76499358D01*
X101368700Y-76565633D01*
X101366393Y-76730840D01*
X101396219Y-76893348D01*
X101457041Y-77046968D01*
X101546544Y-77185849D01*
X101661317Y-77304700D01*
X101796990Y-77398995D01*
X101948394Y-77465142D01*
X102109762Y-77500621D01*
X102274948Y-77504081D01*
X102437661Y-77475390D01*
X102591702Y-77415642D01*
X102731204Y-77327111D01*
X102850854Y-77213170D01*
X102922222Y-77112000D01*
X107471820Y-77112000D01*
X107596990Y-77198995D01*
X107748394Y-77265142D01*
X107909762Y-77300621D01*
X108074948Y-77304081D01*
X108237661Y-77275390D01*
X108391702Y-77215642D01*
X108531204Y-77127111D01*
X108650854Y-77013170D01*
X108746094Y-76878159D01*
X108813296Y-76727221D01*
X108849900Y-76566104D01*
X108852536Y-76377389D01*
X108820444Y-76215313D01*
X108757482Y-76062557D01*
X108666049Y-75924939D01*
X108603775Y-75862229D01*
X108656054Y-75788119D01*
X108723256Y-75637181D01*
X108759860Y-75476064D01*
X108762496Y-75287349D01*
X108730404Y-75125273D01*
X108667442Y-74972517D01*
X108576009Y-74834899D01*
X108459588Y-74717662D01*
X108322612Y-74625271D01*
X108170299Y-74561244D01*
X108008451Y-74528022D01*
X107843233Y-74526868D01*
X107680936Y-74557828D01*
X107527745Y-74619721D01*
X107389492Y-74710191D01*
X107271445Y-74825791D01*
X107178100Y-74962119D01*
X107131628Y-75070547D01*
X102249165Y-75070547D01*
X102248869Y-75070249D01*
X102111893Y-74977858D01*
X101959580Y-74913831D01*
X101797732Y-74880609D01*
X101632514Y-74879455D01*
X101470217Y-74910415D01*
X101317026Y-74972308D01*
X101178773Y-75062778D01*
X101060726Y-75178378D01*
X100967381Y-75314706D01*
X100902293Y-75466568D01*
X100867941Y-75628180D01*
X100865634Y-75793387D01*
X96117855Y-75793387D01*
X95890758Y-75566290D01*
X95930094Y-75439217D01*
X95958422Y-75169694D01*
X95933860Y-74899802D01*
X95857344Y-74639821D01*
X95731787Y-74399654D01*
X95561973Y-74188447D01*
X95354369Y-74014247D01*
X95162197Y-73908600D01*
X95467859Y-73908600D01*
X95549968Y-73892267D01*
X95627313Y-73860230D01*
X95696922Y-73813719D01*
X95756119Y-73754522D01*
X95802630Y-73684913D01*
X95834668Y-73607568D01*
X95851000Y-73525459D01*
X95851000Y-72851250D01*
X95744750Y-72745000D01*
X94535000Y-72745000D01*
X94535000Y-72765000D01*
X94285000Y-72765000D01*
X94285000Y-72745000D01*
X94265000Y-72745000D01*
X94265000Y-72495000D01*
X94285000Y-72495000D01*
X94285000Y-71437650D01*
X94535000Y-71437650D01*
X94535000Y-72495000D01*
X95744750Y-72495000D01*
X95851000Y-72388750D01*
X95851000Y-71714541D01*
X95834668Y-71632432D01*
X95802630Y-71555087D01*
X95756119Y-71485478D01*
X95696922Y-71426281D01*
X95627313Y-71379770D01*
X95549968Y-71347733D01*
X95467859Y-71331400D01*
X94641250Y-71331400D01*
X94535000Y-71437650D01*
X94285000Y-71437650D01*
X94178750Y-71331400D01*
X93352141Y-71331400D01*
X93270032Y-71347733D01*
X93192687Y-71379770D01*
X93123078Y-71426281D01*
X93063881Y-71485478D01*
X93035000Y-71528702D01*
X93035000Y-70452621D01*
X99585000Y-70452621D01*
X99585000Y-71467379D01*
X99604521Y-71666469D01*
X99662340Y-71857976D01*
X99756256Y-72034605D01*
X99882690Y-72189629D01*
X100036827Y-72317143D01*
X100212797Y-72412289D01*
X100403895Y-72471444D01*
X100602844Y-72492354D01*
X100802066Y-72474223D01*
X100993972Y-72417742D01*
X101171252Y-72325062D01*
X101327155Y-72199713D01*
X101455741Y-72046470D01*
X101552114Y-71871169D01*
X101612601Y-71680488D01*
X101634900Y-71481690D01*
X101635000Y-71467379D01*
X101635000Y-70452621D01*
X101615479Y-70253531D01*
X101557660Y-70062024D01*
X101463744Y-69885395D01*
X101337310Y-69730371D01*
X101183173Y-69602857D01*
X101007203Y-69507711D01*
X100816105Y-69448556D01*
X100617156Y-69427646D01*
X100417934Y-69445777D01*
X100226028Y-69502258D01*
X100048748Y-69594938D01*
X99892845Y-69720287D01*
X99764259Y-69873530D01*
X99667886Y-70048831D01*
X99607399Y-70239512D01*
X99585100Y-70438310D01*
X99585000Y-70452621D01*
X93035000Y-70452621D01*
X93035000Y-68567522D01*
X93116400Y-68575540D01*
X94843600Y-68575540D01*
X94946518Y-68565403D01*
X95045481Y-68535383D01*
X95136686Y-68486633D01*
X95216627Y-68421027D01*
X95250000Y-68380362D01*
X95283373Y-68421027D01*
X95363314Y-68486633D01*
X95454519Y-68535383D01*
X95553482Y-68565403D01*
X95656400Y-68575540D01*
X97383600Y-68575540D01*
X97486518Y-68565403D01*
X97585481Y-68535383D01*
X97676686Y-68486633D01*
X97756627Y-68421027D01*
X97790000Y-68380362D01*
X97823373Y-68421027D01*
X97903314Y-68486633D01*
X97994519Y-68535383D01*
X98093482Y-68565403D01*
X98196400Y-68575540D01*
X99923600Y-68575540D01*
X100026518Y-68565403D01*
X100125481Y-68535383D01*
X100216686Y-68486633D01*
X100296627Y-68421027D01*
X100330000Y-68380362D01*
X100363373Y-68421027D01*
X100443314Y-68486633D01*
X100534519Y-68535383D01*
X100633482Y-68565403D01*
X100736400Y-68575540D01*
X102463600Y-68575540D01*
X102566518Y-68565403D01*
X102665481Y-68535383D01*
X102756686Y-68486633D01*
X102836627Y-68421027D01*
X102870000Y-68380362D01*
X102903373Y-68421027D01*
X102983314Y-68486633D01*
X103074519Y-68535383D01*
X103173482Y-68565403D01*
X103276400Y-68575540D01*
X105003600Y-68575540D01*
X105106518Y-68565403D01*
X105205481Y-68535383D01*
X105296686Y-68486633D01*
X105376627Y-68421027D01*
X105442233Y-68341086D01*
X105490983Y-68249881D01*
X105521003Y-68150918D01*
X105531140Y-68048000D01*
X105531140Y-65085000D01*
X107828860Y-65085000D01*
X107828860Y-68048000D01*
G36*
X96858000Y-79330067D02*
X96858000Y-81020923D01*
X96768140Y-81152161D01*
X96703052Y-81304023D01*
X96668700Y-81465635D01*
X96666393Y-81630842D01*
X96696219Y-81793350D01*
X96757041Y-81946970D01*
X96846544Y-82085851D01*
X96961317Y-82204702D01*
X97096990Y-82298997D01*
X97248394Y-82365144D01*
X97409762Y-82400623D01*
X97574948Y-82404083D01*
X97737661Y-82375392D01*
X97868191Y-82324763D01*
X97868191Y-83442501D01*
X97874069Y-83502454D01*
X97879317Y-83562438D01*
X97880273Y-83565730D01*
X97880608Y-83569142D01*
X97898011Y-83626784D01*
X97914818Y-83684633D01*
X97916396Y-83687678D01*
X97917387Y-83690959D01*
X97945661Y-83744134D01*
X97973378Y-83797606D01*
X97975516Y-83800285D01*
X97977126Y-83803312D01*
X97994175Y-83824217D01*
X97994083Y-83830840D01*
X98014579Y-83942511D01*
X96437540Y-82365472D01*
X96437540Y-81416400D01*
X96427403Y-81313482D01*
X96397383Y-81214519D01*
X96348633Y-81123314D01*
X96283027Y-81043373D01*
X96203086Y-80977767D01*
X96111881Y-80929017D01*
X96012918Y-80898997D01*
X95910000Y-80888860D01*
X93035000Y-80888860D01*
X93035000Y-78358560D01*
X93088213Y-78460346D01*
X93258027Y-78671553D01*
X93465631Y-78845753D01*
X93703116Y-78976311D01*
X93961438Y-79058256D01*
X94230756Y-79088465D01*
X94250144Y-79088600D01*
X94569856Y-79088600D01*
X94839570Y-79062154D01*
X95099010Y-78983825D01*
X95338296Y-78856594D01*
X95548311Y-78685310D01*
X95721058Y-78476495D01*
X95788372Y-78352000D01*
X95879932Y-78352000D01*
X96858000Y-79330067D01*
X96858000Y-79330067D01*
G37*
X96858000Y-79330067D02*
X96858000Y-81020923D01*
X96768140Y-81152161D01*
X96703052Y-81304023D01*
X96668700Y-81465635D01*
X96666393Y-81630842D01*
X96696219Y-81793350D01*
X96757041Y-81946970D01*
X96846544Y-82085851D01*
X96961317Y-82204702D01*
X97096990Y-82298997D01*
X97248394Y-82365144D01*
X97409762Y-82400623D01*
X97574948Y-82404083D01*
X97737661Y-82375392D01*
X97868191Y-82324763D01*
X97868191Y-83442501D01*
X97874069Y-83502454D01*
X97879317Y-83562438D01*
X97880273Y-83565730D01*
X97880608Y-83569142D01*
X97898011Y-83626784D01*
X97914818Y-83684633D01*
X97916396Y-83687678D01*
X97917387Y-83690959D01*
X97945661Y-83744134D01*
X97973378Y-83797606D01*
X97975516Y-83800285D01*
X97977126Y-83803312D01*
X97994175Y-83824217D01*
X97994083Y-83830840D01*
X98014579Y-83942511D01*
X96437540Y-82365472D01*
X96437540Y-81416400D01*
X96427403Y-81313482D01*
X96397383Y-81214519D01*
X96348633Y-81123314D01*
X96283027Y-81043373D01*
X96203086Y-80977767D01*
X96111881Y-80929017D01*
X96012918Y-80898997D01*
X95910000Y-80888860D01*
X93035000Y-80888860D01*
X93035000Y-78358560D01*
X93088213Y-78460346D01*
X93258027Y-78671553D01*
X93465631Y-78845753D01*
X93703116Y-78976311D01*
X93961438Y-79058256D01*
X94230756Y-79088465D01*
X94250144Y-79088600D01*
X94569856Y-79088600D01*
X94839570Y-79062154D01*
X95099010Y-78983825D01*
X95338296Y-78856594D01*
X95548311Y-78685310D01*
X95721058Y-78476495D01*
X95788372Y-78352000D01*
X95879932Y-78352000D01*
X96858000Y-79330067D01*
M02*
