M48
;DRILL file {KiCad (2016-11-06 revision 9ab7cfe)-master} date Tue Jan 10 10:27:02 2017
;FORMAT={3:3/ absolute / metric / suppress leading zeros}
FMAT,2
METRIC,TZ
T1C0.300
T2C0.500
T3C1.000
T4C1.016
%
G90
G05
M71
T1
X93710Y-79960
X94310Y-81960
X94410Y-87360
X95715Y-86001
X97022Y-91065
X97048Y-91877
X97510Y-81560
X97670Y-93160
X97810Y-75060
X97810Y-92359
X97992Y-88760
X98210Y-87860
X98838Y-83760
X99038Y-89801
X99210Y-79960
X99236Y-88722
X99310Y-103160
X99900Y-89880
X100310Y-80260
X100672Y-83551
X101310Y-89560
X101709Y-75723
X101710Y-86460
X101910Y-101060
X102210Y-76660
X102610Y-102960
X103410Y-84960
X103410Y-89960
X104210Y-81060
X104210Y-93160
X104308Y-94838
X104310Y-73810
X104410Y-85888
X104610Y-102960
X104710Y-97160
X104810Y-99360
X105160Y-78560
X105710Y-102960
X105710Y-106660
X106010Y-81760
X106332Y-97460
X106510Y-90260
X107410Y-86160
X107920Y-75370
X107995Y-103175
X108010Y-76460
X108810Y-81660
X109410Y-91560
X110410Y-102560
X110464Y-104914
X111410Y-84760
X111810Y-87560
X112512Y-105106
X114210Y-86960
X114210Y-91160
X114635Y-104482
X114810Y-95785
T2
X109210Y-79560
X114410Y-70460
X116796Y-73360
X117310Y-102660
T3
X93980Y-55480
X93980Y-58020
X93980Y-60560
X94410Y-100840
X94410Y-103380
X94410Y-105920
X96520Y-55480
X96520Y-58020
X96520Y-60560
X99060Y-55480
X99060Y-58020
X99060Y-60560
X101600Y-55480
X101600Y-58020
X101600Y-60560
X104140Y-55480
X104140Y-58020
X104140Y-60560
X109220Y-55480
X109220Y-58020
X109220Y-60560
X111760Y-55480
X111760Y-58020
X111760Y-60560
X114300Y-55480
X114300Y-58020
X114300Y-60560
X116840Y-55480
X116840Y-58020
X116840Y-60560
T4
X94410Y-72620
X94410Y-75160
X94410Y-77700
X94410Y-93220
X94410Y-95760
X94410Y-98300
T0
M30
