G04 #@! TF.FileFunction,Soldermask,Top*
%FSLAX46Y46*%
G04 Gerber Fmt 4.6, Leading zero omitted, Abs format (unit mm)*
G04 Created by KiCad (PCBNEW (2016-11-06 revision 9ab7cfe)-master) date Tue Jan 10 10:26:56 2017*
%MOMM*%
%LPD*%
G01*
G04 APERTURE LIST*
%ADD10C,0.100000*%
%ADD11C,0.625000*%
G04 APERTURE END LIST*
D10*
D11*
X99207619Y-71490952D02*
X100517142Y-69824285D01*
X99207619Y-69824285D02*
X100517142Y-71490952D01*
X101826666Y-71490952D02*
X101588571Y-71371904D01*
X101469523Y-71133809D01*
X101469523Y-68990952D01*
X102540952Y-69824285D02*
X103136190Y-71490952D01*
X103731428Y-69824285D02*
X103136190Y-71490952D01*
X102898095Y-72086190D01*
X102779047Y-72205238D01*
X102540952Y-72324285D01*
X106112380Y-71490952D02*
X105279047Y-70300476D01*
X104683809Y-71490952D02*
X104683809Y-68990952D01*
X105636190Y-68990952D01*
X105874285Y-69110000D01*
X105993333Y-69229047D01*
X106112380Y-69467142D01*
X106112380Y-69824285D01*
X105993333Y-70062380D01*
X105874285Y-70181428D01*
X105636190Y-70300476D01*
X104683809Y-70300476D01*
X106945714Y-68990952D02*
X108612380Y-71490952D01*
X108612380Y-68990952D02*
X106945714Y-71490952D01*
D10*
G36*
X95155332Y-104962388D02*
X95174091Y-104968079D01*
X95193600Y-104970000D01*
X95360000Y-104970000D01*
X95360000Y-106870000D01*
X95193600Y-106870000D01*
X95174091Y-106871921D01*
X95155332Y-106877612D01*
X95138043Y-106886853D01*
X95122889Y-106899289D01*
X95110453Y-106914443D01*
X95101212Y-106931732D01*
X95095521Y-106950491D01*
X95093600Y-106970000D01*
X95093600Y-107160000D01*
X93166400Y-107160000D01*
X93166400Y-104960000D01*
X95150864Y-104960000D01*
X95155332Y-104962388D01*
X95155332Y-104962388D01*
G37*
G36*
X97633600Y-107160000D02*
X95706400Y-107160000D01*
X95706400Y-103960000D01*
X97633600Y-103960000D01*
X97633600Y-107160000D01*
X97633600Y-107160000D01*
G37*
G36*
X100173600Y-107160000D02*
X98246400Y-107160000D01*
X98246400Y-103960000D01*
X100173600Y-103960000D01*
X100173600Y-107160000D01*
X100173600Y-107160000D01*
G37*
G36*
X94423805Y-102430064D02*
X94423810Y-102430065D01*
X94427861Y-102430093D01*
X94612113Y-102450760D01*
X94788842Y-102506821D01*
X94951316Y-102596142D01*
X95093346Y-102715320D01*
X95209523Y-102859815D01*
X95295422Y-103024124D01*
X95347770Y-103201988D01*
X95347776Y-103202049D01*
X95347784Y-103202078D01*
X95364578Y-103386627D01*
X95345208Y-103570926D01*
X95345201Y-103570949D01*
X95345193Y-103571024D01*
X95290367Y-103748140D01*
X95202183Y-103911233D01*
X95083999Y-104054092D01*
X94940319Y-104171275D01*
X94776614Y-104258319D01*
X94599120Y-104311907D01*
X94414597Y-104330000D01*
X94405328Y-104330000D01*
X94396195Y-104329936D01*
X94396190Y-104329935D01*
X94392139Y-104329907D01*
X94207887Y-104309240D01*
X94031158Y-104253179D01*
X93868684Y-104163858D01*
X93726654Y-104044680D01*
X93610477Y-103900185D01*
X93524578Y-103735876D01*
X93472230Y-103558012D01*
X93472224Y-103557951D01*
X93472216Y-103557922D01*
X93455422Y-103373373D01*
X93474792Y-103189074D01*
X93474799Y-103189051D01*
X93474807Y-103188976D01*
X93529633Y-103011860D01*
X93617817Y-102848767D01*
X93736001Y-102705908D01*
X93879681Y-102588725D01*
X94043386Y-102501681D01*
X94220880Y-102448093D01*
X94405403Y-102430000D01*
X94414672Y-102430000D01*
X94423805Y-102430064D01*
X94423805Y-102430064D01*
G37*
G36*
X115910000Y-103285000D02*
X113710000Y-103285000D01*
X113710000Y-100585000D01*
X115910000Y-100585000D01*
X115910000Y-103285000D01*
X115910000Y-103285000D01*
G37*
G36*
X97960000Y-102760000D02*
X96460000Y-102760000D01*
X96460000Y-101860000D01*
X97960000Y-101860000D01*
X97960000Y-102760000D01*
X97960000Y-102760000D01*
G37*
G36*
X107710000Y-102310000D02*
X106810000Y-102310000D01*
X106810000Y-100810000D01*
X107710000Y-100810000D01*
X107710000Y-102310000D01*
X107710000Y-102310000D01*
G37*
G36*
X109610000Y-102310000D02*
X108710000Y-102310000D01*
X108710000Y-100810000D01*
X109610000Y-100810000D01*
X109610000Y-102310000D01*
X109610000Y-102310000D01*
G37*
G36*
X94423805Y-99890064D02*
X94423810Y-99890065D01*
X94427861Y-99890093D01*
X94612113Y-99910760D01*
X94788842Y-99966821D01*
X94951316Y-100056142D01*
X95093346Y-100175320D01*
X95209523Y-100319815D01*
X95295422Y-100484124D01*
X95347770Y-100661988D01*
X95347776Y-100662049D01*
X95347784Y-100662078D01*
X95364578Y-100846627D01*
X95345208Y-101030926D01*
X95345201Y-101030949D01*
X95345193Y-101031024D01*
X95290367Y-101208140D01*
X95202183Y-101371233D01*
X95083999Y-101514092D01*
X94940319Y-101631275D01*
X94776614Y-101718319D01*
X94599120Y-101771907D01*
X94414597Y-101790000D01*
X94405328Y-101790000D01*
X94396195Y-101789936D01*
X94396190Y-101789935D01*
X94392139Y-101789907D01*
X94207887Y-101769240D01*
X94031158Y-101713179D01*
X93868684Y-101623858D01*
X93726654Y-101504680D01*
X93610477Y-101360185D01*
X93524578Y-101195876D01*
X93472230Y-101018012D01*
X93472224Y-101017951D01*
X93472216Y-101017922D01*
X93455422Y-100833373D01*
X93474792Y-100649074D01*
X93474799Y-100649051D01*
X93474807Y-100648976D01*
X93529633Y-100471860D01*
X93617817Y-100308767D01*
X93736001Y-100165908D01*
X93879681Y-100048725D01*
X94043386Y-99961681D01*
X94220880Y-99908093D01*
X94405403Y-99890000D01*
X94414672Y-99890000D01*
X94423805Y-99890064D01*
X94423805Y-99890064D01*
G37*
G36*
X97960000Y-100860000D02*
X96460000Y-100860000D01*
X96460000Y-99960000D01*
X97960000Y-99960000D01*
X97960000Y-100860000D01*
X97960000Y-100860000D01*
G37*
G36*
X107660420Y-100259440D02*
X106261540Y-100259440D01*
X106261540Y-98860560D01*
X107660420Y-98860560D01*
X107660420Y-100259440D01*
X107660420Y-100259440D01*
G37*
G36*
X109758460Y-100259440D02*
X108359580Y-100259440D01*
X108359580Y-98860560D01*
X109758460Y-98860560D01*
X109758460Y-100259440D01*
X109758460Y-100259440D01*
G37*
G36*
X105010000Y-100110000D02*
X104110000Y-100110000D01*
X104110000Y-98610000D01*
X105010000Y-98610000D01*
X105010000Y-100110000D01*
X105010000Y-100110000D01*
G37*
G36*
X103110000Y-100110000D02*
X102210000Y-100110000D01*
X102210000Y-98610000D01*
X103110000Y-98610000D01*
X103110000Y-100110000D01*
X103110000Y-100110000D01*
G37*
G36*
X94577196Y-97336465D02*
X94577202Y-97336466D01*
X94581254Y-97336494D01*
X94768144Y-97357457D01*
X94947402Y-97414321D01*
X95112202Y-97504921D01*
X95256266Y-97625804D01*
X95374106Y-97772368D01*
X95461234Y-97939029D01*
X95514332Y-98119439D01*
X95514338Y-98119500D01*
X95514346Y-98119529D01*
X95531381Y-98306722D01*
X95511733Y-98493662D01*
X95511727Y-98493681D01*
X95511719Y-98493759D01*
X95456107Y-98673410D01*
X95366661Y-98838838D01*
X95246786Y-98983742D01*
X95101048Y-99102603D01*
X94934999Y-99190893D01*
X94754964Y-99245248D01*
X94567800Y-99263600D01*
X94252130Y-99263600D01*
X94242804Y-99263535D01*
X94242798Y-99263534D01*
X94238746Y-99263506D01*
X94051856Y-99242543D01*
X93872598Y-99185679D01*
X93707798Y-99095079D01*
X93563734Y-98974196D01*
X93445894Y-98827632D01*
X93358766Y-98660971D01*
X93305668Y-98480561D01*
X93305662Y-98480500D01*
X93305654Y-98480471D01*
X93288619Y-98293278D01*
X93308267Y-98106338D01*
X93308273Y-98106319D01*
X93308281Y-98106241D01*
X93363893Y-97926590D01*
X93453339Y-97761162D01*
X93573214Y-97616258D01*
X93718952Y-97497397D01*
X93885001Y-97409107D01*
X94065036Y-97354752D01*
X94252200Y-97336400D01*
X94567870Y-97336400D01*
X94577196Y-97336465D01*
X94577196Y-97336465D01*
G37*
G36*
X97960000Y-98760000D02*
X96460000Y-98760000D01*
X96460000Y-97860000D01*
X97960000Y-97860000D01*
X97960000Y-98760000D01*
X97960000Y-98760000D01*
G37*
G36*
X109410000Y-98310000D02*
X108510000Y-98310000D01*
X108510000Y-96810000D01*
X109410000Y-96810000D01*
X109410000Y-98310000D01*
X109410000Y-98310000D01*
G37*
G36*
X107510000Y-98310000D02*
X106610000Y-98310000D01*
X106610000Y-96810000D01*
X107510000Y-96810000D01*
X107510000Y-98310000D01*
X107510000Y-98310000D01*
G37*
G36*
X105310000Y-97885000D02*
X104110000Y-97885000D01*
X104110000Y-96435000D01*
X105310000Y-96435000D01*
X105310000Y-97885000D01*
X105310000Y-97885000D01*
G37*
G36*
X103310000Y-97885000D02*
X102110000Y-97885000D01*
X102110000Y-96435000D01*
X103310000Y-96435000D01*
X103310000Y-97885000D01*
X103310000Y-97885000D01*
G37*
G36*
X115910000Y-97135000D02*
X113710000Y-97135000D01*
X113710000Y-94435000D01*
X115910000Y-94435000D01*
X115910000Y-97135000D01*
X115910000Y-97135000D01*
G37*
G36*
X97960000Y-96860000D02*
X96460000Y-96860000D01*
X96460000Y-95960000D01*
X97960000Y-95960000D01*
X97960000Y-96860000D01*
X97960000Y-96860000D01*
G37*
G36*
X94577196Y-94796465D02*
X94577202Y-94796466D01*
X94581254Y-94796494D01*
X94768144Y-94817457D01*
X94947402Y-94874321D01*
X95112202Y-94964921D01*
X95256266Y-95085804D01*
X95374106Y-95232368D01*
X95461234Y-95399029D01*
X95514332Y-95579439D01*
X95514338Y-95579500D01*
X95514346Y-95579529D01*
X95531381Y-95766722D01*
X95511733Y-95953662D01*
X95511727Y-95953681D01*
X95511719Y-95953759D01*
X95456107Y-96133410D01*
X95366661Y-96298838D01*
X95246786Y-96443742D01*
X95101048Y-96562603D01*
X94934999Y-96650893D01*
X94754964Y-96705248D01*
X94567800Y-96723600D01*
X94252130Y-96723600D01*
X94242804Y-96723535D01*
X94242798Y-96723534D01*
X94238746Y-96723506D01*
X94051856Y-96702543D01*
X93872598Y-96645679D01*
X93707798Y-96555079D01*
X93563734Y-96434196D01*
X93445894Y-96287632D01*
X93358766Y-96120971D01*
X93305668Y-95940561D01*
X93305662Y-95940500D01*
X93305654Y-95940471D01*
X93288619Y-95753278D01*
X93308267Y-95566338D01*
X93308273Y-95566319D01*
X93308281Y-95566241D01*
X93363893Y-95386590D01*
X93453339Y-95221162D01*
X93573214Y-95076258D01*
X93718952Y-94957397D01*
X93885001Y-94869107D01*
X94065036Y-94814752D01*
X94252200Y-94796400D01*
X94567870Y-94796400D01*
X94577196Y-94796465D01*
X94577196Y-94796465D01*
G37*
G36*
X107660420Y-96259440D02*
X106261540Y-96259440D01*
X106261540Y-94860560D01*
X107660420Y-94860560D01*
X107660420Y-96259440D01*
X107660420Y-96259440D01*
G37*
G36*
X109758460Y-96259440D02*
X108359580Y-96259440D01*
X108359580Y-94860560D01*
X109758460Y-94860560D01*
X109758460Y-96259440D01*
X109758460Y-96259440D01*
G37*
G36*
X95526000Y-94183600D02*
X93294000Y-94183600D01*
X93294000Y-92256400D01*
X95526000Y-92256400D01*
X95526000Y-94183600D01*
X95526000Y-94183600D01*
G37*
G36*
X106810000Y-93885000D02*
X105610000Y-93885000D01*
X105610000Y-92435000D01*
X106810000Y-92435000D01*
X106810000Y-93885000D01*
X106810000Y-93885000D01*
G37*
G36*
X104810000Y-93885000D02*
X103610000Y-93885000D01*
X103610000Y-92435000D01*
X104810000Y-92435000D01*
X104810000Y-93885000D01*
X104810000Y-93885000D01*
G37*
G36*
X114935000Y-93760000D02*
X113485000Y-93760000D01*
X113485000Y-92560000D01*
X114935000Y-92560000D01*
X114935000Y-93760000D01*
X114935000Y-93760000D01*
G37*
G36*
X110160000Y-92660000D02*
X108660000Y-92660000D01*
X108660000Y-90460000D01*
X110160000Y-90460000D01*
X110160000Y-92660000D01*
X110160000Y-92660000D01*
G37*
G36*
X112560000Y-92660000D02*
X111060000Y-92660000D01*
X111060000Y-90460000D01*
X112560000Y-90460000D01*
X112560000Y-92660000D01*
X112560000Y-92660000D01*
G37*
G36*
X104185000Y-91860000D02*
X98235000Y-91860000D01*
X98235000Y-90360000D01*
X104185000Y-90360000D01*
X104185000Y-91860000D01*
X104185000Y-91860000D01*
G37*
G36*
X114935000Y-91760000D02*
X113485000Y-91760000D01*
X113485000Y-90560000D01*
X114935000Y-90560000D01*
X114935000Y-91760000D01*
X114935000Y-91760000D01*
G37*
G36*
X95135000Y-90760000D02*
X93685000Y-90760000D01*
X93685000Y-89560000D01*
X95135000Y-89560000D01*
X95135000Y-90760000D01*
X95135000Y-90760000D01*
G37*
G36*
X114935000Y-89760000D02*
X113485000Y-89760000D01*
X113485000Y-88560000D01*
X114935000Y-88560000D01*
X114935000Y-89760000D01*
X114935000Y-89760000D01*
G37*
G36*
X106310000Y-89735000D02*
X104810000Y-89735000D01*
X104810000Y-83785000D01*
X106310000Y-83785000D01*
X106310000Y-89735000D01*
X106310000Y-89735000D01*
G37*
G36*
X97610000Y-89735000D02*
X96110000Y-89735000D01*
X96110000Y-83785000D01*
X97610000Y-83785000D01*
X97610000Y-89735000D01*
X97610000Y-89735000D01*
G37*
G36*
X95135000Y-88760000D02*
X93685000Y-88760000D01*
X93685000Y-87560000D01*
X95135000Y-87560000D01*
X95135000Y-88760000D01*
X95135000Y-88760000D01*
G37*
G36*
X112560000Y-88660000D02*
X111060000Y-88660000D01*
X111060000Y-86460000D01*
X112560000Y-86460000D01*
X112560000Y-88660000D01*
X112560000Y-88660000D01*
G37*
G36*
X110160000Y-88660000D02*
X108660000Y-88660000D01*
X108660000Y-86460000D01*
X110160000Y-86460000D01*
X110160000Y-88660000D01*
X110160000Y-88660000D01*
G37*
G36*
X114935000Y-87760000D02*
X113485000Y-87760000D01*
X113485000Y-86560000D01*
X114935000Y-86560000D01*
X114935000Y-87760000D01*
X114935000Y-87760000D01*
G37*
G36*
X110010000Y-85485000D02*
X108810000Y-85485000D01*
X108810000Y-84035000D01*
X110010000Y-84035000D01*
X110010000Y-85485000D01*
X110010000Y-85485000D01*
G37*
G36*
X112010000Y-85485000D02*
X110810000Y-85485000D01*
X110810000Y-84035000D01*
X112010000Y-84035000D01*
X112010000Y-85485000D01*
X112010000Y-85485000D01*
G37*
G36*
X95160000Y-85160000D02*
X93660000Y-85160000D01*
X93660000Y-84260000D01*
X95160000Y-84260000D01*
X95160000Y-85160000D01*
X95160000Y-85160000D01*
G37*
G36*
X95160000Y-83260000D02*
X93660000Y-83260000D01*
X93660000Y-82360000D01*
X95160000Y-82360000D01*
X95160000Y-83260000D01*
X95160000Y-83260000D01*
G37*
G36*
X104185000Y-83160000D02*
X98235000Y-83160000D01*
X98235000Y-81660000D01*
X104185000Y-81660000D01*
X104185000Y-83160000D01*
X104185000Y-83160000D01*
G37*
G36*
X117658000Y-82858000D02*
X111362000Y-82858000D01*
X111362000Y-76562000D01*
X117658000Y-76562000D01*
X117658000Y-82858000D01*
X117658000Y-82858000D01*
G37*
G36*
X109935000Y-82160000D02*
X108485000Y-82160000D01*
X108485000Y-80960000D01*
X109935000Y-80960000D01*
X109935000Y-82160000D01*
X109935000Y-82160000D01*
G37*
G36*
X99810000Y-80685000D02*
X98610000Y-80685000D01*
X98610000Y-79235000D01*
X99810000Y-79235000D01*
X99810000Y-80685000D01*
X99810000Y-80685000D01*
G37*
G36*
X97810000Y-80685000D02*
X96610000Y-80685000D01*
X96610000Y-79235000D01*
X97810000Y-79235000D01*
X97810000Y-80685000D01*
X97810000Y-80685000D01*
G37*
G36*
X105610000Y-80310000D02*
X104710000Y-80310000D01*
X104710000Y-78810000D01*
X105610000Y-78810000D01*
X105610000Y-80310000D01*
X105610000Y-80310000D01*
G37*
G36*
X103710000Y-80310000D02*
X102810000Y-80310000D01*
X102810000Y-78810000D01*
X103710000Y-78810000D01*
X103710000Y-80310000D01*
X103710000Y-80310000D01*
G37*
G36*
X109935000Y-80160000D02*
X108485000Y-80160000D01*
X108485000Y-78960000D01*
X109935000Y-78960000D01*
X109935000Y-80160000D01*
X109935000Y-80160000D01*
G37*
G36*
X94577196Y-76736465D02*
X94577202Y-76736466D01*
X94581254Y-76736494D01*
X94768144Y-76757457D01*
X94947402Y-76814321D01*
X95112202Y-76904921D01*
X95256266Y-77025804D01*
X95374106Y-77172368D01*
X95461234Y-77339029D01*
X95514332Y-77519439D01*
X95514338Y-77519500D01*
X95514346Y-77519529D01*
X95531381Y-77706722D01*
X95511733Y-77893662D01*
X95511727Y-77893681D01*
X95511719Y-77893759D01*
X95456107Y-78073410D01*
X95366661Y-78238838D01*
X95246786Y-78383742D01*
X95101048Y-78502603D01*
X94934999Y-78590893D01*
X94754964Y-78645248D01*
X94567800Y-78663600D01*
X94252130Y-78663600D01*
X94242804Y-78663535D01*
X94242798Y-78663534D01*
X94238746Y-78663506D01*
X94051856Y-78642543D01*
X93872598Y-78585679D01*
X93707798Y-78495079D01*
X93563734Y-78374196D01*
X93445894Y-78227632D01*
X93358766Y-78060971D01*
X93305668Y-77880561D01*
X93305662Y-77880500D01*
X93305654Y-77880471D01*
X93288619Y-77693278D01*
X93308267Y-77506338D01*
X93308273Y-77506319D01*
X93308281Y-77506241D01*
X93363893Y-77326590D01*
X93453339Y-77161162D01*
X93573214Y-77016258D01*
X93718952Y-76897397D01*
X93885001Y-76809107D01*
X94065036Y-76754752D01*
X94252200Y-76736400D01*
X94567870Y-76736400D01*
X94577196Y-76736465D01*
X94577196Y-76736465D01*
G37*
G36*
X99810000Y-78485000D02*
X98610000Y-78485000D01*
X98610000Y-77035000D01*
X99810000Y-77035000D01*
X99810000Y-78485000D01*
X99810000Y-78485000D01*
G37*
G36*
X97810000Y-78485000D02*
X96610000Y-78485000D01*
X96610000Y-77035000D01*
X97810000Y-77035000D01*
X97810000Y-78485000D01*
X97810000Y-78485000D01*
G37*
G36*
X104010000Y-78085000D02*
X102810000Y-78085000D01*
X102810000Y-76635000D01*
X104010000Y-76635000D01*
X104010000Y-78085000D01*
X104010000Y-78085000D01*
G37*
G36*
X106010000Y-78085000D02*
X104810000Y-78085000D01*
X104810000Y-76635000D01*
X106010000Y-76635000D01*
X106010000Y-78085000D01*
X106010000Y-78085000D01*
G37*
G36*
X103960000Y-76160000D02*
X102460000Y-76160000D01*
X102460000Y-75260000D01*
X103960000Y-75260000D01*
X103960000Y-76160000D01*
X103960000Y-76160000D01*
G37*
G36*
X106035000Y-76160000D02*
X104585000Y-76160000D01*
X104585000Y-74960000D01*
X106035000Y-74960000D01*
X106035000Y-76160000D01*
X106035000Y-76160000D01*
G37*
G36*
X94577196Y-74196465D02*
X94577202Y-74196466D01*
X94581254Y-74196494D01*
X94768144Y-74217457D01*
X94947402Y-74274321D01*
X95112202Y-74364921D01*
X95256266Y-74485804D01*
X95374106Y-74632368D01*
X95461234Y-74799029D01*
X95514332Y-74979439D01*
X95514338Y-74979500D01*
X95514346Y-74979529D01*
X95531381Y-75166722D01*
X95511733Y-75353662D01*
X95511727Y-75353681D01*
X95511719Y-75353759D01*
X95456107Y-75533410D01*
X95366661Y-75698838D01*
X95246786Y-75843742D01*
X95101048Y-75962603D01*
X94934999Y-76050893D01*
X94754964Y-76105248D01*
X94567800Y-76123600D01*
X94252130Y-76123600D01*
X94242804Y-76123535D01*
X94242798Y-76123534D01*
X94238746Y-76123506D01*
X94051856Y-76102543D01*
X93872598Y-76045679D01*
X93707798Y-75955079D01*
X93563734Y-75834196D01*
X93445894Y-75687632D01*
X93358766Y-75520971D01*
X93305668Y-75340561D01*
X93305662Y-75340500D01*
X93305654Y-75340471D01*
X93288619Y-75153278D01*
X93308267Y-74966338D01*
X93308273Y-74966319D01*
X93308281Y-74966241D01*
X93363893Y-74786590D01*
X93453339Y-74621162D01*
X93573214Y-74476258D01*
X93718952Y-74357397D01*
X93885001Y-74269107D01*
X94065036Y-74214752D01*
X94252200Y-74196400D01*
X94567870Y-74196400D01*
X94577196Y-74196465D01*
X94577196Y-74196465D01*
G37*
G36*
X113149500Y-74984000D02*
X111298500Y-74984000D01*
X111298500Y-71736000D01*
X113149500Y-71736000D01*
X113149500Y-74984000D01*
X113149500Y-74984000D01*
G37*
G36*
X117721500Y-74984000D02*
X115870500Y-74984000D01*
X115870500Y-71736000D01*
X117721500Y-71736000D01*
X117721500Y-74984000D01*
X117721500Y-74984000D01*
G37*
G36*
X103960000Y-74260000D02*
X102460000Y-74260000D01*
X102460000Y-73360000D01*
X103960000Y-73360000D01*
X103960000Y-74260000D01*
X103960000Y-74260000D01*
G37*
G36*
X106035000Y-74160000D02*
X104585000Y-74160000D01*
X104585000Y-72960000D01*
X106035000Y-72960000D01*
X106035000Y-74160000D01*
X106035000Y-74160000D01*
G37*
G36*
X95526000Y-73583600D02*
X93294000Y-73583600D01*
X93294000Y-71656400D01*
X95526000Y-71656400D01*
X95526000Y-73583600D01*
X95526000Y-73583600D01*
G37*
G36*
X115135000Y-73060000D02*
X113685000Y-73060000D01*
X113685000Y-71860000D01*
X115135000Y-71860000D01*
X115135000Y-73060000D01*
X115135000Y-73060000D01*
G37*
G36*
X115135000Y-71060000D02*
X113685000Y-71060000D01*
X113685000Y-69860000D01*
X115135000Y-69860000D01*
X115135000Y-71060000D01*
X115135000Y-71060000D01*
G37*
G36*
X102563600Y-68148000D02*
X100636400Y-68148000D01*
X100636400Y-64948000D01*
X102563600Y-64948000D01*
X102563600Y-68148000D01*
X102563600Y-68148000D01*
G37*
G36*
X100023600Y-68148000D02*
X98096400Y-68148000D01*
X98096400Y-64948000D01*
X100023600Y-64948000D01*
X100023600Y-68148000D01*
X100023600Y-68148000D01*
G37*
G36*
X97483600Y-68148000D02*
X95556400Y-68148000D01*
X95556400Y-64948000D01*
X97483600Y-64948000D01*
X97483600Y-68148000D01*
X97483600Y-68148000D01*
G37*
G36*
X110183600Y-68148000D02*
X108256400Y-68148000D01*
X108256400Y-64948000D01*
X110183600Y-64948000D01*
X110183600Y-68148000D01*
X110183600Y-68148000D01*
G37*
G36*
X112723600Y-68148000D02*
X110796400Y-68148000D01*
X110796400Y-64948000D01*
X112723600Y-64948000D01*
X112723600Y-68148000D01*
X112723600Y-68148000D01*
G37*
G36*
X94943600Y-68148000D02*
X93016400Y-68148000D01*
X93016400Y-64948000D01*
X94943600Y-64948000D01*
X94943600Y-68148000D01*
X94943600Y-68148000D01*
G37*
G36*
X115263600Y-68148000D02*
X113336400Y-68148000D01*
X113336400Y-64948000D01*
X115263600Y-64948000D01*
X115263600Y-68148000D01*
X115263600Y-68148000D01*
G37*
G36*
X117803600Y-68148000D02*
X115876400Y-68148000D01*
X115876400Y-64948000D01*
X117803600Y-64948000D01*
X117803600Y-68148000D01*
X117803600Y-68148000D01*
G37*
G36*
X105103600Y-68148000D02*
X103176400Y-68148000D01*
X103176400Y-64948000D01*
X105103600Y-64948000D01*
X105103600Y-68148000D01*
X105103600Y-68148000D01*
G37*
G36*
X116853805Y-59610064D02*
X116853810Y-59610065D01*
X116857861Y-59610093D01*
X117042113Y-59630760D01*
X117218842Y-59686821D01*
X117381316Y-59776142D01*
X117523346Y-59895320D01*
X117639523Y-60039815D01*
X117725422Y-60204124D01*
X117777770Y-60381988D01*
X117777776Y-60382049D01*
X117777784Y-60382078D01*
X117794578Y-60566627D01*
X117775208Y-60750926D01*
X117775201Y-60750949D01*
X117775193Y-60751024D01*
X117720367Y-60928140D01*
X117632183Y-61091233D01*
X117513999Y-61234092D01*
X117370319Y-61351275D01*
X117206614Y-61438319D01*
X117029120Y-61491907D01*
X116844597Y-61510000D01*
X116835328Y-61510000D01*
X116826195Y-61509936D01*
X116826190Y-61509935D01*
X116822139Y-61509907D01*
X116637887Y-61489240D01*
X116461158Y-61433179D01*
X116298684Y-61343858D01*
X116156654Y-61224680D01*
X116040477Y-61080185D01*
X115954578Y-60915876D01*
X115902230Y-60738012D01*
X115902224Y-60737951D01*
X115902216Y-60737922D01*
X115885422Y-60553373D01*
X115904792Y-60369074D01*
X115904799Y-60369051D01*
X115904807Y-60368976D01*
X115959633Y-60191860D01*
X116047817Y-60028767D01*
X116166001Y-59885908D01*
X116309681Y-59768725D01*
X116473386Y-59681681D01*
X116650880Y-59628093D01*
X116835403Y-59610000D01*
X116844672Y-59610000D01*
X116853805Y-59610064D01*
X116853805Y-59610064D01*
G37*
G36*
X96533805Y-59610064D02*
X96533810Y-59610065D01*
X96537861Y-59610093D01*
X96722113Y-59630760D01*
X96898842Y-59686821D01*
X97061316Y-59776142D01*
X97203346Y-59895320D01*
X97319523Y-60039815D01*
X97405422Y-60204124D01*
X97457770Y-60381988D01*
X97457776Y-60382049D01*
X97457784Y-60382078D01*
X97474578Y-60566627D01*
X97455208Y-60750926D01*
X97455201Y-60750949D01*
X97455193Y-60751024D01*
X97400367Y-60928140D01*
X97312183Y-61091233D01*
X97193999Y-61234092D01*
X97050319Y-61351275D01*
X96886614Y-61438319D01*
X96709120Y-61491907D01*
X96524597Y-61510000D01*
X96515328Y-61510000D01*
X96506195Y-61509936D01*
X96506190Y-61509935D01*
X96502139Y-61509907D01*
X96317887Y-61489240D01*
X96141158Y-61433179D01*
X95978684Y-61343858D01*
X95836654Y-61224680D01*
X95720477Y-61080185D01*
X95634578Y-60915876D01*
X95582230Y-60738012D01*
X95582224Y-60737951D01*
X95582216Y-60737922D01*
X95565422Y-60553373D01*
X95584792Y-60369074D01*
X95584799Y-60369051D01*
X95584807Y-60368976D01*
X95639633Y-60191860D01*
X95727817Y-60028767D01*
X95846001Y-59885908D01*
X95989681Y-59768725D01*
X96153386Y-59681681D01*
X96330880Y-59628093D01*
X96515403Y-59610000D01*
X96524672Y-59610000D01*
X96533805Y-59610064D01*
X96533805Y-59610064D01*
G37*
G36*
X114313805Y-59610064D02*
X114313810Y-59610065D01*
X114317861Y-59610093D01*
X114502113Y-59630760D01*
X114678842Y-59686821D01*
X114841316Y-59776142D01*
X114983346Y-59895320D01*
X115099523Y-60039815D01*
X115185422Y-60204124D01*
X115237770Y-60381988D01*
X115237776Y-60382049D01*
X115237784Y-60382078D01*
X115254578Y-60566627D01*
X115235208Y-60750926D01*
X115235201Y-60750949D01*
X115235193Y-60751024D01*
X115180367Y-60928140D01*
X115092183Y-61091233D01*
X114973999Y-61234092D01*
X114830319Y-61351275D01*
X114666614Y-61438319D01*
X114489120Y-61491907D01*
X114304597Y-61510000D01*
X114295328Y-61510000D01*
X114286195Y-61509936D01*
X114286190Y-61509935D01*
X114282139Y-61509907D01*
X114097887Y-61489240D01*
X113921158Y-61433179D01*
X113758684Y-61343858D01*
X113616654Y-61224680D01*
X113500477Y-61080185D01*
X113414578Y-60915876D01*
X113362230Y-60738012D01*
X113362224Y-60737951D01*
X113362216Y-60737922D01*
X113345422Y-60553373D01*
X113364792Y-60369074D01*
X113364799Y-60369051D01*
X113364807Y-60368976D01*
X113419633Y-60191860D01*
X113507817Y-60028767D01*
X113626001Y-59885908D01*
X113769681Y-59768725D01*
X113933386Y-59681681D01*
X114110880Y-59628093D01*
X114295403Y-59610000D01*
X114304672Y-59610000D01*
X114313805Y-59610064D01*
X114313805Y-59610064D01*
G37*
G36*
X111773805Y-59610064D02*
X111773810Y-59610065D01*
X111777861Y-59610093D01*
X111962113Y-59630760D01*
X112138842Y-59686821D01*
X112301316Y-59776142D01*
X112443346Y-59895320D01*
X112559523Y-60039815D01*
X112645422Y-60204124D01*
X112697770Y-60381988D01*
X112697776Y-60382049D01*
X112697784Y-60382078D01*
X112714578Y-60566627D01*
X112695208Y-60750926D01*
X112695201Y-60750949D01*
X112695193Y-60751024D01*
X112640367Y-60928140D01*
X112552183Y-61091233D01*
X112433999Y-61234092D01*
X112290319Y-61351275D01*
X112126614Y-61438319D01*
X111949120Y-61491907D01*
X111764597Y-61510000D01*
X111755328Y-61510000D01*
X111746195Y-61509936D01*
X111746190Y-61509935D01*
X111742139Y-61509907D01*
X111557887Y-61489240D01*
X111381158Y-61433179D01*
X111218684Y-61343858D01*
X111076654Y-61224680D01*
X110960477Y-61080185D01*
X110874578Y-60915876D01*
X110822230Y-60738012D01*
X110822224Y-60737951D01*
X110822216Y-60737922D01*
X110805422Y-60553373D01*
X110824792Y-60369074D01*
X110824799Y-60369051D01*
X110824807Y-60368976D01*
X110879633Y-60191860D01*
X110967817Y-60028767D01*
X111086001Y-59885908D01*
X111229681Y-59768725D01*
X111393386Y-59681681D01*
X111570880Y-59628093D01*
X111755403Y-59610000D01*
X111764672Y-59610000D01*
X111773805Y-59610064D01*
X111773805Y-59610064D01*
G37*
G36*
X109233805Y-59610064D02*
X109233810Y-59610065D01*
X109237861Y-59610093D01*
X109422113Y-59630760D01*
X109598842Y-59686821D01*
X109761316Y-59776142D01*
X109903346Y-59895320D01*
X110019523Y-60039815D01*
X110105422Y-60204124D01*
X110157770Y-60381988D01*
X110157776Y-60382049D01*
X110157784Y-60382078D01*
X110174578Y-60566627D01*
X110155208Y-60750926D01*
X110155201Y-60750949D01*
X110155193Y-60751024D01*
X110100367Y-60928140D01*
X110012183Y-61091233D01*
X109893999Y-61234092D01*
X109750319Y-61351275D01*
X109586614Y-61438319D01*
X109409120Y-61491907D01*
X109224597Y-61510000D01*
X109215328Y-61510000D01*
X109206195Y-61509936D01*
X109206190Y-61509935D01*
X109202139Y-61509907D01*
X109017887Y-61489240D01*
X108841158Y-61433179D01*
X108678684Y-61343858D01*
X108536654Y-61224680D01*
X108420477Y-61080185D01*
X108334578Y-60915876D01*
X108282230Y-60738012D01*
X108282224Y-60737951D01*
X108282216Y-60737922D01*
X108265422Y-60553373D01*
X108284792Y-60369074D01*
X108284799Y-60369051D01*
X108284807Y-60368976D01*
X108339633Y-60191860D01*
X108427817Y-60028767D01*
X108546001Y-59885908D01*
X108689681Y-59768725D01*
X108853386Y-59681681D01*
X109030880Y-59628093D01*
X109215403Y-59610000D01*
X109224672Y-59610000D01*
X109233805Y-59610064D01*
X109233805Y-59610064D01*
G37*
G36*
X101613805Y-59610064D02*
X101613810Y-59610065D01*
X101617861Y-59610093D01*
X101802113Y-59630760D01*
X101978842Y-59686821D01*
X102141316Y-59776142D01*
X102283346Y-59895320D01*
X102399523Y-60039815D01*
X102485422Y-60204124D01*
X102537770Y-60381988D01*
X102537776Y-60382049D01*
X102537784Y-60382078D01*
X102554578Y-60566627D01*
X102535208Y-60750926D01*
X102535201Y-60750949D01*
X102535193Y-60751024D01*
X102480367Y-60928140D01*
X102392183Y-61091233D01*
X102273999Y-61234092D01*
X102130319Y-61351275D01*
X101966614Y-61438319D01*
X101789120Y-61491907D01*
X101604597Y-61510000D01*
X101595328Y-61510000D01*
X101586195Y-61509936D01*
X101586190Y-61509935D01*
X101582139Y-61509907D01*
X101397887Y-61489240D01*
X101221158Y-61433179D01*
X101058684Y-61343858D01*
X100916654Y-61224680D01*
X100800477Y-61080185D01*
X100714578Y-60915876D01*
X100662230Y-60738012D01*
X100662224Y-60737951D01*
X100662216Y-60737922D01*
X100645422Y-60553373D01*
X100664792Y-60369074D01*
X100664799Y-60369051D01*
X100664807Y-60368976D01*
X100719633Y-60191860D01*
X100807817Y-60028767D01*
X100926001Y-59885908D01*
X101069681Y-59768725D01*
X101233386Y-59681681D01*
X101410880Y-59628093D01*
X101595403Y-59610000D01*
X101604672Y-59610000D01*
X101613805Y-59610064D01*
X101613805Y-59610064D01*
G37*
G36*
X99073805Y-59610064D02*
X99073810Y-59610065D01*
X99077861Y-59610093D01*
X99262113Y-59630760D01*
X99438842Y-59686821D01*
X99601316Y-59776142D01*
X99743346Y-59895320D01*
X99859523Y-60039815D01*
X99945422Y-60204124D01*
X99997770Y-60381988D01*
X99997776Y-60382049D01*
X99997784Y-60382078D01*
X100014578Y-60566627D01*
X99995208Y-60750926D01*
X99995201Y-60750949D01*
X99995193Y-60751024D01*
X99940367Y-60928140D01*
X99852183Y-61091233D01*
X99733999Y-61234092D01*
X99590319Y-61351275D01*
X99426614Y-61438319D01*
X99249120Y-61491907D01*
X99064597Y-61510000D01*
X99055328Y-61510000D01*
X99046195Y-61509936D01*
X99046190Y-61509935D01*
X99042139Y-61509907D01*
X98857887Y-61489240D01*
X98681158Y-61433179D01*
X98518684Y-61343858D01*
X98376654Y-61224680D01*
X98260477Y-61080185D01*
X98174578Y-60915876D01*
X98122230Y-60738012D01*
X98122224Y-60737951D01*
X98122216Y-60737922D01*
X98105422Y-60553373D01*
X98124792Y-60369074D01*
X98124799Y-60369051D01*
X98124807Y-60368976D01*
X98179633Y-60191860D01*
X98267817Y-60028767D01*
X98386001Y-59885908D01*
X98529681Y-59768725D01*
X98693386Y-59681681D01*
X98870880Y-59628093D01*
X99055403Y-59610000D01*
X99064672Y-59610000D01*
X99073805Y-59610064D01*
X99073805Y-59610064D01*
G37*
G36*
X93993805Y-59610064D02*
X93993810Y-59610065D01*
X93997861Y-59610093D01*
X94182113Y-59630760D01*
X94358842Y-59686821D01*
X94521316Y-59776142D01*
X94663346Y-59895320D01*
X94779523Y-60039815D01*
X94865422Y-60204124D01*
X94917770Y-60381988D01*
X94917776Y-60382049D01*
X94917784Y-60382078D01*
X94934578Y-60566627D01*
X94915208Y-60750926D01*
X94915201Y-60750949D01*
X94915193Y-60751024D01*
X94860367Y-60928140D01*
X94772183Y-61091233D01*
X94653999Y-61234092D01*
X94510319Y-61351275D01*
X94346614Y-61438319D01*
X94169120Y-61491907D01*
X93984597Y-61510000D01*
X93975328Y-61510000D01*
X93966195Y-61509936D01*
X93966190Y-61509935D01*
X93962139Y-61509907D01*
X93777887Y-61489240D01*
X93601158Y-61433179D01*
X93438684Y-61343858D01*
X93296654Y-61224680D01*
X93180477Y-61080185D01*
X93094578Y-60915876D01*
X93042230Y-60738012D01*
X93042224Y-60737951D01*
X93042216Y-60737922D01*
X93025422Y-60553373D01*
X93044792Y-60369074D01*
X93044799Y-60369051D01*
X93044807Y-60368976D01*
X93099633Y-60191860D01*
X93187817Y-60028767D01*
X93306001Y-59885908D01*
X93449681Y-59768725D01*
X93613386Y-59681681D01*
X93790880Y-59628093D01*
X93975403Y-59610000D01*
X93984672Y-59610000D01*
X93993805Y-59610064D01*
X93993805Y-59610064D01*
G37*
G36*
X105090000Y-61510000D02*
X103190000Y-61510000D01*
X103190000Y-59610000D01*
X105090000Y-59610000D01*
X105090000Y-61510000D01*
X105090000Y-61510000D01*
G37*
G36*
X96533805Y-57070064D02*
X96533810Y-57070065D01*
X96537861Y-57070093D01*
X96722113Y-57090760D01*
X96898842Y-57146821D01*
X97061316Y-57236142D01*
X97203346Y-57355320D01*
X97319523Y-57499815D01*
X97405422Y-57664124D01*
X97457770Y-57841988D01*
X97457776Y-57842049D01*
X97457784Y-57842078D01*
X97474578Y-58026627D01*
X97455208Y-58210926D01*
X97455201Y-58210949D01*
X97455193Y-58211024D01*
X97400367Y-58388140D01*
X97312183Y-58551233D01*
X97193999Y-58694092D01*
X97050319Y-58811275D01*
X96886614Y-58898319D01*
X96709120Y-58951907D01*
X96524597Y-58970000D01*
X96515328Y-58970000D01*
X96506195Y-58969936D01*
X96506190Y-58969935D01*
X96502139Y-58969907D01*
X96317887Y-58949240D01*
X96141158Y-58893179D01*
X95978684Y-58803858D01*
X95836654Y-58684680D01*
X95720477Y-58540185D01*
X95634578Y-58375876D01*
X95582230Y-58198012D01*
X95582224Y-58197951D01*
X95582216Y-58197922D01*
X95565422Y-58013373D01*
X95584792Y-57829074D01*
X95584799Y-57829051D01*
X95584807Y-57828976D01*
X95639633Y-57651860D01*
X95727817Y-57488767D01*
X95846001Y-57345908D01*
X95989681Y-57228725D01*
X96153386Y-57141681D01*
X96330880Y-57088093D01*
X96515403Y-57070000D01*
X96524672Y-57070000D01*
X96533805Y-57070064D01*
X96533805Y-57070064D01*
G37*
G36*
X93993805Y-57070064D02*
X93993810Y-57070065D01*
X93997861Y-57070093D01*
X94182113Y-57090760D01*
X94358842Y-57146821D01*
X94521316Y-57236142D01*
X94663346Y-57355320D01*
X94779523Y-57499815D01*
X94865422Y-57664124D01*
X94917770Y-57841988D01*
X94917776Y-57842049D01*
X94917784Y-57842078D01*
X94934578Y-58026627D01*
X94915208Y-58210926D01*
X94915201Y-58210949D01*
X94915193Y-58211024D01*
X94860367Y-58388140D01*
X94772183Y-58551233D01*
X94653999Y-58694092D01*
X94510319Y-58811275D01*
X94346614Y-58898319D01*
X94169120Y-58951907D01*
X93984597Y-58970000D01*
X93975328Y-58970000D01*
X93966195Y-58969936D01*
X93966190Y-58969935D01*
X93962139Y-58969907D01*
X93777887Y-58949240D01*
X93601158Y-58893179D01*
X93438684Y-58803858D01*
X93296654Y-58684680D01*
X93180477Y-58540185D01*
X93094578Y-58375876D01*
X93042230Y-58198012D01*
X93042224Y-58197951D01*
X93042216Y-58197922D01*
X93025422Y-58013373D01*
X93044792Y-57829074D01*
X93044799Y-57829051D01*
X93044807Y-57828976D01*
X93099633Y-57651860D01*
X93187817Y-57488767D01*
X93306001Y-57345908D01*
X93449681Y-57228725D01*
X93613386Y-57141681D01*
X93790880Y-57088093D01*
X93975403Y-57070000D01*
X93984672Y-57070000D01*
X93993805Y-57070064D01*
X93993805Y-57070064D01*
G37*
G36*
X116853805Y-57070064D02*
X116853810Y-57070065D01*
X116857861Y-57070093D01*
X117042113Y-57090760D01*
X117218842Y-57146821D01*
X117381316Y-57236142D01*
X117523346Y-57355320D01*
X117639523Y-57499815D01*
X117725422Y-57664124D01*
X117777770Y-57841988D01*
X117777776Y-57842049D01*
X117777784Y-57842078D01*
X117794578Y-58026627D01*
X117775208Y-58210926D01*
X117775201Y-58210949D01*
X117775193Y-58211024D01*
X117720367Y-58388140D01*
X117632183Y-58551233D01*
X117513999Y-58694092D01*
X117370319Y-58811275D01*
X117206614Y-58898319D01*
X117029120Y-58951907D01*
X116844597Y-58970000D01*
X116835328Y-58970000D01*
X116826195Y-58969936D01*
X116826190Y-58969935D01*
X116822139Y-58969907D01*
X116637887Y-58949240D01*
X116461158Y-58893179D01*
X116298684Y-58803858D01*
X116156654Y-58684680D01*
X116040477Y-58540185D01*
X115954578Y-58375876D01*
X115902230Y-58198012D01*
X115902224Y-58197951D01*
X115902216Y-58197922D01*
X115885422Y-58013373D01*
X115904792Y-57829074D01*
X115904799Y-57829051D01*
X115904807Y-57828976D01*
X115959633Y-57651860D01*
X116047817Y-57488767D01*
X116166001Y-57345908D01*
X116309681Y-57228725D01*
X116473386Y-57141681D01*
X116650880Y-57088093D01*
X116835403Y-57070000D01*
X116844672Y-57070000D01*
X116853805Y-57070064D01*
X116853805Y-57070064D01*
G37*
G36*
X99073805Y-57070064D02*
X99073810Y-57070065D01*
X99077861Y-57070093D01*
X99262113Y-57090760D01*
X99438842Y-57146821D01*
X99601316Y-57236142D01*
X99743346Y-57355320D01*
X99859523Y-57499815D01*
X99945422Y-57664124D01*
X99997770Y-57841988D01*
X99997776Y-57842049D01*
X99997784Y-57842078D01*
X100014578Y-58026627D01*
X99995208Y-58210926D01*
X99995201Y-58210949D01*
X99995193Y-58211024D01*
X99940367Y-58388140D01*
X99852183Y-58551233D01*
X99733999Y-58694092D01*
X99590319Y-58811275D01*
X99426614Y-58898319D01*
X99249120Y-58951907D01*
X99064597Y-58970000D01*
X99055328Y-58970000D01*
X99046195Y-58969936D01*
X99046190Y-58969935D01*
X99042139Y-58969907D01*
X98857887Y-58949240D01*
X98681158Y-58893179D01*
X98518684Y-58803858D01*
X98376654Y-58684680D01*
X98260477Y-58540185D01*
X98174578Y-58375876D01*
X98122230Y-58198012D01*
X98122224Y-58197951D01*
X98122216Y-58197922D01*
X98105422Y-58013373D01*
X98124792Y-57829074D01*
X98124799Y-57829051D01*
X98124807Y-57828976D01*
X98179633Y-57651860D01*
X98267817Y-57488767D01*
X98386001Y-57345908D01*
X98529681Y-57228725D01*
X98693386Y-57141681D01*
X98870880Y-57088093D01*
X99055403Y-57070000D01*
X99064672Y-57070000D01*
X99073805Y-57070064D01*
X99073805Y-57070064D01*
G37*
G36*
X114313805Y-57070064D02*
X114313810Y-57070065D01*
X114317861Y-57070093D01*
X114502113Y-57090760D01*
X114678842Y-57146821D01*
X114841316Y-57236142D01*
X114983346Y-57355320D01*
X115099523Y-57499815D01*
X115185422Y-57664124D01*
X115237770Y-57841988D01*
X115237776Y-57842049D01*
X115237784Y-57842078D01*
X115254578Y-58026627D01*
X115235208Y-58210926D01*
X115235201Y-58210949D01*
X115235193Y-58211024D01*
X115180367Y-58388140D01*
X115092183Y-58551233D01*
X114973999Y-58694092D01*
X114830319Y-58811275D01*
X114666614Y-58898319D01*
X114489120Y-58951907D01*
X114304597Y-58970000D01*
X114295328Y-58970000D01*
X114286195Y-58969936D01*
X114286190Y-58969935D01*
X114282139Y-58969907D01*
X114097887Y-58949240D01*
X113921158Y-58893179D01*
X113758684Y-58803858D01*
X113616654Y-58684680D01*
X113500477Y-58540185D01*
X113414578Y-58375876D01*
X113362230Y-58198012D01*
X113362224Y-58197951D01*
X113362216Y-58197922D01*
X113345422Y-58013373D01*
X113364792Y-57829074D01*
X113364799Y-57829051D01*
X113364807Y-57828976D01*
X113419633Y-57651860D01*
X113507817Y-57488767D01*
X113626001Y-57345908D01*
X113769681Y-57228725D01*
X113933386Y-57141681D01*
X114110880Y-57088093D01*
X114295403Y-57070000D01*
X114304672Y-57070000D01*
X114313805Y-57070064D01*
X114313805Y-57070064D01*
G37*
G36*
X111773805Y-57070064D02*
X111773810Y-57070065D01*
X111777861Y-57070093D01*
X111962113Y-57090760D01*
X112138842Y-57146821D01*
X112301316Y-57236142D01*
X112443346Y-57355320D01*
X112559523Y-57499815D01*
X112645422Y-57664124D01*
X112697770Y-57841988D01*
X112697776Y-57842049D01*
X112697784Y-57842078D01*
X112714578Y-58026627D01*
X112695208Y-58210926D01*
X112695201Y-58210949D01*
X112695193Y-58211024D01*
X112640367Y-58388140D01*
X112552183Y-58551233D01*
X112433999Y-58694092D01*
X112290319Y-58811275D01*
X112126614Y-58898319D01*
X111949120Y-58951907D01*
X111764597Y-58970000D01*
X111755328Y-58970000D01*
X111746195Y-58969936D01*
X111746190Y-58969935D01*
X111742139Y-58969907D01*
X111557887Y-58949240D01*
X111381158Y-58893179D01*
X111218684Y-58803858D01*
X111076654Y-58684680D01*
X110960477Y-58540185D01*
X110874578Y-58375876D01*
X110822230Y-58198012D01*
X110822224Y-58197951D01*
X110822216Y-58197922D01*
X110805422Y-58013373D01*
X110824792Y-57829074D01*
X110824799Y-57829051D01*
X110824807Y-57828976D01*
X110879633Y-57651860D01*
X110967817Y-57488767D01*
X111086001Y-57345908D01*
X111229681Y-57228725D01*
X111393386Y-57141681D01*
X111570880Y-57088093D01*
X111755403Y-57070000D01*
X111764672Y-57070000D01*
X111773805Y-57070064D01*
X111773805Y-57070064D01*
G37*
G36*
X109233805Y-57070064D02*
X109233810Y-57070065D01*
X109237861Y-57070093D01*
X109422113Y-57090760D01*
X109598842Y-57146821D01*
X109761316Y-57236142D01*
X109903346Y-57355320D01*
X110019523Y-57499815D01*
X110105422Y-57664124D01*
X110157770Y-57841988D01*
X110157776Y-57842049D01*
X110157784Y-57842078D01*
X110174578Y-58026627D01*
X110155208Y-58210926D01*
X110155201Y-58210949D01*
X110155193Y-58211024D01*
X110100367Y-58388140D01*
X110012183Y-58551233D01*
X109893999Y-58694092D01*
X109750319Y-58811275D01*
X109586614Y-58898319D01*
X109409120Y-58951907D01*
X109224597Y-58970000D01*
X109215328Y-58970000D01*
X109206195Y-58969936D01*
X109206190Y-58969935D01*
X109202139Y-58969907D01*
X109017887Y-58949240D01*
X108841158Y-58893179D01*
X108678684Y-58803858D01*
X108536654Y-58684680D01*
X108420477Y-58540185D01*
X108334578Y-58375876D01*
X108282230Y-58198012D01*
X108282224Y-58197951D01*
X108282216Y-58197922D01*
X108265422Y-58013373D01*
X108284792Y-57829074D01*
X108284799Y-57829051D01*
X108284807Y-57828976D01*
X108339633Y-57651860D01*
X108427817Y-57488767D01*
X108546001Y-57345908D01*
X108689681Y-57228725D01*
X108853386Y-57141681D01*
X109030880Y-57088093D01*
X109215403Y-57070000D01*
X109224672Y-57070000D01*
X109233805Y-57070064D01*
X109233805Y-57070064D01*
G37*
G36*
X104153805Y-57070064D02*
X104153810Y-57070065D01*
X104157861Y-57070093D01*
X104342113Y-57090760D01*
X104518842Y-57146821D01*
X104681316Y-57236142D01*
X104823346Y-57355320D01*
X104939523Y-57499815D01*
X105025422Y-57664124D01*
X105077770Y-57841988D01*
X105077776Y-57842049D01*
X105077784Y-57842078D01*
X105094578Y-58026627D01*
X105075208Y-58210926D01*
X105075201Y-58210949D01*
X105075193Y-58211024D01*
X105020367Y-58388140D01*
X104932183Y-58551233D01*
X104813999Y-58694092D01*
X104670319Y-58811275D01*
X104506614Y-58898319D01*
X104329120Y-58951907D01*
X104144597Y-58970000D01*
X104135328Y-58970000D01*
X104126195Y-58969936D01*
X104126190Y-58969935D01*
X104122139Y-58969907D01*
X103937887Y-58949240D01*
X103761158Y-58893179D01*
X103598684Y-58803858D01*
X103456654Y-58684680D01*
X103340477Y-58540185D01*
X103254578Y-58375876D01*
X103202230Y-58198012D01*
X103202224Y-58197951D01*
X103202216Y-58197922D01*
X103185422Y-58013373D01*
X103204792Y-57829074D01*
X103204799Y-57829051D01*
X103204807Y-57828976D01*
X103259633Y-57651860D01*
X103347817Y-57488767D01*
X103466001Y-57345908D01*
X103609681Y-57228725D01*
X103773386Y-57141681D01*
X103950880Y-57088093D01*
X104135403Y-57070000D01*
X104144672Y-57070000D01*
X104153805Y-57070064D01*
X104153805Y-57070064D01*
G37*
G36*
X101613805Y-57070064D02*
X101613810Y-57070065D01*
X101617861Y-57070093D01*
X101802113Y-57090760D01*
X101978842Y-57146821D01*
X102141316Y-57236142D01*
X102283346Y-57355320D01*
X102399523Y-57499815D01*
X102485422Y-57664124D01*
X102537770Y-57841988D01*
X102537776Y-57842049D01*
X102537784Y-57842078D01*
X102554578Y-58026627D01*
X102535208Y-58210926D01*
X102535201Y-58210949D01*
X102535193Y-58211024D01*
X102480367Y-58388140D01*
X102392183Y-58551233D01*
X102273999Y-58694092D01*
X102130319Y-58811275D01*
X101966614Y-58898319D01*
X101789120Y-58951907D01*
X101604597Y-58970000D01*
X101595328Y-58970000D01*
X101586195Y-58969936D01*
X101586190Y-58969935D01*
X101582139Y-58969907D01*
X101397887Y-58949240D01*
X101221158Y-58893179D01*
X101058684Y-58803858D01*
X100916654Y-58684680D01*
X100800477Y-58540185D01*
X100714578Y-58375876D01*
X100662230Y-58198012D01*
X100662224Y-58197951D01*
X100662216Y-58197922D01*
X100645422Y-58013373D01*
X100664792Y-57829074D01*
X100664799Y-57829051D01*
X100664807Y-57828976D01*
X100719633Y-57651860D01*
X100807817Y-57488767D01*
X100926001Y-57345908D01*
X101069681Y-57228725D01*
X101233386Y-57141681D01*
X101410880Y-57088093D01*
X101595403Y-57070000D01*
X101604672Y-57070000D01*
X101613805Y-57070064D01*
X101613805Y-57070064D01*
G37*
G36*
X102550000Y-56430000D02*
X100650000Y-56430000D01*
X100650000Y-54530000D01*
X102550000Y-54530000D01*
X102550000Y-56430000D01*
X102550000Y-56430000D01*
G37*
G36*
X94930000Y-56430000D02*
X93030000Y-56430000D01*
X93030000Y-54530000D01*
X94930000Y-54530000D01*
X94930000Y-56430000D01*
X94930000Y-56430000D01*
G37*
G36*
X97470000Y-56430000D02*
X95570000Y-56430000D01*
X95570000Y-54530000D01*
X97470000Y-54530000D01*
X97470000Y-56430000D01*
X97470000Y-56430000D01*
G37*
G36*
X117790000Y-56430000D02*
X115890000Y-56430000D01*
X115890000Y-54530000D01*
X117790000Y-54530000D01*
X117790000Y-56430000D01*
X117790000Y-56430000D01*
G37*
G36*
X100010000Y-56430000D02*
X98110000Y-56430000D01*
X98110000Y-54530000D01*
X100010000Y-54530000D01*
X100010000Y-56430000D01*
X100010000Y-56430000D01*
G37*
G36*
X115250000Y-56430000D02*
X113350000Y-56430000D01*
X113350000Y-54530000D01*
X115250000Y-54530000D01*
X115250000Y-56430000D01*
X115250000Y-56430000D01*
G37*
G36*
X112710000Y-56430000D02*
X110810000Y-56430000D01*
X110810000Y-54530000D01*
X112710000Y-54530000D01*
X112710000Y-56430000D01*
X112710000Y-56430000D01*
G37*
G36*
X110170000Y-56430000D02*
X108270000Y-56430000D01*
X108270000Y-54530000D01*
X110170000Y-54530000D01*
X110170000Y-56430000D01*
X110170000Y-56430000D01*
G37*
G36*
X105090000Y-56430000D02*
X103190000Y-56430000D01*
X103190000Y-54530000D01*
X105090000Y-54530000D01*
X105090000Y-56430000D01*
X105090000Y-56430000D01*
G37*
M02*
