G04 #@! TF.FileFunction,Copper,L1,Top,Signal*
%FSLAX46Y46*%
G04 Gerber Fmt 4.6, Leading zero omitted, Abs format (unit mm)*
G04 Created by KiCad (PCBNEW (2016-11-06 revision 9ab7cfe)-master) date Tue Jan 10 10:26:56 2017*
%MOMM*%
%LPD*%
G01*
G04 APERTURE LIST*
%ADD10C,0.100000*%
%ADD11C,0.300000*%
%ADD12R,1.651000X3.048000*%
%ADD13R,6.096000X6.096000*%
%ADD14R,1.700000X1.700000*%
%ADD15O,1.700000X1.700000*%
%ADD16R,1.727200X3.000000*%
%ADD17R,1.727200X2.000000*%
%ADD18R,2.032000X1.727200*%
%ADD19O,2.032000X1.727200*%
%ADD20R,1.000000X1.250000*%
%ADD21R,2.000000X2.500000*%
%ADD22R,1.250000X1.000000*%
%ADD23R,0.700000X1.300000*%
%ADD24R,1.300000X0.700000*%
%ADD25R,1.300000X2.000000*%
%ADD26R,1.300000X0.250000*%
%ADD27R,0.250000X1.300000*%
%ADD28R,1.198880X1.198880*%
%ADD29C,0.635000*%
%ADD30C,0.800000*%
%ADD31C,0.254000*%
%ADD32C,1.000000*%
%ADD33C,2.000000*%
%ADD34C,0.250000*%
G04 APERTURE END LIST*
D10*
D11*
X99207619Y-71490952D02*
X100517142Y-69824285D01*
X99207619Y-69824285D02*
X100517142Y-71490952D01*
X101826666Y-71490952D02*
X101588571Y-71371904D01*
X101469523Y-71133809D01*
X101469523Y-68990952D01*
X102540952Y-69824285D02*
X103136190Y-71490952D01*
X103731428Y-69824285D02*
X103136190Y-71490952D01*
X102898095Y-72086190D01*
X102779047Y-72205238D01*
X102540952Y-72324285D01*
X106112380Y-71490952D02*
X105279047Y-70300476D01*
X104683809Y-71490952D02*
X104683809Y-68990952D01*
X105636190Y-68990952D01*
X105874285Y-69110000D01*
X105993333Y-69229047D01*
X106112380Y-69467142D01*
X106112380Y-69824285D01*
X105993333Y-70062380D01*
X105874285Y-70181428D01*
X105636190Y-70300476D01*
X104683809Y-70300476D01*
X106945714Y-68990952D02*
X108612380Y-71490952D01*
X108612380Y-68990952D02*
X106945714Y-71490952D01*
D12*
X116796000Y-73360000D03*
D13*
X114510000Y-79710000D03*
D12*
X112224000Y-73360000D03*
D14*
X94410000Y-105920000D03*
D15*
X94410000Y-103380000D03*
X94410000Y-100840000D03*
D16*
X99210000Y-105560000D03*
X96670000Y-105560000D03*
D17*
X94130000Y-106060000D03*
D14*
X104140000Y-55480000D03*
X104140000Y-60560000D03*
D15*
X104140000Y-58020000D03*
D14*
X109220000Y-55480000D03*
D15*
X109220000Y-58020000D03*
X109220000Y-60560000D03*
D14*
X111760000Y-55480000D03*
D15*
X111760000Y-58020000D03*
X111760000Y-60560000D03*
D14*
X114300000Y-55480000D03*
D15*
X114300000Y-58020000D03*
X114300000Y-60560000D03*
D14*
X101600000Y-55480000D03*
D15*
X101600000Y-58020000D03*
X101600000Y-60560000D03*
D14*
X99060000Y-55480000D03*
D15*
X99060000Y-58020000D03*
X99060000Y-60560000D03*
D14*
X96520000Y-55480000D03*
D15*
X96520000Y-58020000D03*
X96520000Y-60560000D03*
D14*
X93980000Y-55480000D03*
D15*
X93980000Y-58020000D03*
X93980000Y-60560000D03*
D14*
X116840000Y-55480000D03*
D15*
X116840000Y-58020000D03*
X116840000Y-60560000D03*
D18*
X94410000Y-93220000D03*
D19*
X94410000Y-95760000D03*
X94410000Y-98300000D03*
D16*
X104140000Y-66548000D03*
D20*
X102710000Y-97160000D03*
X104710000Y-97160000D03*
D21*
X114810000Y-101935000D03*
X114810000Y-95785000D03*
D20*
X105410000Y-77360000D03*
X103410000Y-77360000D03*
D22*
X105310000Y-75560000D03*
X105310000Y-73560000D03*
D23*
X107060000Y-97560000D03*
X108960000Y-97560000D03*
D22*
X94410000Y-88160000D03*
X94410000Y-90160000D03*
D20*
X99210000Y-77760000D03*
X97210000Y-77760000D03*
D22*
X114410000Y-72460000D03*
X114410000Y-70460000D03*
X109210000Y-79560000D03*
X109210000Y-81560000D03*
X114210000Y-91160000D03*
X114210000Y-93160000D03*
X114210000Y-87160000D03*
X114210000Y-89160000D03*
D20*
X99210000Y-79960000D03*
X97210000Y-79960000D03*
X104210000Y-93160000D03*
X106210000Y-93160000D03*
X111410000Y-84760000D03*
X109410000Y-84760000D03*
D24*
X97210000Y-98310000D03*
X97210000Y-96410000D03*
D23*
X107260000Y-101560000D03*
X109160000Y-101560000D03*
X104560000Y-99360000D03*
X102660000Y-99360000D03*
D24*
X94410000Y-84710000D03*
X94410000Y-82810000D03*
D23*
X105160000Y-79560000D03*
X103260000Y-79560000D03*
D24*
X103210000Y-73810000D03*
X103210000Y-75710000D03*
X97210000Y-102310000D03*
X97210000Y-100410000D03*
D19*
X94410000Y-77700000D03*
X94410000Y-75160000D03*
D18*
X94410000Y-72620000D03*
D25*
X111810000Y-91560000D03*
X111810000Y-87560000D03*
X109410000Y-87560000D03*
X109410000Y-91560000D03*
D16*
X93980000Y-66548000D03*
X96520000Y-66548000D03*
X99060000Y-66548000D03*
X101600000Y-66548000D03*
X109220000Y-66548000D03*
X111760000Y-66548000D03*
X114300000Y-66548000D03*
X116840000Y-66548000D03*
D26*
X105560000Y-89510000D03*
X105560000Y-89010000D03*
X105560000Y-88510000D03*
X105560000Y-88010000D03*
X105560000Y-87510000D03*
X105560000Y-87010000D03*
X105560000Y-86510000D03*
X105560000Y-86010000D03*
X105560000Y-85510000D03*
X105560000Y-85010000D03*
X105560000Y-84510000D03*
X105560000Y-84010000D03*
D27*
X103960000Y-82410000D03*
X103460000Y-82410000D03*
X102960000Y-82410000D03*
X102460000Y-82410000D03*
X101960000Y-82410000D03*
X101460000Y-82410000D03*
X100960000Y-82410000D03*
X100460000Y-82410000D03*
X99960000Y-82410000D03*
X99460000Y-82410000D03*
X98960000Y-82410000D03*
X98460000Y-82410000D03*
D26*
X96860000Y-84010000D03*
X96860000Y-84510000D03*
X96860000Y-85010000D03*
X96860000Y-85510000D03*
X96860000Y-86010000D03*
X96860000Y-86510000D03*
X96860000Y-87010000D03*
X96860000Y-87510000D03*
X96860000Y-88010000D03*
X96860000Y-88510000D03*
X96860000Y-89010000D03*
X96860000Y-89510000D03*
D27*
X98460000Y-91110000D03*
X98960000Y-91110000D03*
X99460000Y-91110000D03*
X99960000Y-91110000D03*
X100460000Y-91110000D03*
X100960000Y-91110000D03*
X101460000Y-91110000D03*
X101960000Y-91110000D03*
X102460000Y-91110000D03*
X102960000Y-91110000D03*
X103460000Y-91110000D03*
X103960000Y-91110000D03*
D28*
X109059020Y-95560000D03*
X106960980Y-95560000D03*
X106960980Y-99560000D03*
X109059020Y-99560000D03*
D29*
X102210000Y-76660000D03*
X108010000Y-76460000D03*
X101709241Y-75722547D03*
X107919960Y-75369960D03*
X106510000Y-90260000D03*
X106332310Y-97460000D03*
X104710000Y-97160000D03*
D30*
X117310000Y-102660000D03*
D29*
X108810000Y-81660000D03*
X104210000Y-81060000D03*
X106010000Y-81760000D03*
X100310000Y-80259998D03*
X107410000Y-86160000D03*
X105160000Y-78560000D03*
D30*
X109210000Y-79560000D03*
X116796000Y-73360000D03*
D29*
X103410000Y-84960000D03*
X104210000Y-93160000D03*
X104307693Y-94837690D03*
X104810000Y-99360000D03*
X110410000Y-102560000D03*
X93710000Y-79960000D03*
X100672460Y-83551349D03*
X105710000Y-102960000D03*
X97810000Y-75060000D03*
X105710000Y-106660000D03*
X114810000Y-95785000D03*
X97991644Y-88760000D03*
X104310000Y-73810000D03*
X103410000Y-89960000D03*
X114210000Y-91159998D03*
X99210000Y-79960016D03*
X111410002Y-84760000D03*
X104410000Y-85887690D03*
X109410000Y-91560000D03*
X111810000Y-87560000D03*
X114210000Y-86960000D03*
X94410000Y-87360000D03*
X94310000Y-81960000D03*
X101710000Y-86460000D03*
X99236256Y-88722229D03*
X97047927Y-91877317D03*
X97510000Y-81560002D03*
X98837690Y-83760000D03*
X95714688Y-86001076D03*
X97021827Y-91064924D03*
X112511988Y-105106314D03*
X110464453Y-104914121D03*
X114635197Y-104482310D03*
X102610000Y-102959990D03*
X107994961Y-103175041D03*
X104610012Y-102960000D03*
X101910000Y-101060000D03*
X99310000Y-103160000D03*
X97670237Y-93160000D03*
X99900052Y-89879650D03*
X97810124Y-92359316D03*
X99037876Y-89800689D03*
D30*
X114410000Y-70460000D03*
D29*
X101310000Y-89560000D03*
X98210000Y-87860000D03*
D31*
X113842016Y-69460000D02*
X114442016Y-68860000D01*
X110642016Y-71327984D02*
X112510000Y-69460000D01*
X112510000Y-69460000D02*
X113842016Y-69460000D01*
X109510000Y-73792016D02*
X110642016Y-72660000D01*
X110642016Y-72660000D02*
X110642016Y-71327984D01*
X116840000Y-67184400D02*
X116840000Y-66548000D01*
X107927735Y-84252937D02*
X107927735Y-78073943D01*
X115164400Y-68860000D02*
X116840000Y-67184400D01*
X109510000Y-76491678D02*
X109510000Y-73792016D01*
X114442016Y-68860000D02*
X115164400Y-68860000D01*
X105560000Y-85010000D02*
X107170672Y-85010000D01*
X107170672Y-85010000D02*
X107927735Y-84252937D01*
X107927735Y-78073943D02*
X109510000Y-76491678D01*
X105560000Y-84510000D02*
X106464000Y-84510000D01*
X110210205Y-72481139D02*
X110210205Y-71059795D01*
X106464000Y-84510000D02*
X107495924Y-83478076D01*
X107495924Y-83478076D02*
X107495924Y-77895082D01*
X107495924Y-77895082D02*
X109078189Y-76312817D01*
X109078189Y-76312817D02*
X109078189Y-73613155D01*
X113110000Y-68060000D02*
X114300000Y-66870000D01*
X109078189Y-73613155D02*
X110210205Y-72481139D01*
X110210205Y-71059795D02*
X113110000Y-68160000D01*
X113110000Y-68160000D02*
X113110000Y-68060000D01*
X114300000Y-66870000D02*
X114300000Y-66548000D01*
X108646378Y-73434294D02*
X109710000Y-72370672D01*
X111760000Y-68760000D02*
X111760000Y-68302000D01*
X109710000Y-72370672D02*
X109710000Y-70810000D01*
X109710000Y-70810000D02*
X111760000Y-68760000D01*
X102460000Y-82410000D02*
X102460000Y-76910000D01*
X102460000Y-76910000D02*
X102210000Y-76660000D01*
X111760000Y-68302000D02*
X111760000Y-66548000D01*
X108010000Y-76460000D02*
X108646378Y-75823622D01*
X108646378Y-75823622D02*
X108646378Y-73434294D01*
X101960000Y-82410000D02*
X101960000Y-77331006D01*
X101960000Y-77331006D02*
X101587699Y-76958705D01*
X101587699Y-76293101D02*
X101709241Y-76171559D01*
X101587699Y-76958705D02*
X101587699Y-76293101D01*
X101709241Y-76171559D02*
X101709241Y-75722547D01*
X107919960Y-74920948D02*
X107919960Y-75369960D01*
X107919960Y-73539368D02*
X107919960Y-74920948D01*
X109220000Y-72239328D02*
X107919960Y-73539368D01*
X109220000Y-66548000D02*
X109220000Y-72239328D01*
X100698008Y-76737336D02*
X97010000Y-73049328D01*
X97010000Y-73049328D02*
X97010000Y-70214400D01*
X100698008Y-77290358D02*
X100698008Y-76737336D01*
X100960000Y-77552350D02*
X100698008Y-77290358D01*
X93980000Y-67184400D02*
X93980000Y-66548000D01*
X100960000Y-82410000D02*
X100960000Y-77552350D01*
X97010000Y-70214400D02*
X93980000Y-67184400D01*
X96520000Y-68302000D02*
X96520000Y-66548000D01*
X101464112Y-77445790D02*
X101129819Y-77111497D01*
X101129819Y-76558475D02*
X97441811Y-72870467D01*
X101464112Y-81501888D02*
X101464112Y-77445790D01*
X101460000Y-82410000D02*
X101460000Y-81506000D01*
X97441811Y-72870467D02*
X97441811Y-69223811D01*
X101129819Y-77111497D02*
X101129819Y-76558475D01*
X101460000Y-81506000D02*
X101464112Y-81501888D01*
X97441811Y-69223811D02*
X96520000Y-68302000D01*
X99060000Y-66548000D02*
X99060000Y-67184400D01*
X99060000Y-67184400D02*
X97942400Y-68302000D01*
X104214801Y-74755199D02*
X104410000Y-74560000D01*
X97942400Y-68302000D02*
X97942400Y-72703072D01*
X97942400Y-72703072D02*
X99994527Y-74755199D01*
X99994527Y-74755199D02*
X104214801Y-74755199D01*
X104410000Y-74560000D02*
X106354604Y-74560000D01*
X106354604Y-74560000D02*
X106632302Y-74837698D01*
X106632302Y-82058704D02*
X106281006Y-82410000D01*
X106632302Y-74837698D02*
X106632302Y-82058704D01*
X106281006Y-82410000D02*
X103960000Y-82410000D01*
X105560000Y-84010000D02*
X106085000Y-84010000D01*
X106085000Y-84010000D02*
X107064113Y-83030887D01*
X107064113Y-83030887D02*
X107064113Y-73414113D01*
X106210000Y-72560000D02*
X104410000Y-72560000D01*
X101600000Y-67184400D02*
X101600000Y-66548000D01*
X107064113Y-73414113D02*
X106210000Y-72560000D01*
X104410000Y-72560000D02*
X104010000Y-72960000D01*
X98510000Y-72660000D02*
X98510000Y-69360000D01*
X104010000Y-72960000D02*
X98810000Y-72960000D01*
X98810000Y-72960000D02*
X98510000Y-72660000D01*
X99110000Y-68760000D02*
X100024400Y-68760000D01*
X98510000Y-69360000D02*
X99110000Y-68760000D01*
X100024400Y-68760000D02*
X101600000Y-67184400D01*
X106210000Y-93160000D02*
X106210000Y-90560000D01*
X106210000Y-90560000D02*
X106510000Y-90260000D01*
X105910000Y-100814000D02*
X106656000Y-101560000D01*
X105910000Y-98570672D02*
X105910000Y-100814000D01*
X106656000Y-101560000D02*
X107260000Y-101560000D01*
X106332310Y-97460000D02*
X106332310Y-98148362D01*
X106332310Y-98148362D02*
X105910000Y-98570672D01*
X107060000Y-97560000D02*
X107060000Y-97860000D01*
X107260000Y-101260000D02*
X107260000Y-101560000D01*
X106432310Y-97560000D02*
X106332310Y-97460000D01*
X107060000Y-97560000D02*
X106432310Y-97560000D01*
X107410000Y-86160000D02*
X107610000Y-85960000D01*
X107610000Y-85960000D02*
X110210000Y-85960000D01*
X110210000Y-85960000D02*
X110410000Y-85760000D01*
X110410000Y-85760000D02*
X110410000Y-82635000D01*
X110410000Y-82635000D02*
X109585000Y-81810000D01*
X109585000Y-81810000D02*
X109210000Y-81810000D01*
X109210000Y-81810000D02*
X109210000Y-81560000D01*
X97210000Y-77760000D02*
X97210000Y-77160000D01*
X97210000Y-77160000D02*
X97910000Y-76460000D01*
X97910000Y-76460000D02*
X99810000Y-76460000D01*
X99810000Y-76460000D02*
X100266197Y-76916197D01*
X100266197Y-76916197D02*
X100266197Y-79767183D01*
X100266197Y-79767183D02*
X100310000Y-79810986D01*
X100310000Y-79810986D02*
X100310000Y-80259998D01*
D32*
X114010000Y-82310000D02*
X114010000Y-84310000D01*
X114010000Y-84310000D02*
X117410000Y-87710000D01*
X117410000Y-87710000D02*
X117410000Y-102560000D01*
X117410000Y-102560000D02*
X117310000Y-102660000D01*
D31*
X96860000Y-89510000D02*
X95310000Y-89510000D01*
X94410000Y-85210000D02*
X94410000Y-85010000D01*
X95310000Y-89510000D02*
X94410000Y-90410000D01*
X94410000Y-90410000D02*
X93531000Y-90410000D01*
X93531000Y-90410000D02*
X93010000Y-89889000D01*
X93010000Y-89889000D02*
X93010000Y-86610000D01*
X93010000Y-86610000D02*
X94410000Y-85210000D01*
X94410000Y-85010000D02*
X95610000Y-83810000D01*
X95610000Y-83810000D02*
X95610000Y-79110000D01*
X95610000Y-79110000D02*
X96960000Y-77760000D01*
X116910001Y-103059999D02*
X117310000Y-102660000D01*
X109560000Y-103860000D02*
X116110000Y-103860000D01*
X107864000Y-102464000D02*
X108164000Y-102464000D01*
X107260000Y-101560000D02*
X107260000Y-101860000D01*
X107260000Y-101860000D02*
X107864000Y-102464000D01*
X108164000Y-102464000D02*
X109560000Y-103860000D01*
X116110000Y-103860000D02*
X116910001Y-103059999D01*
D32*
X114010000Y-82310000D02*
X111585000Y-82310000D01*
X111585000Y-82310000D02*
X110835000Y-81560000D01*
X110835000Y-81560000D02*
X109210000Y-81560000D01*
D31*
X108892501Y-81577499D02*
X108810000Y-81660000D01*
X109210000Y-81560000D02*
X109192501Y-81577499D01*
X109192501Y-81577499D02*
X108892501Y-81577499D01*
X98460000Y-82410000D02*
X98460000Y-81288994D01*
X98460000Y-81288994D02*
X96960000Y-79788994D01*
X96960000Y-79788994D02*
X96960000Y-77760000D01*
X104659012Y-81060000D02*
X104210000Y-81060000D01*
X106010000Y-81760000D02*
X105310000Y-81060000D01*
X105310000Y-81060000D02*
X104659012Y-81060000D01*
X96960000Y-77760000D02*
X97210000Y-77760000D01*
X103960000Y-91110000D02*
X104339000Y-91110000D01*
X104339000Y-91110000D02*
X106210000Y-92981000D01*
X106210000Y-92981000D02*
X106210000Y-93160000D01*
X109410000Y-84760000D02*
X109410000Y-81760000D01*
X109410000Y-81760000D02*
X109210000Y-81560000D01*
X107460000Y-85510000D02*
X108210000Y-84760000D01*
X108210000Y-84760000D02*
X109410000Y-84760000D01*
X105560000Y-85510000D02*
X107460000Y-85510000D01*
D32*
X114410000Y-72460000D02*
X115896000Y-72460000D01*
X115896000Y-72460000D02*
X116796000Y-73360000D01*
D31*
X103460000Y-91110000D02*
X103460000Y-92410000D01*
X103460000Y-92410000D02*
X104210000Y-93160000D01*
X105160000Y-78560000D02*
X105160000Y-77610000D01*
X105160000Y-77610000D02*
X105410000Y-77360000D01*
X100460000Y-82410000D02*
X100473622Y-82423622D01*
X100473622Y-82423622D02*
X100473622Y-83352511D01*
X100473622Y-83352511D02*
X100672460Y-83551349D01*
X97991644Y-88782356D02*
X97991644Y-88760000D01*
X97764000Y-89010000D02*
X97991644Y-88782356D01*
X96860000Y-89010000D02*
X97764000Y-89010000D01*
X104310000Y-73810000D02*
X105060000Y-73810000D01*
X103210000Y-73810000D02*
X104310000Y-73810000D01*
X105060000Y-73810000D02*
X105310000Y-73560000D01*
X103460000Y-91110000D02*
X103460000Y-90010000D01*
X103460000Y-90010000D02*
X103410000Y-89960000D01*
X105160000Y-78760000D02*
X105160000Y-79560000D01*
X105160000Y-78760000D02*
X105160000Y-78560000D01*
X99210016Y-79960000D02*
X99210000Y-79960016D01*
X99585000Y-79960000D02*
X99210016Y-79960000D01*
X99210000Y-79511004D02*
X99210000Y-79960016D01*
X99210000Y-78010000D02*
X99210000Y-79511004D01*
X98960000Y-82410000D02*
X98960000Y-80210016D01*
X98960000Y-80210016D02*
X99210000Y-79960016D01*
X99460000Y-77760000D02*
X99210000Y-78010000D01*
X104532310Y-86010000D02*
X104410000Y-85887690D01*
X105560000Y-86010000D02*
X104532310Y-86010000D01*
X94410000Y-87910000D02*
X94410000Y-87360000D01*
X94410000Y-87910000D02*
X94410000Y-88035000D01*
X94410000Y-88035000D02*
X95385000Y-89010000D01*
X95385000Y-89010000D02*
X95956000Y-89010000D01*
X95956000Y-89010000D02*
X96860000Y-89010000D01*
X94310000Y-81960000D02*
X94310000Y-82710000D01*
X94310000Y-82710000D02*
X94410000Y-82810000D01*
X101760000Y-86510000D02*
X101710000Y-86460000D01*
X105560000Y-86510000D02*
X101760000Y-86510000D01*
X106960980Y-95560000D02*
X107260000Y-95560000D01*
X107910000Y-96210000D02*
X107910000Y-96960000D01*
X107260000Y-95560000D02*
X107910000Y-96210000D01*
X107910000Y-96960000D02*
X108510000Y-97560000D01*
X108510000Y-97560000D02*
X108960000Y-97560000D01*
X109160000Y-101560000D02*
X109160000Y-101260000D01*
X109160000Y-101260000D02*
X108556000Y-100656000D01*
X108556000Y-100656000D02*
X108106000Y-100656000D01*
X108106000Y-100656000D02*
X107010000Y-99560000D01*
X107010000Y-99560000D02*
X106960980Y-99560000D01*
X109059020Y-99560000D02*
X109912460Y-99560000D01*
X107741811Y-93502483D02*
X107741811Y-89702483D01*
X109912460Y-99560000D02*
X110246612Y-99225848D01*
X110246612Y-99225848D02*
X110246612Y-94396612D01*
X110246612Y-94396612D02*
X109741811Y-93891811D01*
X109741811Y-93891811D02*
X108131139Y-93891811D01*
X108131139Y-93891811D02*
X107741811Y-93502483D01*
X107741811Y-89702483D02*
X106549328Y-88510000D01*
X106549328Y-88510000D02*
X106464000Y-88510000D01*
X106464000Y-88510000D02*
X105560000Y-88510000D01*
X107310000Y-89881344D02*
X107310000Y-93810981D01*
X107310000Y-93810981D02*
X108804174Y-95305155D01*
X105560000Y-89010000D02*
X106438656Y-89010000D01*
X106438656Y-89010000D02*
X107310000Y-89881344D01*
X112410000Y-99285000D02*
X114810000Y-101685000D01*
X106660000Y-88010000D02*
X108173622Y-89523622D01*
X108173622Y-93323622D02*
X108310000Y-93460000D01*
X112410000Y-95660000D02*
X112410000Y-99285000D01*
X108173622Y-89523622D02*
X108173622Y-93323622D01*
X105560000Y-88010000D02*
X106660000Y-88010000D01*
X114810000Y-101685000D02*
X114810000Y-101935000D01*
X110210000Y-93460000D02*
X112410000Y-95660000D01*
X108310000Y-93460000D02*
X110210000Y-93460000D01*
X111810000Y-91560000D02*
X111810000Y-90920672D01*
X106464000Y-87510000D02*
X105560000Y-87510000D01*
X111810000Y-90920672D02*
X110049328Y-89160000D01*
X110049328Y-89160000D02*
X108510000Y-89160000D01*
X108510000Y-89160000D02*
X106860000Y-87510000D01*
X106860000Y-87510000D02*
X106464000Y-87510000D01*
X113310000Y-93410000D02*
X113331000Y-93410000D01*
X113331000Y-93410000D02*
X114210000Y-93410000D01*
X111810000Y-91560000D02*
X111810000Y-91910000D01*
X111810000Y-91910000D02*
X113310000Y-93410000D01*
X109410000Y-87560000D02*
X109410000Y-87660000D01*
X109410000Y-87660000D02*
X110910000Y-89160000D01*
X110910000Y-89160000D02*
X112981000Y-89160000D01*
X112981000Y-89160000D02*
X114210000Y-89160000D01*
X107956000Y-87010000D02*
X106464000Y-87010000D01*
X106464000Y-87010000D02*
X105560000Y-87010000D01*
X108506000Y-87560000D02*
X107956000Y-87010000D01*
X109410000Y-87560000D02*
X108506000Y-87560000D01*
X99960000Y-82410000D02*
X99960000Y-87998485D01*
X99960000Y-87998485D02*
X99553755Y-88404730D01*
X99553755Y-88404730D02*
X99236256Y-88722229D01*
X94410000Y-98300000D02*
X94562400Y-98300000D01*
X94562400Y-98300000D02*
X96010000Y-96852400D01*
X96010000Y-96852400D02*
X96010000Y-95560000D01*
X96010000Y-95560000D02*
X97047927Y-94522073D01*
X97047927Y-94522073D02*
X97047927Y-92326329D01*
X97047927Y-92326329D02*
X97047927Y-91877317D01*
X96355887Y-93966513D02*
X96355887Y-90809856D01*
X98613954Y-89020935D02*
X98613954Y-88377052D01*
X99460000Y-83314000D02*
X99460000Y-82410000D01*
X94410000Y-95760000D02*
X94562400Y-95760000D01*
X96723121Y-90442622D02*
X97192267Y-90442622D01*
X94562400Y-95760000D02*
X96355887Y-93966513D01*
X96355887Y-90809856D02*
X96723121Y-90442622D01*
X97192267Y-90442622D02*
X98613954Y-89020935D01*
X98613954Y-88377052D02*
X99460000Y-87531006D01*
X99460000Y-87531006D02*
X99460000Y-83314000D01*
X96860000Y-86510000D02*
X97764000Y-86510000D01*
X97764000Y-86510000D02*
X97987698Y-86286302D01*
X97987698Y-86286302D02*
X97987698Y-83637698D01*
X97987698Y-83637698D02*
X97510000Y-83160000D01*
X97510000Y-83160000D02*
X97510000Y-81560002D01*
X97874671Y-87010000D02*
X98837690Y-86046981D01*
X98837690Y-84209012D02*
X98837690Y-83760000D01*
X96860000Y-87010000D02*
X97874671Y-87010000D01*
X98837690Y-86046981D02*
X98837690Y-84209012D01*
X95714688Y-86450088D02*
X95714688Y-86001076D01*
X96860000Y-88510000D02*
X95956000Y-88510000D01*
X95956000Y-88510000D02*
X95714688Y-88268688D01*
X95714688Y-88268688D02*
X95714688Y-86450088D01*
X98460000Y-91110000D02*
X97066903Y-91110000D01*
X97066903Y-91110000D02*
X97021827Y-91064924D01*
X99460000Y-91110000D02*
X99460000Y-102410000D01*
X99460000Y-102410000D02*
X102586422Y-105536422D01*
X102586422Y-105536422D02*
X112081880Y-105536422D01*
X112081880Y-105536422D02*
X112194489Y-105423813D01*
X112194489Y-105423813D02*
X112511988Y-105106314D01*
X99960000Y-91110000D02*
X99960000Y-102110000D01*
X110015441Y-104914121D02*
X110464453Y-104914121D01*
X102764121Y-104914121D02*
X110015441Y-104914121D01*
X99960000Y-102110000D02*
X102764121Y-104914121D01*
X100460000Y-91110000D02*
X100460000Y-101731008D01*
X100460000Y-101731008D02*
X103020803Y-104291811D01*
X103020803Y-104291811D02*
X113995686Y-104291811D01*
X113995686Y-104291811D02*
X114186185Y-104482310D01*
X114186185Y-104482310D02*
X114635197Y-104482310D01*
X102292501Y-102642491D02*
X102610000Y-102959990D01*
X100960000Y-101309990D02*
X102292501Y-102642491D01*
X100960000Y-91110000D02*
X100960000Y-101309990D01*
D33*
X107141146Y-58020000D02*
X104601146Y-60560000D01*
X104601146Y-60560000D02*
X104140000Y-60560000D01*
X109220000Y-58020000D02*
X107141146Y-58020000D01*
D31*
X102960000Y-92014000D02*
X102960000Y-91110000D01*
X102960000Y-94899328D02*
X102960000Y-92014000D01*
X103520672Y-95460000D02*
X102960000Y-94899328D01*
X105210000Y-95460000D02*
X103520672Y-95460000D01*
X105478189Y-101677201D02*
X105478189Y-98391811D01*
X105710000Y-98160000D02*
X105710000Y-95960000D01*
X107994961Y-103175041D02*
X106976029Y-103175041D01*
X105478189Y-98391811D02*
X105710000Y-98160000D01*
X105710000Y-95960000D02*
X105210000Y-95460000D01*
X106976029Y-103175041D02*
X105478189Y-101677201D01*
X104610012Y-102510988D02*
X104610012Y-102960000D01*
X102460000Y-91110000D02*
X102460000Y-95010000D01*
X102460000Y-95010000D02*
X103710000Y-96260000D01*
X104610012Y-102370684D02*
X104610012Y-102510988D01*
X103710000Y-96260000D02*
X103710000Y-98360000D01*
X103710000Y-98360000D02*
X103610000Y-98460000D01*
X103610000Y-98460000D02*
X103610000Y-101370672D01*
X103610000Y-101370672D02*
X104610012Y-102370684D01*
X101592501Y-100742501D02*
X101910000Y-101060000D01*
X101460000Y-100610000D02*
X101592501Y-100742501D01*
X101460000Y-91110000D02*
X101460000Y-100610000D01*
X98960000Y-91110000D02*
X98960000Y-102810000D01*
X98992501Y-102842501D02*
X99310000Y-103160000D01*
X98960000Y-102810000D02*
X98992501Y-102842501D01*
X94410000Y-105900000D02*
X93306000Y-105900000D01*
X93306000Y-105900000D02*
X93110000Y-105704000D01*
X93110000Y-105704000D02*
X93110000Y-102760000D01*
X93110000Y-102760000D02*
X93810000Y-102060000D01*
X93810000Y-102060000D02*
X95210000Y-102060000D01*
X95210000Y-102060000D02*
X95810000Y-101460000D01*
X95810000Y-101460000D02*
X95810000Y-100314000D01*
X95810000Y-100314000D02*
X97210000Y-98914000D01*
X97210000Y-98914000D02*
X97210000Y-98310000D01*
X94410000Y-105900000D02*
X94410000Y-105840000D01*
X94410000Y-105840000D02*
X94130000Y-105560000D01*
X97210000Y-98310000D02*
X97210000Y-98560000D01*
X97310000Y-98510000D02*
X97610000Y-98510000D01*
X103460000Y-82410000D02*
X103460000Y-83688994D01*
X103460000Y-83688994D02*
X100987699Y-86161295D01*
X100987699Y-86161295D02*
X100987699Y-88792003D01*
X100987699Y-88792003D02*
X100217551Y-89562151D01*
X100217551Y-89562151D02*
X99900052Y-89879650D01*
X103460000Y-80888994D02*
X104188994Y-80160000D01*
X104410000Y-78360000D02*
X104410000Y-76710000D01*
X104188994Y-80160000D02*
X104188994Y-78581006D01*
X104188994Y-78581006D02*
X104410000Y-78360000D01*
X104410000Y-76710000D02*
X104410000Y-75710000D01*
X103460000Y-82410000D02*
X103460000Y-80888994D01*
X103210000Y-75710000D02*
X104410000Y-75710000D01*
X104410000Y-75710000D02*
X105160000Y-75710000D01*
X105160000Y-75710000D02*
X105310000Y-75560000D01*
X97210000Y-96410000D02*
X97210000Y-95806000D01*
X97210000Y-95806000D02*
X97670237Y-95345763D01*
X97670237Y-95345763D02*
X97670237Y-93160000D01*
X97210000Y-100410000D02*
X97210000Y-100260000D01*
X97210000Y-100260000D02*
X98528189Y-98941811D01*
X98528189Y-98941811D02*
X98528189Y-93077381D01*
X98528189Y-93077381D02*
X98127623Y-92676815D01*
X98127623Y-92676815D02*
X97810124Y-92359316D01*
X102960000Y-82410000D02*
X102960000Y-83314000D01*
X102960000Y-83314000D02*
X100510000Y-85764000D01*
X100510000Y-85764000D02*
X100510000Y-88328565D01*
X100510000Y-88328565D02*
X99355375Y-89483190D01*
X99355375Y-89483190D02*
X99037876Y-89800689D01*
X103260000Y-79560000D02*
X103260000Y-77510000D01*
X103260000Y-77510000D02*
X103410000Y-77360000D01*
X102960000Y-82410000D02*
X102960000Y-79860000D01*
X102960000Y-79860000D02*
X103260000Y-79560000D01*
X97210000Y-102914000D02*
X96764000Y-103360000D01*
X96764000Y-103360000D02*
X96670000Y-103454000D01*
X95612081Y-103360000D02*
X96764000Y-103360000D01*
X97210000Y-102310000D02*
X97210000Y-102914000D01*
X96670000Y-103454000D02*
X96670000Y-105560000D01*
X94410000Y-103360000D02*
X95612081Y-103360000D01*
D32*
X114410000Y-70460000D02*
X112785000Y-70460000D01*
X112785000Y-70460000D02*
X112224000Y-71021000D01*
X112224000Y-71021000D02*
X112224000Y-73360000D01*
D31*
X101960000Y-90206000D02*
X101314000Y-89560000D01*
X101960000Y-91110000D02*
X101960000Y-90206000D01*
X101314000Y-89560000D02*
X101310000Y-89560000D01*
X98210000Y-87860000D02*
X98060000Y-88010000D01*
X98060000Y-88010000D02*
X96860000Y-88010000D01*
X101960000Y-91110000D02*
X101960000Y-96260000D01*
X101960000Y-96260000D02*
X102860000Y-97160000D01*
X102860000Y-99360000D02*
X102860000Y-97160000D01*
D34*
G36*
X110870960Y-74884000D02*
X110881097Y-74986918D01*
X110911117Y-75085881D01*
X110959867Y-75177086D01*
X111025473Y-75257027D01*
X111105414Y-75322633D01*
X111196619Y-75371383D01*
X111295582Y-75401403D01*
X111398500Y-75411540D01*
X113049500Y-75411540D01*
X113152418Y-75401403D01*
X113251381Y-75371383D01*
X113342586Y-75322633D01*
X113422527Y-75257027D01*
X113488133Y-75177086D01*
X113536883Y-75085881D01*
X113566903Y-74986918D01*
X113577040Y-74884000D01*
X113577040Y-73444134D01*
X113583119Y-73447383D01*
X113682082Y-73477403D01*
X113785000Y-73487540D01*
X115035000Y-73487540D01*
X115060788Y-73485000D01*
X115442960Y-73485000D01*
X115442960Y-74884000D01*
X115453097Y-74986918D01*
X115483117Y-75085881D01*
X115531867Y-75177086D01*
X115597473Y-75257027D01*
X115677414Y-75322633D01*
X115768619Y-75371383D01*
X115867582Y-75401403D01*
X115970500Y-75411540D01*
X117621500Y-75411540D01*
X117724418Y-75401403D01*
X117785000Y-75383026D01*
X117785000Y-93535000D01*
X115835000Y-93535000D01*
X115835000Y-85360000D01*
X115832598Y-85335614D01*
X115825485Y-85312165D01*
X115813934Y-85290554D01*
X115798388Y-85271612D01*
X115779446Y-85256066D01*
X115757835Y-85244515D01*
X115734386Y-85237402D01*
X115710000Y-85235000D01*
X112437540Y-85235000D01*
X112437540Y-84135000D01*
X112435000Y-84109212D01*
X112435000Y-83660000D01*
X112432598Y-83635614D01*
X112425485Y-83612165D01*
X112413934Y-83590554D01*
X112398388Y-83571612D01*
X112379446Y-83556066D01*
X112357835Y-83544515D01*
X112334386Y-83537402D01*
X112310000Y-83535000D01*
X108579735Y-83535000D01*
X108579735Y-82485000D01*
X108978750Y-82485000D01*
X109085000Y-82378750D01*
X109085000Y-81685000D01*
X109335000Y-81685000D01*
X109335000Y-82378750D01*
X109441250Y-82485000D01*
X109876859Y-82485000D01*
X109958968Y-82468668D01*
X110036313Y-82436630D01*
X110105922Y-82390119D01*
X110165119Y-82330922D01*
X110211630Y-82261313D01*
X110243667Y-82183968D01*
X110260000Y-82101859D01*
X110260000Y-81791250D01*
X110153750Y-81685000D01*
X109335000Y-81685000D01*
X109085000Y-81685000D01*
X109065000Y-81685000D01*
X109065000Y-81435000D01*
X109085000Y-81435000D01*
X109085000Y-80741250D01*
X109335000Y-80741250D01*
X109335000Y-81435000D01*
X110153750Y-81435000D01*
X110260000Y-81328750D01*
X110260000Y-81018141D01*
X110243667Y-80936032D01*
X110211630Y-80858687D01*
X110165119Y-80789078D01*
X110105922Y-80729881D01*
X110036313Y-80683370D01*
X109958968Y-80651332D01*
X109876859Y-80635000D01*
X109441250Y-80635000D01*
X109335000Y-80741250D01*
X109085000Y-80741250D01*
X108978750Y-80635000D01*
X108579735Y-80635000D01*
X108579735Y-80587021D01*
X108585000Y-80587540D01*
X109835000Y-80587540D01*
X109937918Y-80577403D01*
X110036881Y-80547383D01*
X110128086Y-80498633D01*
X110208027Y-80433027D01*
X110273633Y-80353086D01*
X110322383Y-80261881D01*
X110352403Y-80162918D01*
X110362540Y-80060000D01*
X110362540Y-79060000D01*
X110352403Y-78957082D01*
X110322383Y-78858119D01*
X110273633Y-78766914D01*
X110208027Y-78686973D01*
X110128086Y-78621367D01*
X110036881Y-78572617D01*
X109937918Y-78542597D01*
X109835000Y-78532460D01*
X108585000Y-78532460D01*
X108579735Y-78532979D01*
X108579735Y-78344011D01*
X109971034Y-76952711D01*
X110009271Y-76906160D01*
X110047974Y-76860036D01*
X110049626Y-76857031D01*
X110051802Y-76854382D01*
X110080261Y-76801307D01*
X110109276Y-76748528D01*
X110110313Y-76745260D01*
X110111933Y-76742238D01*
X110129551Y-76684612D01*
X110147752Y-76627236D01*
X110148134Y-76623832D01*
X110149137Y-76620551D01*
X110155233Y-76560545D01*
X110161936Y-76500781D01*
X110161983Y-76494090D01*
X110161997Y-76493953D01*
X110161985Y-76493825D01*
X110162000Y-76491678D01*
X110162000Y-74062084D01*
X110870960Y-73353123D01*
X110870960Y-74884000D01*
X110870960Y-74884000D01*
G37*
X110870960Y-74884000D02*
X110881097Y-74986918D01*
X110911117Y-75085881D01*
X110959867Y-75177086D01*
X111025473Y-75257027D01*
X111105414Y-75322633D01*
X111196619Y-75371383D01*
X111295582Y-75401403D01*
X111398500Y-75411540D01*
X113049500Y-75411540D01*
X113152418Y-75401403D01*
X113251381Y-75371383D01*
X113342586Y-75322633D01*
X113422527Y-75257027D01*
X113488133Y-75177086D01*
X113536883Y-75085881D01*
X113566903Y-74986918D01*
X113577040Y-74884000D01*
X113577040Y-73444134D01*
X113583119Y-73447383D01*
X113682082Y-73477403D01*
X113785000Y-73487540D01*
X115035000Y-73487540D01*
X115060788Y-73485000D01*
X115442960Y-73485000D01*
X115442960Y-74884000D01*
X115453097Y-74986918D01*
X115483117Y-75085881D01*
X115531867Y-75177086D01*
X115597473Y-75257027D01*
X115677414Y-75322633D01*
X115768619Y-75371383D01*
X115867582Y-75401403D01*
X115970500Y-75411540D01*
X117621500Y-75411540D01*
X117724418Y-75401403D01*
X117785000Y-75383026D01*
X117785000Y-93535000D01*
X115835000Y-93535000D01*
X115835000Y-85360000D01*
X115832598Y-85335614D01*
X115825485Y-85312165D01*
X115813934Y-85290554D01*
X115798388Y-85271612D01*
X115779446Y-85256066D01*
X115757835Y-85244515D01*
X115734386Y-85237402D01*
X115710000Y-85235000D01*
X112437540Y-85235000D01*
X112437540Y-84135000D01*
X112435000Y-84109212D01*
X112435000Y-83660000D01*
X112432598Y-83635614D01*
X112425485Y-83612165D01*
X112413934Y-83590554D01*
X112398388Y-83571612D01*
X112379446Y-83556066D01*
X112357835Y-83544515D01*
X112334386Y-83537402D01*
X112310000Y-83535000D01*
X108579735Y-83535000D01*
X108579735Y-82485000D01*
X108978750Y-82485000D01*
X109085000Y-82378750D01*
X109085000Y-81685000D01*
X109335000Y-81685000D01*
X109335000Y-82378750D01*
X109441250Y-82485000D01*
X109876859Y-82485000D01*
X109958968Y-82468668D01*
X110036313Y-82436630D01*
X110105922Y-82390119D01*
X110165119Y-82330922D01*
X110211630Y-82261313D01*
X110243667Y-82183968D01*
X110260000Y-82101859D01*
X110260000Y-81791250D01*
X110153750Y-81685000D01*
X109335000Y-81685000D01*
X109085000Y-81685000D01*
X109065000Y-81685000D01*
X109065000Y-81435000D01*
X109085000Y-81435000D01*
X109085000Y-80741250D01*
X109335000Y-80741250D01*
X109335000Y-81435000D01*
X110153750Y-81435000D01*
X110260000Y-81328750D01*
X110260000Y-81018141D01*
X110243667Y-80936032D01*
X110211630Y-80858687D01*
X110165119Y-80789078D01*
X110105922Y-80729881D01*
X110036313Y-80683370D01*
X109958968Y-80651332D01*
X109876859Y-80635000D01*
X109441250Y-80635000D01*
X109335000Y-80741250D01*
X109085000Y-80741250D01*
X108978750Y-80635000D01*
X108579735Y-80635000D01*
X108579735Y-80587021D01*
X108585000Y-80587540D01*
X109835000Y-80587540D01*
X109937918Y-80577403D01*
X110036881Y-80547383D01*
X110128086Y-80498633D01*
X110208027Y-80433027D01*
X110273633Y-80353086D01*
X110322383Y-80261881D01*
X110352403Y-80162918D01*
X110362540Y-80060000D01*
X110362540Y-79060000D01*
X110352403Y-78957082D01*
X110322383Y-78858119D01*
X110273633Y-78766914D01*
X110208027Y-78686973D01*
X110128086Y-78621367D01*
X110036881Y-78572617D01*
X109937918Y-78542597D01*
X109835000Y-78532460D01*
X108585000Y-78532460D01*
X108579735Y-78532979D01*
X108579735Y-78344011D01*
X109971034Y-76952711D01*
X110009271Y-76906160D01*
X110047974Y-76860036D01*
X110049626Y-76857031D01*
X110051802Y-76854382D01*
X110080261Y-76801307D01*
X110109276Y-76748528D01*
X110110313Y-76745260D01*
X110111933Y-76742238D01*
X110129551Y-76684612D01*
X110147752Y-76627236D01*
X110148134Y-76623832D01*
X110149137Y-76620551D01*
X110155233Y-76560545D01*
X110161936Y-76500781D01*
X110161983Y-76494090D01*
X110161997Y-76493953D01*
X110161985Y-76493825D01*
X110162000Y-76491678D01*
X110162000Y-74062084D01*
X110870960Y-73353123D01*
X110870960Y-74884000D01*
G36*
X117785000Y-106835000D02*
X100498600Y-106835000D01*
X100498600Y-105791250D01*
X100392350Y-105685000D01*
X99335000Y-105685000D01*
X99335000Y-105705000D01*
X99085000Y-105705000D01*
X99085000Y-105685000D01*
X99065000Y-105685000D01*
X99065000Y-105435000D01*
X99085000Y-105435000D01*
X99085000Y-105415000D01*
X99335000Y-105415000D01*
X99335000Y-105435000D01*
X100392350Y-105435000D01*
X100498600Y-105328750D01*
X100498600Y-104370668D01*
X102125388Y-105997455D01*
X102171957Y-106035707D01*
X102218064Y-106074396D01*
X102221066Y-106076046D01*
X102223717Y-106078224D01*
X102276833Y-106106705D01*
X102329572Y-106135698D01*
X102332838Y-106136734D01*
X102335861Y-106138355D01*
X102393502Y-106155978D01*
X102450864Y-106174174D01*
X102454268Y-106174556D01*
X102457549Y-106175559D01*
X102517515Y-106181650D01*
X102577319Y-106188358D01*
X102584019Y-106188405D01*
X102584146Y-106188418D01*
X102584264Y-106188407D01*
X102586422Y-106188422D01*
X112081880Y-106188422D01*
X112141833Y-106182544D01*
X112201817Y-106177296D01*
X112205109Y-106176340D01*
X112208521Y-106176005D01*
X112266163Y-106158602D01*
X112324012Y-106141795D01*
X112327057Y-106140217D01*
X112330338Y-106139226D01*
X112383513Y-106110952D01*
X112436985Y-106083235D01*
X112439664Y-106081097D01*
X112442691Y-106079487D01*
X112489386Y-106041404D01*
X112536432Y-106003847D01*
X112541204Y-105999142D01*
X112541302Y-105999062D01*
X112541377Y-105998972D01*
X112542914Y-105997456D01*
X112592766Y-105947604D01*
X112739649Y-105921704D01*
X112893690Y-105861956D01*
X113033192Y-105773425D01*
X113152842Y-105659484D01*
X113248082Y-105524473D01*
X113315284Y-105373535D01*
X113351888Y-105212418D01*
X113354524Y-105023703D01*
X113338705Y-104943811D01*
X113725721Y-104943811D01*
X113771720Y-104981595D01*
X113817827Y-105020284D01*
X113820829Y-105021934D01*
X113823480Y-105024112D01*
X113876596Y-105052593D01*
X113929335Y-105081586D01*
X113932601Y-105082622D01*
X113935624Y-105084243D01*
X113993265Y-105101866D01*
X114050627Y-105120062D01*
X114054031Y-105120444D01*
X114057312Y-105121447D01*
X114083734Y-105124131D01*
X114086514Y-105127010D01*
X114222187Y-105221305D01*
X114373591Y-105287452D01*
X114534959Y-105322931D01*
X114700145Y-105326391D01*
X114862858Y-105297700D01*
X115016899Y-105237952D01*
X115156401Y-105149421D01*
X115276051Y-105035480D01*
X115371291Y-104900469D01*
X115438493Y-104749531D01*
X115475097Y-104588414D01*
X115476164Y-104512000D01*
X116110000Y-104512000D01*
X116169953Y-104506122D01*
X116229937Y-104500874D01*
X116233229Y-104499918D01*
X116236641Y-104499583D01*
X116294283Y-104482180D01*
X116352132Y-104465373D01*
X116355177Y-104463795D01*
X116358458Y-104462804D01*
X116411633Y-104434530D01*
X116465105Y-104406813D01*
X116467784Y-104404675D01*
X116470811Y-104403065D01*
X116517506Y-104364982D01*
X116564552Y-104327425D01*
X116569324Y-104322720D01*
X116569422Y-104322640D01*
X116569497Y-104322550D01*
X116571034Y-104321034D01*
X117216152Y-103675915D01*
X117299267Y-103684944D01*
X117498550Y-103667508D01*
X117690653Y-103611698D01*
X117785000Y-103562793D01*
X117785000Y-106835000D01*
X117785000Y-106835000D01*
G37*
X117785000Y-106835000D02*
X100498600Y-106835000D01*
X100498600Y-105791250D01*
X100392350Y-105685000D01*
X99335000Y-105685000D01*
X99335000Y-105705000D01*
X99085000Y-105705000D01*
X99085000Y-105685000D01*
X99065000Y-105685000D01*
X99065000Y-105435000D01*
X99085000Y-105435000D01*
X99085000Y-105415000D01*
X99335000Y-105415000D01*
X99335000Y-105435000D01*
X100392350Y-105435000D01*
X100498600Y-105328750D01*
X100498600Y-104370668D01*
X102125388Y-105997455D01*
X102171957Y-106035707D01*
X102218064Y-106074396D01*
X102221066Y-106076046D01*
X102223717Y-106078224D01*
X102276833Y-106106705D01*
X102329572Y-106135698D01*
X102332838Y-106136734D01*
X102335861Y-106138355D01*
X102393502Y-106155978D01*
X102450864Y-106174174D01*
X102454268Y-106174556D01*
X102457549Y-106175559D01*
X102517515Y-106181650D01*
X102577319Y-106188358D01*
X102584019Y-106188405D01*
X102584146Y-106188418D01*
X102584264Y-106188407D01*
X102586422Y-106188422D01*
X112081880Y-106188422D01*
X112141833Y-106182544D01*
X112201817Y-106177296D01*
X112205109Y-106176340D01*
X112208521Y-106176005D01*
X112266163Y-106158602D01*
X112324012Y-106141795D01*
X112327057Y-106140217D01*
X112330338Y-106139226D01*
X112383513Y-106110952D01*
X112436985Y-106083235D01*
X112439664Y-106081097D01*
X112442691Y-106079487D01*
X112489386Y-106041404D01*
X112536432Y-106003847D01*
X112541204Y-105999142D01*
X112541302Y-105999062D01*
X112541377Y-105998972D01*
X112542914Y-105997456D01*
X112592766Y-105947604D01*
X112739649Y-105921704D01*
X112893690Y-105861956D01*
X113033192Y-105773425D01*
X113152842Y-105659484D01*
X113248082Y-105524473D01*
X113315284Y-105373535D01*
X113351888Y-105212418D01*
X113354524Y-105023703D01*
X113338705Y-104943811D01*
X113725721Y-104943811D01*
X113771720Y-104981595D01*
X113817827Y-105020284D01*
X113820829Y-105021934D01*
X113823480Y-105024112D01*
X113876596Y-105052593D01*
X113929335Y-105081586D01*
X113932601Y-105082622D01*
X113935624Y-105084243D01*
X113993265Y-105101866D01*
X114050627Y-105120062D01*
X114054031Y-105120444D01*
X114057312Y-105121447D01*
X114083734Y-105124131D01*
X114086514Y-105127010D01*
X114222187Y-105221305D01*
X114373591Y-105287452D01*
X114534959Y-105322931D01*
X114700145Y-105326391D01*
X114862858Y-105297700D01*
X115016899Y-105237952D01*
X115156401Y-105149421D01*
X115276051Y-105035480D01*
X115371291Y-104900469D01*
X115438493Y-104749531D01*
X115475097Y-104588414D01*
X115476164Y-104512000D01*
X116110000Y-104512000D01*
X116169953Y-104506122D01*
X116229937Y-104500874D01*
X116233229Y-104499918D01*
X116236641Y-104499583D01*
X116294283Y-104482180D01*
X116352132Y-104465373D01*
X116355177Y-104463795D01*
X116358458Y-104462804D01*
X116411633Y-104434530D01*
X116465105Y-104406813D01*
X116467784Y-104404675D01*
X116470811Y-104403065D01*
X116517506Y-104364982D01*
X116564552Y-104327425D01*
X116569324Y-104322720D01*
X116569422Y-104322640D01*
X116569497Y-104322550D01*
X116571034Y-104321034D01*
X117216152Y-103675915D01*
X117299267Y-103684944D01*
X117498550Y-103667508D01*
X117690653Y-103611698D01*
X117785000Y-103562793D01*
X117785000Y-106835000D01*
G36*
X106514996Y-103636075D02*
X106519544Y-103639811D01*
X105111204Y-103639811D01*
X105131216Y-103627111D01*
X105250866Y-103513170D01*
X105346106Y-103378159D01*
X105413308Y-103227221D01*
X105449912Y-103066104D01*
X105452548Y-102877389D01*
X105420456Y-102715313D01*
X105357494Y-102562557D01*
X105266061Y-102424939D01*
X105262012Y-102420862D01*
X105262012Y-102383092D01*
X106514996Y-103636075D01*
X106514996Y-103636075D01*
G37*
X106514996Y-103636075D02*
X106519544Y-103639811D01*
X105111204Y-103639811D01*
X105131216Y-103627111D01*
X105250866Y-103513170D01*
X105346106Y-103378159D01*
X105413308Y-103227221D01*
X105449912Y-103066104D01*
X105452548Y-102877389D01*
X105420456Y-102715313D01*
X105357494Y-102562557D01*
X105266061Y-102424939D01*
X105262012Y-102420862D01*
X105262012Y-102383092D01*
X106514996Y-103636075D01*
G36*
X111758000Y-95930068D02*
X111758000Y-99285000D01*
X111763878Y-99344953D01*
X111769126Y-99404937D01*
X111770082Y-99408229D01*
X111770417Y-99411641D01*
X111787820Y-99469283D01*
X111804627Y-99527132D01*
X111806205Y-99530177D01*
X111807196Y-99533458D01*
X111835470Y-99586633D01*
X111863187Y-99640105D01*
X111865325Y-99642784D01*
X111866935Y-99645811D01*
X111905018Y-99692506D01*
X111942575Y-99739552D01*
X111947280Y-99744324D01*
X111947360Y-99744422D01*
X111947450Y-99744497D01*
X111948966Y-99746034D01*
X113282460Y-101079527D01*
X113282460Y-103185000D01*
X113284725Y-103208000D01*
X109830068Y-103208000D01*
X109359608Y-102737540D01*
X109510000Y-102737540D01*
X109612918Y-102727403D01*
X109711881Y-102697383D01*
X109803086Y-102648633D01*
X109883027Y-102583027D01*
X109948633Y-102503086D01*
X109997383Y-102411881D01*
X110027403Y-102312918D01*
X110037540Y-102210000D01*
X110037540Y-100910000D01*
X110027403Y-100807082D01*
X109997383Y-100708119D01*
X109948633Y-100616914D01*
X109938773Y-100604900D01*
X109951546Y-100598073D01*
X110031487Y-100532467D01*
X110097093Y-100452526D01*
X110145843Y-100361321D01*
X110175863Y-100262358D01*
X110186000Y-100159440D01*
X110186000Y-100149468D01*
X110214093Y-100134530D01*
X110267565Y-100106813D01*
X110270244Y-100104675D01*
X110273271Y-100103065D01*
X110319966Y-100064982D01*
X110367012Y-100027425D01*
X110371784Y-100022720D01*
X110371882Y-100022640D01*
X110371957Y-100022550D01*
X110373494Y-100021034D01*
X110707645Y-99686882D01*
X110745897Y-99640313D01*
X110784586Y-99594206D01*
X110786236Y-99591204D01*
X110788414Y-99588553D01*
X110816895Y-99535437D01*
X110845888Y-99482698D01*
X110846924Y-99479432D01*
X110848545Y-99476409D01*
X110866168Y-99418768D01*
X110884364Y-99361406D01*
X110884746Y-99358002D01*
X110885749Y-99354721D01*
X110891840Y-99294755D01*
X110898548Y-99234951D01*
X110898595Y-99228251D01*
X110898608Y-99228124D01*
X110898597Y-99228006D01*
X110898612Y-99225848D01*
X110898612Y-95070680D01*
X111758000Y-95930068D01*
X111758000Y-95930068D01*
G37*
X111758000Y-95930068D02*
X111758000Y-99285000D01*
X111763878Y-99344953D01*
X111769126Y-99404937D01*
X111770082Y-99408229D01*
X111770417Y-99411641D01*
X111787820Y-99469283D01*
X111804627Y-99527132D01*
X111806205Y-99530177D01*
X111807196Y-99533458D01*
X111835470Y-99586633D01*
X111863187Y-99640105D01*
X111865325Y-99642784D01*
X111866935Y-99645811D01*
X111905018Y-99692506D01*
X111942575Y-99739552D01*
X111947280Y-99744324D01*
X111947360Y-99744422D01*
X111947450Y-99744497D01*
X111948966Y-99746034D01*
X113282460Y-101079527D01*
X113282460Y-103185000D01*
X113284725Y-103208000D01*
X109830068Y-103208000D01*
X109359608Y-102737540D01*
X109510000Y-102737540D01*
X109612918Y-102727403D01*
X109711881Y-102697383D01*
X109803086Y-102648633D01*
X109883027Y-102583027D01*
X109948633Y-102503086D01*
X109997383Y-102411881D01*
X110027403Y-102312918D01*
X110037540Y-102210000D01*
X110037540Y-100910000D01*
X110027403Y-100807082D01*
X109997383Y-100708119D01*
X109948633Y-100616914D01*
X109938773Y-100604900D01*
X109951546Y-100598073D01*
X110031487Y-100532467D01*
X110097093Y-100452526D01*
X110145843Y-100361321D01*
X110175863Y-100262358D01*
X110186000Y-100159440D01*
X110186000Y-100149468D01*
X110214093Y-100134530D01*
X110267565Y-100106813D01*
X110270244Y-100104675D01*
X110273271Y-100103065D01*
X110319966Y-100064982D01*
X110367012Y-100027425D01*
X110371784Y-100022720D01*
X110371882Y-100022640D01*
X110371957Y-100022550D01*
X110373494Y-100021034D01*
X110707645Y-99686882D01*
X110745897Y-99640313D01*
X110784586Y-99594206D01*
X110786236Y-99591204D01*
X110788414Y-99588553D01*
X110816895Y-99535437D01*
X110845888Y-99482698D01*
X110846924Y-99479432D01*
X110848545Y-99476409D01*
X110866168Y-99418768D01*
X110884364Y-99361406D01*
X110884746Y-99358002D01*
X110885749Y-99354721D01*
X110891840Y-99294755D01*
X110898548Y-99234951D01*
X110898595Y-99228251D01*
X110898608Y-99228124D01*
X110898597Y-99228006D01*
X110898612Y-99225848D01*
X110898612Y-95070680D01*
X111758000Y-95930068D01*
G36*
X110102360Y-90135100D02*
X110101859Y-90135000D01*
X109641250Y-90135000D01*
X109535000Y-90241250D01*
X109535000Y-91435000D01*
X110378750Y-91435000D01*
X110485000Y-91328750D01*
X110485000Y-90518141D01*
X110484900Y-90517640D01*
X110632460Y-90665199D01*
X110632460Y-92560000D01*
X110642597Y-92662918D01*
X110672617Y-92761881D01*
X110721367Y-92853086D01*
X110786973Y-92933027D01*
X110866914Y-92998633D01*
X110958119Y-93047383D01*
X111057082Y-93077403D01*
X111160000Y-93087540D01*
X112065472Y-93087540D01*
X112848966Y-93871033D01*
X112895535Y-93909285D01*
X112941642Y-93947974D01*
X112944644Y-93949624D01*
X112947295Y-93951802D01*
X113000411Y-93980283D01*
X113053150Y-94009276D01*
X113056416Y-94010312D01*
X113059439Y-94011933D01*
X113117080Y-94029556D01*
X113174442Y-94047752D01*
X113177846Y-94048134D01*
X113181127Y-94049137D01*
X113238733Y-94054988D01*
X113291914Y-94098633D01*
X113383119Y-94147383D01*
X113482082Y-94177403D01*
X113567596Y-94185826D01*
X113539078Y-94204881D01*
X113479881Y-94264078D01*
X113433370Y-94333687D01*
X113401333Y-94411032D01*
X113385000Y-94493141D01*
X113385000Y-95553750D01*
X113491250Y-95660000D01*
X114685000Y-95660000D01*
X114685000Y-95640000D01*
X114935000Y-95640000D01*
X114935000Y-95660000D01*
X116128750Y-95660000D01*
X116235000Y-95553750D01*
X116235000Y-94493141D01*
X116233381Y-94485000D01*
X116385000Y-94485000D01*
X116385000Y-102226390D01*
X116363709Y-102266097D01*
X116337540Y-102351693D01*
X116337540Y-100685000D01*
X116327403Y-100582082D01*
X116297383Y-100483119D01*
X116248633Y-100391914D01*
X116183027Y-100311973D01*
X116103086Y-100246367D01*
X116011881Y-100197617D01*
X115912918Y-100167597D01*
X115810000Y-100157460D01*
X114204527Y-100157460D01*
X113062000Y-99014932D01*
X113062000Y-96016250D01*
X113385000Y-96016250D01*
X113385000Y-97076859D01*
X113401333Y-97158968D01*
X113433370Y-97236313D01*
X113479881Y-97305922D01*
X113539078Y-97365119D01*
X113608687Y-97411630D01*
X113686032Y-97443668D01*
X113768141Y-97460000D01*
X114578750Y-97460000D01*
X114685000Y-97353750D01*
X114685000Y-95910000D01*
X114935000Y-95910000D01*
X114935000Y-97353750D01*
X115041250Y-97460000D01*
X115851859Y-97460000D01*
X115933968Y-97443668D01*
X116011313Y-97411630D01*
X116080922Y-97365119D01*
X116140119Y-97305922D01*
X116186630Y-97236313D01*
X116218667Y-97158968D01*
X116235000Y-97076859D01*
X116235000Y-96016250D01*
X116128750Y-95910000D01*
X114935000Y-95910000D01*
X114685000Y-95910000D01*
X113491250Y-95910000D01*
X113385000Y-96016250D01*
X113062000Y-96016250D01*
X113062000Y-95660000D01*
X113056122Y-95600047D01*
X113050874Y-95540063D01*
X113049918Y-95536771D01*
X113049583Y-95533359D01*
X113032180Y-95475717D01*
X113015373Y-95417868D01*
X113013795Y-95414823D01*
X113012804Y-95411542D01*
X112984530Y-95358367D01*
X112956813Y-95304895D01*
X112954675Y-95302216D01*
X112953065Y-95299189D01*
X112914962Y-95252470D01*
X112877425Y-95205449D01*
X112872721Y-95200677D01*
X112872640Y-95200578D01*
X112872549Y-95200502D01*
X112871034Y-95198966D01*
X110671034Y-92998966D01*
X110624425Y-92960681D01*
X110578358Y-92922026D01*
X110575356Y-92920376D01*
X110572705Y-92918198D01*
X110519608Y-92889728D01*
X110466850Y-92860724D01*
X110463582Y-92859687D01*
X110460560Y-92858067D01*
X110402934Y-92840449D01*
X110385973Y-92835068D01*
X110390119Y-92830922D01*
X110436630Y-92761313D01*
X110468667Y-92683968D01*
X110485000Y-92601859D01*
X110485000Y-91791250D01*
X110378750Y-91685000D01*
X109535000Y-91685000D01*
X109535000Y-91705000D01*
X109285000Y-91705000D01*
X109285000Y-91685000D01*
X109265000Y-91685000D01*
X109265000Y-91435000D01*
X109285000Y-91435000D01*
X109285000Y-90241250D01*
X109178750Y-90135000D01*
X108825622Y-90135000D01*
X108825622Y-89812000D01*
X109779260Y-89812000D01*
X110102360Y-90135100D01*
X110102360Y-90135100D01*
G37*
X110102360Y-90135100D02*
X110101859Y-90135000D01*
X109641250Y-90135000D01*
X109535000Y-90241250D01*
X109535000Y-91435000D01*
X110378750Y-91435000D01*
X110485000Y-91328750D01*
X110485000Y-90518141D01*
X110484900Y-90517640D01*
X110632460Y-90665199D01*
X110632460Y-92560000D01*
X110642597Y-92662918D01*
X110672617Y-92761881D01*
X110721367Y-92853086D01*
X110786973Y-92933027D01*
X110866914Y-92998633D01*
X110958119Y-93047383D01*
X111057082Y-93077403D01*
X111160000Y-93087540D01*
X112065472Y-93087540D01*
X112848966Y-93871033D01*
X112895535Y-93909285D01*
X112941642Y-93947974D01*
X112944644Y-93949624D01*
X112947295Y-93951802D01*
X113000411Y-93980283D01*
X113053150Y-94009276D01*
X113056416Y-94010312D01*
X113059439Y-94011933D01*
X113117080Y-94029556D01*
X113174442Y-94047752D01*
X113177846Y-94048134D01*
X113181127Y-94049137D01*
X113238733Y-94054988D01*
X113291914Y-94098633D01*
X113383119Y-94147383D01*
X113482082Y-94177403D01*
X113567596Y-94185826D01*
X113539078Y-94204881D01*
X113479881Y-94264078D01*
X113433370Y-94333687D01*
X113401333Y-94411032D01*
X113385000Y-94493141D01*
X113385000Y-95553750D01*
X113491250Y-95660000D01*
X114685000Y-95660000D01*
X114685000Y-95640000D01*
X114935000Y-95640000D01*
X114935000Y-95660000D01*
X116128750Y-95660000D01*
X116235000Y-95553750D01*
X116235000Y-94493141D01*
X116233381Y-94485000D01*
X116385000Y-94485000D01*
X116385000Y-102226390D01*
X116363709Y-102266097D01*
X116337540Y-102351693D01*
X116337540Y-100685000D01*
X116327403Y-100582082D01*
X116297383Y-100483119D01*
X116248633Y-100391914D01*
X116183027Y-100311973D01*
X116103086Y-100246367D01*
X116011881Y-100197617D01*
X115912918Y-100167597D01*
X115810000Y-100157460D01*
X114204527Y-100157460D01*
X113062000Y-99014932D01*
X113062000Y-96016250D01*
X113385000Y-96016250D01*
X113385000Y-97076859D01*
X113401333Y-97158968D01*
X113433370Y-97236313D01*
X113479881Y-97305922D01*
X113539078Y-97365119D01*
X113608687Y-97411630D01*
X113686032Y-97443668D01*
X113768141Y-97460000D01*
X114578750Y-97460000D01*
X114685000Y-97353750D01*
X114685000Y-95910000D01*
X114935000Y-95910000D01*
X114935000Y-97353750D01*
X115041250Y-97460000D01*
X115851859Y-97460000D01*
X115933968Y-97443668D01*
X116011313Y-97411630D01*
X116080922Y-97365119D01*
X116140119Y-97305922D01*
X116186630Y-97236313D01*
X116218667Y-97158968D01*
X116235000Y-97076859D01*
X116235000Y-96016250D01*
X116128750Y-95910000D01*
X114935000Y-95910000D01*
X114685000Y-95910000D01*
X113491250Y-95910000D01*
X113385000Y-96016250D01*
X113062000Y-96016250D01*
X113062000Y-95660000D01*
X113056122Y-95600047D01*
X113050874Y-95540063D01*
X113049918Y-95536771D01*
X113049583Y-95533359D01*
X113032180Y-95475717D01*
X113015373Y-95417868D01*
X113013795Y-95414823D01*
X113012804Y-95411542D01*
X112984530Y-95358367D01*
X112956813Y-95304895D01*
X112954675Y-95302216D01*
X112953065Y-95299189D01*
X112914962Y-95252470D01*
X112877425Y-95205449D01*
X112872721Y-95200677D01*
X112872640Y-95200578D01*
X112872549Y-95200502D01*
X112871034Y-95198966D01*
X110671034Y-92998966D01*
X110624425Y-92960681D01*
X110578358Y-92922026D01*
X110575356Y-92920376D01*
X110572705Y-92918198D01*
X110519608Y-92889728D01*
X110466850Y-92860724D01*
X110463582Y-92859687D01*
X110460560Y-92858067D01*
X110402934Y-92840449D01*
X110385973Y-92835068D01*
X110390119Y-92830922D01*
X110436630Y-92761313D01*
X110468667Y-92683968D01*
X110485000Y-92601859D01*
X110485000Y-91791250D01*
X110378750Y-91685000D01*
X109535000Y-91685000D01*
X109535000Y-91705000D01*
X109285000Y-91705000D01*
X109285000Y-91685000D01*
X109265000Y-91685000D01*
X109265000Y-91435000D01*
X109285000Y-91435000D01*
X109285000Y-90241250D01*
X109178750Y-90135000D01*
X108825622Y-90135000D01*
X108825622Y-89812000D01*
X109779260Y-89812000D01*
X110102360Y-90135100D01*
G36*
X93088213Y-99060346D02*
X93258027Y-99271553D01*
X93465631Y-99445753D01*
X93703116Y-99576311D01*
X93953813Y-99655837D01*
X93853551Y-99692828D01*
X93640441Y-99823428D01*
X93456905Y-99993095D01*
X93309995Y-100195308D01*
X93205358Y-100422296D01*
X93176318Y-100518046D01*
X93247954Y-100715000D01*
X94285000Y-100715000D01*
X94285000Y-100695000D01*
X94535000Y-100695000D01*
X94535000Y-100715000D01*
X94555000Y-100715000D01*
X94555000Y-100965000D01*
X94535000Y-100965000D01*
X94535000Y-100985000D01*
X94285000Y-100985000D01*
X94285000Y-100965000D01*
X93247954Y-100965000D01*
X93176318Y-101161954D01*
X93205358Y-101257704D01*
X93309995Y-101484692D01*
X93376287Y-101575939D01*
X93355448Y-101592575D01*
X93350680Y-101597277D01*
X93350578Y-101597360D01*
X93350500Y-101597454D01*
X93348966Y-101598967D01*
X93035000Y-101912933D01*
X93035000Y-98958560D01*
X93088213Y-99060346D01*
X93088213Y-99060346D01*
G37*
X93088213Y-99060346D02*
X93258027Y-99271553D01*
X93465631Y-99445753D01*
X93703116Y-99576311D01*
X93953813Y-99655837D01*
X93853551Y-99692828D01*
X93640441Y-99823428D01*
X93456905Y-99993095D01*
X93309995Y-100195308D01*
X93205358Y-100422296D01*
X93176318Y-100518046D01*
X93247954Y-100715000D01*
X94285000Y-100715000D01*
X94285000Y-100695000D01*
X94535000Y-100695000D01*
X94535000Y-100715000D01*
X94555000Y-100715000D01*
X94555000Y-100965000D01*
X94535000Y-100965000D01*
X94535000Y-100985000D01*
X94285000Y-100985000D01*
X94285000Y-100965000D01*
X93247954Y-100965000D01*
X93176318Y-101161954D01*
X93205358Y-101257704D01*
X93309995Y-101484692D01*
X93376287Y-101575939D01*
X93355448Y-101592575D01*
X93350680Y-101597277D01*
X93350578Y-101597360D01*
X93350500Y-101597454D01*
X93348966Y-101598967D01*
X93035000Y-101912933D01*
X93035000Y-98958560D01*
X93088213Y-99060346D01*
G36*
X104685000Y-99235000D02*
X104705000Y-99235000D01*
X104705000Y-99485000D01*
X104685000Y-99485000D01*
X104685000Y-100328750D01*
X104791250Y-100435000D01*
X104826189Y-100435000D01*
X104826189Y-101664794D01*
X104262000Y-101100604D01*
X104262000Y-100435000D01*
X104328750Y-100435000D01*
X104435000Y-100328750D01*
X104435000Y-99485000D01*
X104415000Y-99485000D01*
X104415000Y-99235000D01*
X104435000Y-99235000D01*
X104435000Y-99215000D01*
X104685000Y-99215000D01*
X104685000Y-99235000D01*
X104685000Y-99235000D01*
G37*
X104685000Y-99235000D02*
X104705000Y-99235000D01*
X104705000Y-99485000D01*
X104685000Y-99485000D01*
X104685000Y-100328750D01*
X104791250Y-100435000D01*
X104826189Y-100435000D01*
X104826189Y-101664794D01*
X104262000Y-101100604D01*
X104262000Y-100435000D01*
X104328750Y-100435000D01*
X104435000Y-100328750D01*
X104435000Y-99485000D01*
X104415000Y-99485000D01*
X104415000Y-99235000D01*
X104435000Y-99235000D01*
X104435000Y-99215000D01*
X104685000Y-99215000D01*
X104685000Y-99235000D01*
G36*
X105182460Y-92875527D02*
X105182460Y-93785000D01*
X105192597Y-93887918D01*
X105222617Y-93986881D01*
X105271367Y-94078086D01*
X105336973Y-94158027D01*
X105416914Y-94223633D01*
X105508119Y-94272383D01*
X105607082Y-94302403D01*
X105710000Y-94312540D01*
X106710000Y-94312540D01*
X106812918Y-94302403D01*
X106863891Y-94286940D01*
X107009971Y-94433020D01*
X106361540Y-94433020D01*
X106258622Y-94443157D01*
X106159659Y-94473177D01*
X106068454Y-94521927D01*
X105988513Y-94587533D01*
X105922907Y-94667474D01*
X105874157Y-94758679D01*
X105844137Y-94857642D01*
X105834000Y-94960560D01*
X105834000Y-95161932D01*
X105671034Y-94998966D01*
X105624435Y-94960690D01*
X105578358Y-94922026D01*
X105575356Y-94920376D01*
X105572705Y-94918198D01*
X105519608Y-94889728D01*
X105466850Y-94860724D01*
X105463582Y-94859687D01*
X105460560Y-94858067D01*
X105402934Y-94840449D01*
X105345558Y-94822248D01*
X105342154Y-94821866D01*
X105338873Y-94820863D01*
X105278911Y-94814772D01*
X105219103Y-94808064D01*
X105212402Y-94808017D01*
X105212275Y-94808004D01*
X105212157Y-94808015D01*
X105210000Y-94808000D01*
X103790740Y-94808000D01*
X103612000Y-94629260D01*
X103612000Y-94198833D01*
X103668141Y-94210000D01*
X103978750Y-94210000D01*
X104085000Y-94103750D01*
X104085000Y-93285000D01*
X104335000Y-93285000D01*
X104335000Y-94103750D01*
X104441250Y-94210000D01*
X104751859Y-94210000D01*
X104833968Y-94193667D01*
X104911313Y-94161630D01*
X104980922Y-94115119D01*
X105040119Y-94055922D01*
X105086630Y-93986313D01*
X105118668Y-93908968D01*
X105135000Y-93826859D01*
X105135000Y-93391250D01*
X105028750Y-93285000D01*
X104335000Y-93285000D01*
X104085000Y-93285000D01*
X104065000Y-93285000D01*
X104065000Y-93035000D01*
X104085000Y-93035000D01*
X104085000Y-93015000D01*
X104335000Y-93015000D01*
X104335000Y-93035000D01*
X105028750Y-93035000D01*
X105135000Y-92928750D01*
X105135000Y-92828067D01*
X105182460Y-92875527D01*
X105182460Y-92875527D01*
G37*
X105182460Y-92875527D02*
X105182460Y-93785000D01*
X105192597Y-93887918D01*
X105222617Y-93986881D01*
X105271367Y-94078086D01*
X105336973Y-94158027D01*
X105416914Y-94223633D01*
X105508119Y-94272383D01*
X105607082Y-94302403D01*
X105710000Y-94312540D01*
X106710000Y-94312540D01*
X106812918Y-94302403D01*
X106863891Y-94286940D01*
X107009971Y-94433020D01*
X106361540Y-94433020D01*
X106258622Y-94443157D01*
X106159659Y-94473177D01*
X106068454Y-94521927D01*
X105988513Y-94587533D01*
X105922907Y-94667474D01*
X105874157Y-94758679D01*
X105844137Y-94857642D01*
X105834000Y-94960560D01*
X105834000Y-95161932D01*
X105671034Y-94998966D01*
X105624435Y-94960690D01*
X105578358Y-94922026D01*
X105575356Y-94920376D01*
X105572705Y-94918198D01*
X105519608Y-94889728D01*
X105466850Y-94860724D01*
X105463582Y-94859687D01*
X105460560Y-94858067D01*
X105402934Y-94840449D01*
X105345558Y-94822248D01*
X105342154Y-94821866D01*
X105338873Y-94820863D01*
X105278911Y-94814772D01*
X105219103Y-94808064D01*
X105212402Y-94808017D01*
X105212275Y-94808004D01*
X105212157Y-94808015D01*
X105210000Y-94808000D01*
X103790740Y-94808000D01*
X103612000Y-94629260D01*
X103612000Y-94198833D01*
X103668141Y-94210000D01*
X103978750Y-94210000D01*
X104085000Y-94103750D01*
X104085000Y-93285000D01*
X104335000Y-93285000D01*
X104335000Y-94103750D01*
X104441250Y-94210000D01*
X104751859Y-94210000D01*
X104833968Y-94193667D01*
X104911313Y-94161630D01*
X104980922Y-94115119D01*
X105040119Y-94055922D01*
X105086630Y-93986313D01*
X105118668Y-93908968D01*
X105135000Y-93826859D01*
X105135000Y-93391250D01*
X105028750Y-93285000D01*
X104335000Y-93285000D01*
X104085000Y-93285000D01*
X104065000Y-93285000D01*
X104065000Y-93035000D01*
X104085000Y-93035000D01*
X104085000Y-93015000D01*
X104335000Y-93015000D01*
X104335000Y-93035000D01*
X105028750Y-93035000D01*
X105135000Y-92928750D01*
X105135000Y-92828067D01*
X105182460Y-92875527D01*
G36*
X95894853Y-90348822D02*
X95856577Y-90395421D01*
X95817913Y-90441498D01*
X95816263Y-90444500D01*
X95814085Y-90447151D01*
X95785615Y-90500248D01*
X95756611Y-90553006D01*
X95755574Y-90556274D01*
X95753954Y-90559296D01*
X95736336Y-90616922D01*
X95718135Y-90674298D01*
X95717753Y-90677702D01*
X95716750Y-90680983D01*
X95710659Y-90740945D01*
X95703951Y-90800753D01*
X95703904Y-90807454D01*
X95703891Y-90807581D01*
X95703902Y-90807699D01*
X95703887Y-90809856D01*
X95703887Y-92033246D01*
X95696922Y-92026281D01*
X95627313Y-91979770D01*
X95549968Y-91947733D01*
X95467859Y-91931400D01*
X94641250Y-91931400D01*
X94535000Y-92037650D01*
X94535000Y-93095000D01*
X94555000Y-93095000D01*
X94555000Y-93345000D01*
X94535000Y-93345000D01*
X94535000Y-93365000D01*
X94285000Y-93365000D01*
X94285000Y-93345000D01*
X94265000Y-93345000D01*
X94265000Y-93095000D01*
X94285000Y-93095000D01*
X94285000Y-92037650D01*
X94178750Y-91931400D01*
X93352141Y-91931400D01*
X93270032Y-91947733D01*
X93192687Y-91979770D01*
X93123078Y-92026281D01*
X93063881Y-92085478D01*
X93035000Y-92128702D01*
X93035000Y-90836067D01*
X93069966Y-90871033D01*
X93116535Y-90909285D01*
X93162642Y-90947974D01*
X93165644Y-90949624D01*
X93168295Y-90951802D01*
X93221411Y-90980283D01*
X93274150Y-91009276D01*
X93277416Y-91010312D01*
X93280439Y-91011933D01*
X93338080Y-91029556D01*
X93395442Y-91047752D01*
X93398846Y-91048134D01*
X93402127Y-91049137D01*
X93435767Y-91052554D01*
X93491914Y-91098633D01*
X93583119Y-91147383D01*
X93682082Y-91177403D01*
X93785000Y-91187540D01*
X95035000Y-91187540D01*
X95137918Y-91177403D01*
X95236881Y-91147383D01*
X95328086Y-91098633D01*
X95408027Y-91033027D01*
X95473633Y-90953086D01*
X95522383Y-90861881D01*
X95552403Y-90762918D01*
X95562540Y-90660000D01*
X95562540Y-90179527D01*
X95580067Y-90162000D01*
X96081676Y-90162000D01*
X95894853Y-90348822D01*
X95894853Y-90348822D01*
G37*
X95894853Y-90348822D02*
X95856577Y-90395421D01*
X95817913Y-90441498D01*
X95816263Y-90444500D01*
X95814085Y-90447151D01*
X95785615Y-90500248D01*
X95756611Y-90553006D01*
X95755574Y-90556274D01*
X95753954Y-90559296D01*
X95736336Y-90616922D01*
X95718135Y-90674298D01*
X95717753Y-90677702D01*
X95716750Y-90680983D01*
X95710659Y-90740945D01*
X95703951Y-90800753D01*
X95703904Y-90807454D01*
X95703891Y-90807581D01*
X95703902Y-90807699D01*
X95703887Y-90809856D01*
X95703887Y-92033246D01*
X95696922Y-92026281D01*
X95627313Y-91979770D01*
X95549968Y-91947733D01*
X95467859Y-91931400D01*
X94641250Y-91931400D01*
X94535000Y-92037650D01*
X94535000Y-93095000D01*
X94555000Y-93095000D01*
X94555000Y-93345000D01*
X94535000Y-93345000D01*
X94535000Y-93365000D01*
X94285000Y-93365000D01*
X94285000Y-93345000D01*
X94265000Y-93345000D01*
X94265000Y-93095000D01*
X94285000Y-93095000D01*
X94285000Y-92037650D01*
X94178750Y-91931400D01*
X93352141Y-91931400D01*
X93270032Y-91947733D01*
X93192687Y-91979770D01*
X93123078Y-92026281D01*
X93063881Y-92085478D01*
X93035000Y-92128702D01*
X93035000Y-90836067D01*
X93069966Y-90871033D01*
X93116535Y-90909285D01*
X93162642Y-90947974D01*
X93165644Y-90949624D01*
X93168295Y-90951802D01*
X93221411Y-90980283D01*
X93274150Y-91009276D01*
X93277416Y-91010312D01*
X93280439Y-91011933D01*
X93338080Y-91029556D01*
X93395442Y-91047752D01*
X93398846Y-91048134D01*
X93402127Y-91049137D01*
X93435767Y-91052554D01*
X93491914Y-91098633D01*
X93583119Y-91147383D01*
X93682082Y-91177403D01*
X93785000Y-91187540D01*
X95035000Y-91187540D01*
X95137918Y-91177403D01*
X95236881Y-91147383D01*
X95328086Y-91098633D01*
X95408027Y-91033027D01*
X95473633Y-90953086D01*
X95522383Y-90861881D01*
X95552403Y-90762918D01*
X95562540Y-90660000D01*
X95562540Y-90179527D01*
X95580067Y-90162000D01*
X96081676Y-90162000D01*
X95894853Y-90348822D01*
G36*
X113097617Y-89861881D02*
X113146367Y-89953086D01*
X113211973Y-90033027D01*
X113291914Y-90098633D01*
X113383119Y-90147383D01*
X113482082Y-90177403D01*
X113585000Y-90187540D01*
X114835000Y-90187540D01*
X114885000Y-90182615D01*
X114885000Y-90236619D01*
X114876859Y-90235000D01*
X114441250Y-90235000D01*
X114335000Y-90341250D01*
X114335000Y-91035000D01*
X114355000Y-91035000D01*
X114355000Y-91285000D01*
X114335000Y-91285000D01*
X114335000Y-91978750D01*
X114441250Y-92085000D01*
X114876859Y-92085000D01*
X114885000Y-92083381D01*
X114885000Y-92137385D01*
X114835000Y-92132460D01*
X113585000Y-92132460D01*
X113482082Y-92142597D01*
X113383119Y-92172617D01*
X113291914Y-92221367D01*
X113211973Y-92286973D01*
X113165576Y-92343508D01*
X112987540Y-92165472D01*
X112987540Y-91391250D01*
X113160000Y-91391250D01*
X113160000Y-91701859D01*
X113176333Y-91783968D01*
X113208370Y-91861313D01*
X113254881Y-91930922D01*
X113314078Y-91990119D01*
X113383687Y-92036630D01*
X113461032Y-92068668D01*
X113543141Y-92085000D01*
X113978750Y-92085000D01*
X114085000Y-91978750D01*
X114085000Y-91285000D01*
X113266250Y-91285000D01*
X113160000Y-91391250D01*
X112987540Y-91391250D01*
X112987540Y-90618141D01*
X113160000Y-90618141D01*
X113160000Y-90928750D01*
X113266250Y-91035000D01*
X114085000Y-91035000D01*
X114085000Y-90341250D01*
X113978750Y-90235000D01*
X113543141Y-90235000D01*
X113461032Y-90251332D01*
X113383687Y-90283370D01*
X113314078Y-90329881D01*
X113254881Y-90389078D01*
X113208370Y-90458687D01*
X113176333Y-90536032D01*
X113160000Y-90618141D01*
X112987540Y-90618141D01*
X112987540Y-90560000D01*
X112977403Y-90457082D01*
X112947383Y-90358119D01*
X112898633Y-90266914D01*
X112833027Y-90186973D01*
X112753086Y-90121367D01*
X112661881Y-90072617D01*
X112562918Y-90042597D01*
X112460000Y-90032460D01*
X111843855Y-90032460D01*
X111623395Y-89812000D01*
X113082486Y-89812000D01*
X113097617Y-89861881D01*
X113097617Y-89861881D01*
G37*
X113097617Y-89861881D02*
X113146367Y-89953086D01*
X113211973Y-90033027D01*
X113291914Y-90098633D01*
X113383119Y-90147383D01*
X113482082Y-90177403D01*
X113585000Y-90187540D01*
X114835000Y-90187540D01*
X114885000Y-90182615D01*
X114885000Y-90236619D01*
X114876859Y-90235000D01*
X114441250Y-90235000D01*
X114335000Y-90341250D01*
X114335000Y-91035000D01*
X114355000Y-91035000D01*
X114355000Y-91285000D01*
X114335000Y-91285000D01*
X114335000Y-91978750D01*
X114441250Y-92085000D01*
X114876859Y-92085000D01*
X114885000Y-92083381D01*
X114885000Y-92137385D01*
X114835000Y-92132460D01*
X113585000Y-92132460D01*
X113482082Y-92142597D01*
X113383119Y-92172617D01*
X113291914Y-92221367D01*
X113211973Y-92286973D01*
X113165576Y-92343508D01*
X112987540Y-92165472D01*
X112987540Y-91391250D01*
X113160000Y-91391250D01*
X113160000Y-91701859D01*
X113176333Y-91783968D01*
X113208370Y-91861313D01*
X113254881Y-91930922D01*
X113314078Y-91990119D01*
X113383687Y-92036630D01*
X113461032Y-92068668D01*
X113543141Y-92085000D01*
X113978750Y-92085000D01*
X114085000Y-91978750D01*
X114085000Y-91285000D01*
X113266250Y-91285000D01*
X113160000Y-91391250D01*
X112987540Y-91391250D01*
X112987540Y-90618141D01*
X113160000Y-90618141D01*
X113160000Y-90928750D01*
X113266250Y-91035000D01*
X114085000Y-91035000D01*
X114085000Y-90341250D01*
X113978750Y-90235000D01*
X113543141Y-90235000D01*
X113461032Y-90251332D01*
X113383687Y-90283370D01*
X113314078Y-90329881D01*
X113254881Y-90389078D01*
X113208370Y-90458687D01*
X113176333Y-90536032D01*
X113160000Y-90618141D01*
X112987540Y-90618141D01*
X112987540Y-90560000D01*
X112977403Y-90457082D01*
X112947383Y-90358119D01*
X112898633Y-90266914D01*
X112833027Y-90186973D01*
X112753086Y-90121367D01*
X112661881Y-90072617D01*
X112562918Y-90042597D01*
X112460000Y-90032460D01*
X111843855Y-90032460D01*
X111623395Y-89812000D01*
X113082486Y-89812000D01*
X113097617Y-89861881D01*
G36*
X104392597Y-87237918D02*
X104399295Y-87260000D01*
X104392597Y-87282082D01*
X104382460Y-87385000D01*
X104382460Y-87635000D01*
X104392597Y-87737918D01*
X104399295Y-87760000D01*
X104392597Y-87782082D01*
X104382460Y-87885000D01*
X104382460Y-88135000D01*
X104392597Y-88237918D01*
X104399295Y-88260000D01*
X104392597Y-88282082D01*
X104382460Y-88385000D01*
X104382460Y-88635000D01*
X104392597Y-88737918D01*
X104399295Y-88760000D01*
X104392597Y-88782082D01*
X104382460Y-88885000D01*
X104382460Y-89135000D01*
X104392597Y-89237918D01*
X104399295Y-89260000D01*
X104392597Y-89282082D01*
X104382460Y-89385000D01*
X104382460Y-89635000D01*
X104392597Y-89737918D01*
X104422617Y-89836881D01*
X104471367Y-89928086D01*
X104536973Y-90008027D01*
X104616914Y-90073633D01*
X104708119Y-90122383D01*
X104807082Y-90152403D01*
X104910000Y-90162540D01*
X105669357Y-90162540D01*
X105668700Y-90165633D01*
X105668259Y-90197221D01*
X105668198Y-90197295D01*
X105639728Y-90250392D01*
X105610724Y-90303150D01*
X105609687Y-90306418D01*
X105608067Y-90309440D01*
X105590449Y-90367066D01*
X105572248Y-90424442D01*
X105571866Y-90427846D01*
X105570863Y-90431127D01*
X105564772Y-90491089D01*
X105558064Y-90550897D01*
X105558017Y-90557598D01*
X105558004Y-90557725D01*
X105558015Y-90557843D01*
X105558000Y-90560000D01*
X105558000Y-91406932D01*
X104800034Y-90648966D01*
X104753435Y-90610690D01*
X104707358Y-90572026D01*
X104704356Y-90570376D01*
X104701705Y-90568198D01*
X104648608Y-90539728D01*
X104612540Y-90519899D01*
X104612540Y-90460000D01*
X104602403Y-90357082D01*
X104572383Y-90258119D01*
X104523633Y-90166914D01*
X104458027Y-90086973D01*
X104378086Y-90021367D01*
X104286881Y-89972617D01*
X104187918Y-89942597D01*
X104085000Y-89932460D01*
X103835000Y-89932460D01*
X103732082Y-89942597D01*
X103633119Y-89972617D01*
X103541914Y-90021367D01*
X103461973Y-90086973D01*
X103460000Y-90089377D01*
X103458027Y-90086973D01*
X103378086Y-90021367D01*
X103286881Y-89972617D01*
X103187918Y-89942597D01*
X103085000Y-89932460D01*
X102835000Y-89932460D01*
X102732082Y-89942597D01*
X102710000Y-89949295D01*
X102687918Y-89942597D01*
X102585000Y-89932460D01*
X102549468Y-89932460D01*
X102534530Y-89904367D01*
X102506813Y-89850895D01*
X102504675Y-89848216D01*
X102503065Y-89845189D01*
X102464982Y-89798494D01*
X102427425Y-89751448D01*
X102422720Y-89746676D01*
X102422640Y-89746578D01*
X102422550Y-89746503D01*
X102421034Y-89744966D01*
X102152309Y-89476241D01*
X102120444Y-89315313D01*
X102057482Y-89162557D01*
X101966049Y-89024939D01*
X101849628Y-88907702D01*
X101712652Y-88815311D01*
X101639699Y-88784644D01*
X101639699Y-87301248D01*
X101774948Y-87304081D01*
X101937661Y-87275390D01*
X102091702Y-87215642D01*
X102176228Y-87162000D01*
X104385119Y-87162000D01*
X104392597Y-87237918D01*
X104392597Y-87237918D01*
G37*
X104392597Y-87237918D02*
X104399295Y-87260000D01*
X104392597Y-87282082D01*
X104382460Y-87385000D01*
X104382460Y-87635000D01*
X104392597Y-87737918D01*
X104399295Y-87760000D01*
X104392597Y-87782082D01*
X104382460Y-87885000D01*
X104382460Y-88135000D01*
X104392597Y-88237918D01*
X104399295Y-88260000D01*
X104392597Y-88282082D01*
X104382460Y-88385000D01*
X104382460Y-88635000D01*
X104392597Y-88737918D01*
X104399295Y-88760000D01*
X104392597Y-88782082D01*
X104382460Y-88885000D01*
X104382460Y-89135000D01*
X104392597Y-89237918D01*
X104399295Y-89260000D01*
X104392597Y-89282082D01*
X104382460Y-89385000D01*
X104382460Y-89635000D01*
X104392597Y-89737918D01*
X104422617Y-89836881D01*
X104471367Y-89928086D01*
X104536973Y-90008027D01*
X104616914Y-90073633D01*
X104708119Y-90122383D01*
X104807082Y-90152403D01*
X104910000Y-90162540D01*
X105669357Y-90162540D01*
X105668700Y-90165633D01*
X105668259Y-90197221D01*
X105668198Y-90197295D01*
X105639728Y-90250392D01*
X105610724Y-90303150D01*
X105609687Y-90306418D01*
X105608067Y-90309440D01*
X105590449Y-90367066D01*
X105572248Y-90424442D01*
X105571866Y-90427846D01*
X105570863Y-90431127D01*
X105564772Y-90491089D01*
X105558064Y-90550897D01*
X105558017Y-90557598D01*
X105558004Y-90557725D01*
X105558015Y-90557843D01*
X105558000Y-90560000D01*
X105558000Y-91406932D01*
X104800034Y-90648966D01*
X104753435Y-90610690D01*
X104707358Y-90572026D01*
X104704356Y-90570376D01*
X104701705Y-90568198D01*
X104648608Y-90539728D01*
X104612540Y-90519899D01*
X104612540Y-90460000D01*
X104602403Y-90357082D01*
X104572383Y-90258119D01*
X104523633Y-90166914D01*
X104458027Y-90086973D01*
X104378086Y-90021367D01*
X104286881Y-89972617D01*
X104187918Y-89942597D01*
X104085000Y-89932460D01*
X103835000Y-89932460D01*
X103732082Y-89942597D01*
X103633119Y-89972617D01*
X103541914Y-90021367D01*
X103461973Y-90086973D01*
X103460000Y-90089377D01*
X103458027Y-90086973D01*
X103378086Y-90021367D01*
X103286881Y-89972617D01*
X103187918Y-89942597D01*
X103085000Y-89932460D01*
X102835000Y-89932460D01*
X102732082Y-89942597D01*
X102710000Y-89949295D01*
X102687918Y-89942597D01*
X102585000Y-89932460D01*
X102549468Y-89932460D01*
X102534530Y-89904367D01*
X102506813Y-89850895D01*
X102504675Y-89848216D01*
X102503065Y-89845189D01*
X102464982Y-89798494D01*
X102427425Y-89751448D01*
X102422720Y-89746676D01*
X102422640Y-89746578D01*
X102422550Y-89746503D01*
X102421034Y-89744966D01*
X102152309Y-89476241D01*
X102120444Y-89315313D01*
X102057482Y-89162557D01*
X101966049Y-89024939D01*
X101849628Y-88907702D01*
X101712652Y-88815311D01*
X101639699Y-88784644D01*
X101639699Y-87301248D01*
X101774948Y-87304081D01*
X101937661Y-87275390D01*
X102091702Y-87215642D01*
X102176228Y-87162000D01*
X104385119Y-87162000D01*
X104392597Y-87237918D01*
G36*
X94972828Y-85593235D02*
X94907740Y-85745097D01*
X94873388Y-85906709D01*
X94871081Y-86071916D01*
X94900907Y-86234424D01*
X94961729Y-86388044D01*
X95051232Y-86526925D01*
X95062688Y-86538788D01*
X95062688Y-87235000D01*
X94641250Y-87235000D01*
X94535000Y-87341250D01*
X94535000Y-88035000D01*
X94555000Y-88035000D01*
X94555000Y-88285000D01*
X94535000Y-88285000D01*
X94535000Y-88978750D01*
X94641250Y-89085000D01*
X94812933Y-89085000D01*
X94765473Y-89132460D01*
X93785000Y-89132460D01*
X93682082Y-89142597D01*
X93662000Y-89148689D01*
X93662000Y-89068861D01*
X93743141Y-89085000D01*
X94178750Y-89085000D01*
X94285000Y-88978750D01*
X94285000Y-88285000D01*
X94265000Y-88285000D01*
X94265000Y-88035000D01*
X94285000Y-88035000D01*
X94285000Y-87341250D01*
X94178750Y-87235000D01*
X93743141Y-87235000D01*
X93662000Y-87251139D01*
X93662000Y-86880068D01*
X94871034Y-85671034D01*
X94909310Y-85624435D01*
X94940269Y-85587540D01*
X94976727Y-85587540D01*
X94972828Y-85593235D01*
X94972828Y-85593235D01*
G37*
X94972828Y-85593235D02*
X94907740Y-85745097D01*
X94873388Y-85906709D01*
X94871081Y-86071916D01*
X94900907Y-86234424D01*
X94961729Y-86388044D01*
X95051232Y-86526925D01*
X95062688Y-86538788D01*
X95062688Y-87235000D01*
X94641250Y-87235000D01*
X94535000Y-87341250D01*
X94535000Y-88035000D01*
X94555000Y-88035000D01*
X94555000Y-88285000D01*
X94535000Y-88285000D01*
X94535000Y-88978750D01*
X94641250Y-89085000D01*
X94812933Y-89085000D01*
X94765473Y-89132460D01*
X93785000Y-89132460D01*
X93682082Y-89142597D01*
X93662000Y-89148689D01*
X93662000Y-89068861D01*
X93743141Y-89085000D01*
X94178750Y-89085000D01*
X94285000Y-88978750D01*
X94285000Y-88285000D01*
X94265000Y-88285000D01*
X94265000Y-88035000D01*
X94285000Y-88035000D01*
X94285000Y-87341250D01*
X94178750Y-87235000D01*
X93743141Y-87235000D01*
X93662000Y-87251139D01*
X93662000Y-86880068D01*
X94871034Y-85671034D01*
X94909310Y-85624435D01*
X94940269Y-85587540D01*
X94976727Y-85587540D01*
X94972828Y-85593235D01*
G36*
X114485432Y-86235000D02*
X114441250Y-86235000D01*
X114335000Y-86341250D01*
X114335000Y-87035000D01*
X114355000Y-87035000D01*
X114355000Y-87285000D01*
X114335000Y-87285000D01*
X114335000Y-87978750D01*
X114441250Y-88085000D01*
X114876859Y-88085000D01*
X114885000Y-88083381D01*
X114885000Y-88137385D01*
X114835000Y-88132460D01*
X113585000Y-88132460D01*
X113482082Y-88142597D01*
X113383119Y-88172617D01*
X113291914Y-88221367D01*
X113211973Y-88286973D01*
X113146367Y-88366914D01*
X113097617Y-88458119D01*
X113082486Y-88508000D01*
X112885000Y-88508000D01*
X112885000Y-87791250D01*
X112778750Y-87685000D01*
X111935000Y-87685000D01*
X111935000Y-87705000D01*
X111685000Y-87705000D01*
X111685000Y-87685000D01*
X110841250Y-87685000D01*
X110735000Y-87791250D01*
X110735000Y-88062933D01*
X110587540Y-87915472D01*
X110587540Y-86560000D01*
X110583417Y-86518141D01*
X110735000Y-86518141D01*
X110735000Y-87328750D01*
X110841250Y-87435000D01*
X111685000Y-87435000D01*
X111685000Y-86241250D01*
X111935000Y-86241250D01*
X111935000Y-87435000D01*
X112778750Y-87435000D01*
X112822500Y-87391250D01*
X113160000Y-87391250D01*
X113160000Y-87701859D01*
X113176333Y-87783968D01*
X113208370Y-87861313D01*
X113254881Y-87930922D01*
X113314078Y-87990119D01*
X113383687Y-88036630D01*
X113461032Y-88068668D01*
X113543141Y-88085000D01*
X113978750Y-88085000D01*
X114085000Y-87978750D01*
X114085000Y-87285000D01*
X113266250Y-87285000D01*
X113160000Y-87391250D01*
X112822500Y-87391250D01*
X112885000Y-87328750D01*
X112885000Y-86618141D01*
X113160000Y-86618141D01*
X113160000Y-86928750D01*
X113266250Y-87035000D01*
X114085000Y-87035000D01*
X114085000Y-86341250D01*
X113978750Y-86235000D01*
X113543141Y-86235000D01*
X113461032Y-86251332D01*
X113383687Y-86283370D01*
X113314078Y-86329881D01*
X113254881Y-86389078D01*
X113208370Y-86458687D01*
X113176333Y-86536032D01*
X113160000Y-86618141D01*
X112885000Y-86618141D01*
X112885000Y-86518141D01*
X112868667Y-86436032D01*
X112836630Y-86358687D01*
X112790119Y-86289078D01*
X112730922Y-86229881D01*
X112661313Y-86183370D01*
X112583968Y-86151332D01*
X112501859Y-86135000D01*
X112041250Y-86135000D01*
X111935000Y-86241250D01*
X111685000Y-86241250D01*
X111578750Y-86135000D01*
X111118141Y-86135000D01*
X111036032Y-86151332D01*
X110958687Y-86183370D01*
X110889078Y-86229881D01*
X110829881Y-86289078D01*
X110783370Y-86358687D01*
X110751333Y-86436032D01*
X110735000Y-86518141D01*
X110583417Y-86518141D01*
X110581105Y-86494669D01*
X110617506Y-86464982D01*
X110664552Y-86427425D01*
X110669324Y-86422720D01*
X110669422Y-86422640D01*
X110669497Y-86422550D01*
X110671034Y-86421034D01*
X110871034Y-86221033D01*
X110909290Y-86174460D01*
X110947974Y-86128358D01*
X110949624Y-86125356D01*
X110951802Y-86122705D01*
X110972019Y-86085000D01*
X114335432Y-86085000D01*
X114485432Y-86235000D01*
X114485432Y-86235000D01*
G37*
X114485432Y-86235000D02*
X114441250Y-86235000D01*
X114335000Y-86341250D01*
X114335000Y-87035000D01*
X114355000Y-87035000D01*
X114355000Y-87285000D01*
X114335000Y-87285000D01*
X114335000Y-87978750D01*
X114441250Y-88085000D01*
X114876859Y-88085000D01*
X114885000Y-88083381D01*
X114885000Y-88137385D01*
X114835000Y-88132460D01*
X113585000Y-88132460D01*
X113482082Y-88142597D01*
X113383119Y-88172617D01*
X113291914Y-88221367D01*
X113211973Y-88286973D01*
X113146367Y-88366914D01*
X113097617Y-88458119D01*
X113082486Y-88508000D01*
X112885000Y-88508000D01*
X112885000Y-87791250D01*
X112778750Y-87685000D01*
X111935000Y-87685000D01*
X111935000Y-87705000D01*
X111685000Y-87705000D01*
X111685000Y-87685000D01*
X110841250Y-87685000D01*
X110735000Y-87791250D01*
X110735000Y-88062933D01*
X110587540Y-87915472D01*
X110587540Y-86560000D01*
X110583417Y-86518141D01*
X110735000Y-86518141D01*
X110735000Y-87328750D01*
X110841250Y-87435000D01*
X111685000Y-87435000D01*
X111685000Y-86241250D01*
X111935000Y-86241250D01*
X111935000Y-87435000D01*
X112778750Y-87435000D01*
X112822500Y-87391250D01*
X113160000Y-87391250D01*
X113160000Y-87701859D01*
X113176333Y-87783968D01*
X113208370Y-87861313D01*
X113254881Y-87930922D01*
X113314078Y-87990119D01*
X113383687Y-88036630D01*
X113461032Y-88068668D01*
X113543141Y-88085000D01*
X113978750Y-88085000D01*
X114085000Y-87978750D01*
X114085000Y-87285000D01*
X113266250Y-87285000D01*
X113160000Y-87391250D01*
X112822500Y-87391250D01*
X112885000Y-87328750D01*
X112885000Y-86618141D01*
X113160000Y-86618141D01*
X113160000Y-86928750D01*
X113266250Y-87035000D01*
X114085000Y-87035000D01*
X114085000Y-86341250D01*
X113978750Y-86235000D01*
X113543141Y-86235000D01*
X113461032Y-86251332D01*
X113383687Y-86283370D01*
X113314078Y-86329881D01*
X113254881Y-86389078D01*
X113208370Y-86458687D01*
X113176333Y-86536032D01*
X113160000Y-86618141D01*
X112885000Y-86618141D01*
X112885000Y-86518141D01*
X112868667Y-86436032D01*
X112836630Y-86358687D01*
X112790119Y-86289078D01*
X112730922Y-86229881D01*
X112661313Y-86183370D01*
X112583968Y-86151332D01*
X112501859Y-86135000D01*
X112041250Y-86135000D01*
X111935000Y-86241250D01*
X111685000Y-86241250D01*
X111578750Y-86135000D01*
X111118141Y-86135000D01*
X111036032Y-86151332D01*
X110958687Y-86183370D01*
X110889078Y-86229881D01*
X110829881Y-86289078D01*
X110783370Y-86358687D01*
X110751333Y-86436032D01*
X110735000Y-86518141D01*
X110583417Y-86518141D01*
X110581105Y-86494669D01*
X110617506Y-86464982D01*
X110664552Y-86427425D01*
X110669324Y-86422720D01*
X110669422Y-86422640D01*
X110669497Y-86422550D01*
X110671034Y-86421034D01*
X110871034Y-86221033D01*
X110909290Y-86174460D01*
X110947974Y-86128358D01*
X110949624Y-86125356D01*
X110951802Y-86122705D01*
X110972019Y-86085000D01*
X114335432Y-86085000D01*
X114485432Y-86235000D01*
G36*
X105815472Y-83357460D02*
X104910000Y-83357460D01*
X104807082Y-83367597D01*
X104708119Y-83397617D01*
X104616914Y-83446367D01*
X104536973Y-83511973D01*
X104471367Y-83591914D01*
X104422617Y-83683119D01*
X104392597Y-83782082D01*
X104382460Y-83885000D01*
X104382460Y-84135000D01*
X104392597Y-84237918D01*
X104399295Y-84260000D01*
X104392597Y-84282082D01*
X104382460Y-84385000D01*
X104382460Y-84635000D01*
X104392597Y-84737918D01*
X104399295Y-84760000D01*
X104392597Y-84782082D01*
X104382460Y-84885000D01*
X104382460Y-85135000D01*
X104392597Y-85237918D01*
X104399295Y-85260000D01*
X104392597Y-85282082D01*
X104382460Y-85385000D01*
X104382460Y-85635000D01*
X104392597Y-85737918D01*
X104422617Y-85836881D01*
X104433905Y-85858000D01*
X102299576Y-85858000D01*
X102256470Y-85814592D01*
X103921034Y-84150027D01*
X103959271Y-84103476D01*
X103997974Y-84057352D01*
X103999626Y-84054347D01*
X104001802Y-84051698D01*
X104030261Y-83998623D01*
X104059276Y-83945844D01*
X104060313Y-83942576D01*
X104061933Y-83939554D01*
X104079551Y-83881928D01*
X104097752Y-83824552D01*
X104098134Y-83821148D01*
X104099137Y-83817867D01*
X104105233Y-83757861D01*
X104111936Y-83698097D01*
X104111983Y-83691406D01*
X104111997Y-83691269D01*
X104111985Y-83691141D01*
X104112000Y-83688994D01*
X104112000Y-83584881D01*
X104187918Y-83577403D01*
X104286881Y-83547383D01*
X104378086Y-83498633D01*
X104458027Y-83433027D01*
X104523633Y-83353086D01*
X104572383Y-83261881D01*
X104602403Y-83162918D01*
X104612343Y-83062000D01*
X106110932Y-83062000D01*
X105815472Y-83357460D01*
X105815472Y-83357460D01*
G37*
X105815472Y-83357460D02*
X104910000Y-83357460D01*
X104807082Y-83367597D01*
X104708119Y-83397617D01*
X104616914Y-83446367D01*
X104536973Y-83511973D01*
X104471367Y-83591914D01*
X104422617Y-83683119D01*
X104392597Y-83782082D01*
X104382460Y-83885000D01*
X104382460Y-84135000D01*
X104392597Y-84237918D01*
X104399295Y-84260000D01*
X104392597Y-84282082D01*
X104382460Y-84385000D01*
X104382460Y-84635000D01*
X104392597Y-84737918D01*
X104399295Y-84760000D01*
X104392597Y-84782082D01*
X104382460Y-84885000D01*
X104382460Y-85135000D01*
X104392597Y-85237918D01*
X104399295Y-85260000D01*
X104392597Y-85282082D01*
X104382460Y-85385000D01*
X104382460Y-85635000D01*
X104392597Y-85737918D01*
X104422617Y-85836881D01*
X104433905Y-85858000D01*
X102299576Y-85858000D01*
X102256470Y-85814592D01*
X103921034Y-84150027D01*
X103959271Y-84103476D01*
X103997974Y-84057352D01*
X103999626Y-84054347D01*
X104001802Y-84051698D01*
X104030261Y-83998623D01*
X104059276Y-83945844D01*
X104060313Y-83942576D01*
X104061933Y-83939554D01*
X104079551Y-83881928D01*
X104097752Y-83824552D01*
X104098134Y-83821148D01*
X104099137Y-83817867D01*
X104105233Y-83757861D01*
X104111936Y-83698097D01*
X104111983Y-83691406D01*
X104111997Y-83691269D01*
X104111985Y-83691141D01*
X104112000Y-83688994D01*
X104112000Y-83584881D01*
X104187918Y-83577403D01*
X104286881Y-83547383D01*
X104378086Y-83498633D01*
X104458027Y-83433027D01*
X104523633Y-83353086D01*
X104572383Y-83261881D01*
X104602403Y-83162918D01*
X104612343Y-83062000D01*
X106110932Y-83062000D01*
X105815472Y-83357460D01*
G36*
X93088213Y-78460346D02*
X93258027Y-78671553D01*
X93465631Y-78845753D01*
X93703116Y-78976311D01*
X93961438Y-79058256D01*
X94230756Y-79088465D01*
X94250144Y-79088600D01*
X94569856Y-79088600D01*
X94839570Y-79062154D01*
X94966526Y-79023824D01*
X94964772Y-79041089D01*
X94958064Y-79100897D01*
X94958017Y-79107598D01*
X94958004Y-79107725D01*
X94958015Y-79107843D01*
X94958000Y-79110000D01*
X94958000Y-81416834D01*
X94849628Y-81307702D01*
X94712652Y-81215311D01*
X94560339Y-81151284D01*
X94398491Y-81118062D01*
X94233273Y-81116908D01*
X94070976Y-81147868D01*
X93917785Y-81209761D01*
X93779532Y-81300231D01*
X93661485Y-81415831D01*
X93568140Y-81552159D01*
X93503052Y-81704021D01*
X93468700Y-81865633D01*
X93466521Y-82021690D01*
X93386973Y-82086973D01*
X93321367Y-82166914D01*
X93272617Y-82258119D01*
X93242597Y-82357082D01*
X93232460Y-82460000D01*
X93232460Y-83160000D01*
X93242597Y-83262918D01*
X93272617Y-83361881D01*
X93321367Y-83453086D01*
X93386973Y-83533027D01*
X93466914Y-83598633D01*
X93558119Y-83647383D01*
X93657082Y-83677403D01*
X93760000Y-83687540D01*
X94810393Y-83687540D01*
X94665473Y-83832460D01*
X93760000Y-83832460D01*
X93657082Y-83842597D01*
X93558119Y-83872617D01*
X93466914Y-83921367D01*
X93386973Y-83986973D01*
X93321367Y-84066914D01*
X93272617Y-84158119D01*
X93242597Y-84257082D01*
X93232460Y-84360000D01*
X93232460Y-85060000D01*
X93242597Y-85162918D01*
X93272617Y-85261881D01*
X93321367Y-85353086D01*
X93331950Y-85365982D01*
X93035000Y-85662932D01*
X93035000Y-78358560D01*
X93088213Y-78460346D01*
X93088213Y-78460346D01*
G37*
X93088213Y-78460346D02*
X93258027Y-78671553D01*
X93465631Y-78845753D01*
X93703116Y-78976311D01*
X93961438Y-79058256D01*
X94230756Y-79088465D01*
X94250144Y-79088600D01*
X94569856Y-79088600D01*
X94839570Y-79062154D01*
X94966526Y-79023824D01*
X94964772Y-79041089D01*
X94958064Y-79100897D01*
X94958017Y-79107598D01*
X94958004Y-79107725D01*
X94958015Y-79107843D01*
X94958000Y-79110000D01*
X94958000Y-81416834D01*
X94849628Y-81307702D01*
X94712652Y-81215311D01*
X94560339Y-81151284D01*
X94398491Y-81118062D01*
X94233273Y-81116908D01*
X94070976Y-81147868D01*
X93917785Y-81209761D01*
X93779532Y-81300231D01*
X93661485Y-81415831D01*
X93568140Y-81552159D01*
X93503052Y-81704021D01*
X93468700Y-81865633D01*
X93466521Y-82021690D01*
X93386973Y-82086973D01*
X93321367Y-82166914D01*
X93272617Y-82258119D01*
X93242597Y-82357082D01*
X93232460Y-82460000D01*
X93232460Y-83160000D01*
X93242597Y-83262918D01*
X93272617Y-83361881D01*
X93321367Y-83453086D01*
X93386973Y-83533027D01*
X93466914Y-83598633D01*
X93558119Y-83647383D01*
X93657082Y-83677403D01*
X93760000Y-83687540D01*
X94810393Y-83687540D01*
X94665473Y-83832460D01*
X93760000Y-83832460D01*
X93657082Y-83842597D01*
X93558119Y-83872617D01*
X93466914Y-83921367D01*
X93386973Y-83986973D01*
X93321367Y-84066914D01*
X93272617Y-84158119D01*
X93242597Y-84257082D01*
X93232460Y-84360000D01*
X93232460Y-85060000D01*
X93242597Y-85162918D01*
X93272617Y-85261881D01*
X93321367Y-85353086D01*
X93331950Y-85365982D01*
X93035000Y-85662932D01*
X93035000Y-78358560D01*
X93088213Y-78460346D01*
G36*
X98285000Y-77528750D02*
X98391250Y-77635000D01*
X99085000Y-77635000D01*
X99085000Y-77615000D01*
X99335000Y-77615000D01*
X99335000Y-77635000D01*
X99355000Y-77635000D01*
X99355000Y-77885000D01*
X99335000Y-77885000D01*
X99335000Y-78703750D01*
X99441250Y-78810000D01*
X99614197Y-78810000D01*
X99614197Y-78910000D01*
X99441250Y-78910000D01*
X99335000Y-79016250D01*
X99335000Y-79835000D01*
X99355000Y-79835000D01*
X99355000Y-80085000D01*
X99335000Y-80085000D01*
X99335000Y-80903750D01*
X99441250Y-81010000D01*
X99751859Y-81010000D01*
X99833968Y-80993667D01*
X99868655Y-80979299D01*
X99896990Y-80998993D01*
X100048394Y-81065140D01*
X100209762Y-81100619D01*
X100308000Y-81102677D01*
X100308000Y-81283905D01*
X100286881Y-81272617D01*
X100187918Y-81242597D01*
X100085000Y-81232460D01*
X99835000Y-81232460D01*
X99732082Y-81242597D01*
X99710000Y-81249295D01*
X99687918Y-81242597D01*
X99585000Y-81232460D01*
X99335000Y-81232460D01*
X99232082Y-81242597D01*
X99133119Y-81272617D01*
X99111526Y-81284159D01*
X99106117Y-81228991D01*
X99100873Y-81169057D01*
X99099918Y-81165770D01*
X99099583Y-81162353D01*
X99082153Y-81104623D01*
X99065372Y-81046862D01*
X99063796Y-81043821D01*
X99062804Y-81040536D01*
X99034512Y-80987326D01*
X99023216Y-80965534D01*
X99085000Y-80903750D01*
X99085000Y-80085000D01*
X98391250Y-80085000D01*
X98285000Y-80191250D01*
X98285000Y-80191927D01*
X98237540Y-80144467D01*
X98237540Y-79335000D01*
X98233418Y-79293141D01*
X98285000Y-79293141D01*
X98285000Y-79728750D01*
X98391250Y-79835000D01*
X99085000Y-79835000D01*
X99085000Y-79016250D01*
X98978750Y-78910000D01*
X98668141Y-78910000D01*
X98586032Y-78926333D01*
X98508687Y-78958370D01*
X98439078Y-79004881D01*
X98379881Y-79064078D01*
X98333370Y-79133687D01*
X98301332Y-79211032D01*
X98285000Y-79293141D01*
X98233418Y-79293141D01*
X98227403Y-79232082D01*
X98197383Y-79133119D01*
X98148633Y-79041914D01*
X98083027Y-78961973D01*
X98003086Y-78896367D01*
X97935048Y-78860000D01*
X98003086Y-78823633D01*
X98083027Y-78758027D01*
X98148633Y-78678086D01*
X98197383Y-78586881D01*
X98227403Y-78487918D01*
X98237540Y-78385000D01*
X98237540Y-77991250D01*
X98285000Y-77991250D01*
X98285000Y-78426859D01*
X98301332Y-78508968D01*
X98333370Y-78586313D01*
X98379881Y-78655922D01*
X98439078Y-78715119D01*
X98508687Y-78761630D01*
X98586032Y-78793667D01*
X98668141Y-78810000D01*
X98978750Y-78810000D01*
X99085000Y-78703750D01*
X99085000Y-77885000D01*
X98391250Y-77885000D01*
X98285000Y-77991250D01*
X98237540Y-77991250D01*
X98237540Y-77135000D01*
X98235275Y-77112000D01*
X98285000Y-77112000D01*
X98285000Y-77528750D01*
X98285000Y-77528750D01*
G37*
X98285000Y-77528750D02*
X98391250Y-77635000D01*
X99085000Y-77635000D01*
X99085000Y-77615000D01*
X99335000Y-77615000D01*
X99335000Y-77635000D01*
X99355000Y-77635000D01*
X99355000Y-77885000D01*
X99335000Y-77885000D01*
X99335000Y-78703750D01*
X99441250Y-78810000D01*
X99614197Y-78810000D01*
X99614197Y-78910000D01*
X99441250Y-78910000D01*
X99335000Y-79016250D01*
X99335000Y-79835000D01*
X99355000Y-79835000D01*
X99355000Y-80085000D01*
X99335000Y-80085000D01*
X99335000Y-80903750D01*
X99441250Y-81010000D01*
X99751859Y-81010000D01*
X99833968Y-80993667D01*
X99868655Y-80979299D01*
X99896990Y-80998993D01*
X100048394Y-81065140D01*
X100209762Y-81100619D01*
X100308000Y-81102677D01*
X100308000Y-81283905D01*
X100286881Y-81272617D01*
X100187918Y-81242597D01*
X100085000Y-81232460D01*
X99835000Y-81232460D01*
X99732082Y-81242597D01*
X99710000Y-81249295D01*
X99687918Y-81242597D01*
X99585000Y-81232460D01*
X99335000Y-81232460D01*
X99232082Y-81242597D01*
X99133119Y-81272617D01*
X99111526Y-81284159D01*
X99106117Y-81228991D01*
X99100873Y-81169057D01*
X99099918Y-81165770D01*
X99099583Y-81162353D01*
X99082153Y-81104623D01*
X99065372Y-81046862D01*
X99063796Y-81043821D01*
X99062804Y-81040536D01*
X99034512Y-80987326D01*
X99023216Y-80965534D01*
X99085000Y-80903750D01*
X99085000Y-80085000D01*
X98391250Y-80085000D01*
X98285000Y-80191250D01*
X98285000Y-80191927D01*
X98237540Y-80144467D01*
X98237540Y-79335000D01*
X98233418Y-79293141D01*
X98285000Y-79293141D01*
X98285000Y-79728750D01*
X98391250Y-79835000D01*
X99085000Y-79835000D01*
X99085000Y-79016250D01*
X98978750Y-78910000D01*
X98668141Y-78910000D01*
X98586032Y-78926333D01*
X98508687Y-78958370D01*
X98439078Y-79004881D01*
X98379881Y-79064078D01*
X98333370Y-79133687D01*
X98301332Y-79211032D01*
X98285000Y-79293141D01*
X98233418Y-79293141D01*
X98227403Y-79232082D01*
X98197383Y-79133119D01*
X98148633Y-79041914D01*
X98083027Y-78961973D01*
X98003086Y-78896367D01*
X97935048Y-78860000D01*
X98003086Y-78823633D01*
X98083027Y-78758027D01*
X98148633Y-78678086D01*
X98197383Y-78586881D01*
X98227403Y-78487918D01*
X98237540Y-78385000D01*
X98237540Y-77991250D01*
X98285000Y-77991250D01*
X98285000Y-78426859D01*
X98301332Y-78508968D01*
X98333370Y-78586313D01*
X98379881Y-78655922D01*
X98439078Y-78715119D01*
X98508687Y-78761630D01*
X98586032Y-78793667D01*
X98668141Y-78810000D01*
X98978750Y-78810000D01*
X99085000Y-78703750D01*
X99085000Y-77885000D01*
X98391250Y-77885000D01*
X98285000Y-77991250D01*
X98237540Y-77991250D01*
X98237540Y-77135000D01*
X98235275Y-77112000D01*
X98285000Y-77112000D01*
X98285000Y-77528750D01*
G36*
X105535000Y-77235000D02*
X105555000Y-77235000D01*
X105555000Y-77485000D01*
X105535000Y-77485000D01*
X105535000Y-78303750D01*
X105641250Y-78410000D01*
X105951859Y-78410000D01*
X105980302Y-78404342D01*
X105980302Y-80808234D01*
X105771034Y-80598966D01*
X105735964Y-80570159D01*
X105780922Y-80540119D01*
X105840119Y-80480922D01*
X105886630Y-80411313D01*
X105918668Y-80333968D01*
X105935000Y-80251859D01*
X105935000Y-79791250D01*
X105828750Y-79685000D01*
X105285000Y-79685000D01*
X105285000Y-79705000D01*
X105035000Y-79705000D01*
X105035000Y-79685000D01*
X105015000Y-79685000D01*
X105015000Y-79435000D01*
X105035000Y-79435000D01*
X105035000Y-78591250D01*
X105285000Y-78591250D01*
X105285000Y-79435000D01*
X105828750Y-79435000D01*
X105935000Y-79328750D01*
X105935000Y-78868141D01*
X105918668Y-78786032D01*
X105886630Y-78708687D01*
X105840119Y-78639078D01*
X105780922Y-78579881D01*
X105711313Y-78533370D01*
X105633968Y-78501333D01*
X105551859Y-78485000D01*
X105391250Y-78485000D01*
X105285000Y-78591250D01*
X105035000Y-78591250D01*
X105021855Y-78578105D01*
X105029551Y-78552934D01*
X105047752Y-78495558D01*
X105048134Y-78492154D01*
X105049137Y-78488873D01*
X105055233Y-78428867D01*
X105057349Y-78410000D01*
X105178750Y-78410000D01*
X105285000Y-78303750D01*
X105285000Y-77485000D01*
X105265000Y-77485000D01*
X105265000Y-77235000D01*
X105285000Y-77235000D01*
X105285000Y-77215000D01*
X105535000Y-77215000D01*
X105535000Y-77235000D01*
X105535000Y-77235000D01*
G37*
X105535000Y-77235000D02*
X105555000Y-77235000D01*
X105555000Y-77485000D01*
X105535000Y-77485000D01*
X105535000Y-78303750D01*
X105641250Y-78410000D01*
X105951859Y-78410000D01*
X105980302Y-78404342D01*
X105980302Y-80808234D01*
X105771034Y-80598966D01*
X105735964Y-80570159D01*
X105780922Y-80540119D01*
X105840119Y-80480922D01*
X105886630Y-80411313D01*
X105918668Y-80333968D01*
X105935000Y-80251859D01*
X105935000Y-79791250D01*
X105828750Y-79685000D01*
X105285000Y-79685000D01*
X105285000Y-79705000D01*
X105035000Y-79705000D01*
X105035000Y-79685000D01*
X105015000Y-79685000D01*
X105015000Y-79435000D01*
X105035000Y-79435000D01*
X105035000Y-78591250D01*
X105285000Y-78591250D01*
X105285000Y-79435000D01*
X105828750Y-79435000D01*
X105935000Y-79328750D01*
X105935000Y-78868141D01*
X105918668Y-78786032D01*
X105886630Y-78708687D01*
X105840119Y-78639078D01*
X105780922Y-78579881D01*
X105711313Y-78533370D01*
X105633968Y-78501333D01*
X105551859Y-78485000D01*
X105391250Y-78485000D01*
X105285000Y-78591250D01*
X105035000Y-78591250D01*
X105021855Y-78578105D01*
X105029551Y-78552934D01*
X105047752Y-78495558D01*
X105048134Y-78492154D01*
X105049137Y-78488873D01*
X105055233Y-78428867D01*
X105057349Y-78410000D01*
X105178750Y-78410000D01*
X105285000Y-78303750D01*
X105285000Y-77485000D01*
X105265000Y-77485000D01*
X105265000Y-77235000D01*
X105285000Y-77235000D01*
X105285000Y-77215000D01*
X105535000Y-77215000D01*
X105535000Y-77235000D01*
G36*
X93116400Y-68575540D02*
X94449072Y-68575540D01*
X96358000Y-70484468D01*
X96358000Y-73049328D01*
X96363878Y-73109281D01*
X96369126Y-73169265D01*
X96370082Y-73172557D01*
X96370417Y-73175969D01*
X96387820Y-73233611D01*
X96404627Y-73291460D01*
X96406205Y-73294505D01*
X96407196Y-73297786D01*
X96435470Y-73350961D01*
X96463187Y-73404433D01*
X96465325Y-73407112D01*
X96466935Y-73410139D01*
X96505018Y-73456834D01*
X96542575Y-73503880D01*
X96547280Y-73508652D01*
X96547360Y-73508750D01*
X96547450Y-73508825D01*
X96548966Y-73510362D01*
X98846604Y-75808000D01*
X97910000Y-75808000D01*
X97849957Y-75813887D01*
X97790063Y-75819127D01*
X97786776Y-75820082D01*
X97783359Y-75820417D01*
X97725629Y-75837847D01*
X97667868Y-75854628D01*
X97664828Y-75856204D01*
X97661542Y-75857196D01*
X97608292Y-75885509D01*
X97554895Y-75913188D01*
X97552220Y-75915323D01*
X97549189Y-75916935D01*
X97502467Y-75955041D01*
X97455448Y-75992575D01*
X97450680Y-75997277D01*
X97450578Y-75997360D01*
X97450500Y-75997454D01*
X97448966Y-75998967D01*
X96840472Y-76607460D01*
X96710000Y-76607460D01*
X96607082Y-76617597D01*
X96508119Y-76647617D01*
X96416914Y-76696367D01*
X96336973Y-76761973D01*
X96271367Y-76841914D01*
X96222617Y-76933119D01*
X96192597Y-77032082D01*
X96182460Y-77135000D01*
X96182460Y-77615473D01*
X95943175Y-77854757D01*
X95958422Y-77709694D01*
X95933860Y-77439802D01*
X95857344Y-77179821D01*
X95731787Y-76939654D01*
X95561973Y-76728447D01*
X95354369Y-76554247D01*
X95126715Y-76429094D01*
X95338296Y-76316594D01*
X95548311Y-76145310D01*
X95721058Y-75936495D01*
X95849955Y-75698104D01*
X95930094Y-75439217D01*
X95958422Y-75169694D01*
X95933860Y-74899802D01*
X95857344Y-74639821D01*
X95731787Y-74399654D01*
X95561973Y-74188447D01*
X95354369Y-74014247D01*
X95162197Y-73908600D01*
X95467859Y-73908600D01*
X95549968Y-73892267D01*
X95627313Y-73860230D01*
X95696922Y-73813719D01*
X95756119Y-73754522D01*
X95802630Y-73684913D01*
X95834668Y-73607568D01*
X95851000Y-73525459D01*
X95851000Y-72851250D01*
X95744750Y-72745000D01*
X94535000Y-72745000D01*
X94535000Y-72765000D01*
X94285000Y-72765000D01*
X94285000Y-72745000D01*
X94265000Y-72745000D01*
X94265000Y-72495000D01*
X94285000Y-72495000D01*
X94285000Y-71437650D01*
X94535000Y-71437650D01*
X94535000Y-72495000D01*
X95744750Y-72495000D01*
X95851000Y-72388750D01*
X95851000Y-71714541D01*
X95834668Y-71632432D01*
X95802630Y-71555087D01*
X95756119Y-71485478D01*
X95696922Y-71426281D01*
X95627313Y-71379770D01*
X95549968Y-71347733D01*
X95467859Y-71331400D01*
X94641250Y-71331400D01*
X94535000Y-71437650D01*
X94285000Y-71437650D01*
X94178750Y-71331400D01*
X93352141Y-71331400D01*
X93270032Y-71347733D01*
X93192687Y-71379770D01*
X93123078Y-71426281D01*
X93063881Y-71485478D01*
X93035000Y-71528702D01*
X93035000Y-68567522D01*
X93116400Y-68575540D01*
X93116400Y-68575540D01*
G37*
X93116400Y-68575540D02*
X94449072Y-68575540D01*
X96358000Y-70484468D01*
X96358000Y-73049328D01*
X96363878Y-73109281D01*
X96369126Y-73169265D01*
X96370082Y-73172557D01*
X96370417Y-73175969D01*
X96387820Y-73233611D01*
X96404627Y-73291460D01*
X96406205Y-73294505D01*
X96407196Y-73297786D01*
X96435470Y-73350961D01*
X96463187Y-73404433D01*
X96465325Y-73407112D01*
X96466935Y-73410139D01*
X96505018Y-73456834D01*
X96542575Y-73503880D01*
X96547280Y-73508652D01*
X96547360Y-73508750D01*
X96547450Y-73508825D01*
X96548966Y-73510362D01*
X98846604Y-75808000D01*
X97910000Y-75808000D01*
X97849957Y-75813887D01*
X97790063Y-75819127D01*
X97786776Y-75820082D01*
X97783359Y-75820417D01*
X97725629Y-75837847D01*
X97667868Y-75854628D01*
X97664828Y-75856204D01*
X97661542Y-75857196D01*
X97608292Y-75885509D01*
X97554895Y-75913188D01*
X97552220Y-75915323D01*
X97549189Y-75916935D01*
X97502467Y-75955041D01*
X97455448Y-75992575D01*
X97450680Y-75997277D01*
X97450578Y-75997360D01*
X97450500Y-75997454D01*
X97448966Y-75998967D01*
X96840472Y-76607460D01*
X96710000Y-76607460D01*
X96607082Y-76617597D01*
X96508119Y-76647617D01*
X96416914Y-76696367D01*
X96336973Y-76761973D01*
X96271367Y-76841914D01*
X96222617Y-76933119D01*
X96192597Y-77032082D01*
X96182460Y-77135000D01*
X96182460Y-77615473D01*
X95943175Y-77854757D01*
X95958422Y-77709694D01*
X95933860Y-77439802D01*
X95857344Y-77179821D01*
X95731787Y-76939654D01*
X95561973Y-76728447D01*
X95354369Y-76554247D01*
X95126715Y-76429094D01*
X95338296Y-76316594D01*
X95548311Y-76145310D01*
X95721058Y-75936495D01*
X95849955Y-75698104D01*
X95930094Y-75439217D01*
X95958422Y-75169694D01*
X95933860Y-74899802D01*
X95857344Y-74639821D01*
X95731787Y-74399654D01*
X95561973Y-74188447D01*
X95354369Y-74014247D01*
X95162197Y-73908600D01*
X95467859Y-73908600D01*
X95549968Y-73892267D01*
X95627313Y-73860230D01*
X95696922Y-73813719D01*
X95756119Y-73754522D01*
X95802630Y-73684913D01*
X95834668Y-73607568D01*
X95851000Y-73525459D01*
X95851000Y-72851250D01*
X95744750Y-72745000D01*
X94535000Y-72745000D01*
X94535000Y-72765000D01*
X94285000Y-72765000D01*
X94285000Y-72745000D01*
X94265000Y-72745000D01*
X94265000Y-72495000D01*
X94285000Y-72495000D01*
X94285000Y-71437650D01*
X94535000Y-71437650D01*
X94535000Y-72495000D01*
X95744750Y-72495000D01*
X95851000Y-72388750D01*
X95851000Y-71714541D01*
X95834668Y-71632432D01*
X95802630Y-71555087D01*
X95756119Y-71485478D01*
X95696922Y-71426281D01*
X95627313Y-71379770D01*
X95549968Y-71347733D01*
X95467859Y-71331400D01*
X94641250Y-71331400D01*
X94535000Y-71437650D01*
X94285000Y-71437650D01*
X94178750Y-71331400D01*
X93352141Y-71331400D01*
X93270032Y-71347733D01*
X93192687Y-71379770D01*
X93123078Y-71426281D01*
X93063881Y-71485478D01*
X93035000Y-71528702D01*
X93035000Y-68567522D01*
X93116400Y-68575540D01*
G36*
X102241250Y-73685000D02*
X103085000Y-73685000D01*
X103085000Y-73665000D01*
X103335000Y-73665000D01*
X103335000Y-73685000D01*
X103355000Y-73685000D01*
X103355000Y-73935000D01*
X103335000Y-73935000D01*
X103335000Y-73955000D01*
X103085000Y-73955000D01*
X103085000Y-73935000D01*
X102241250Y-73935000D01*
X102135000Y-74041250D01*
X102135000Y-74103199D01*
X100264595Y-74103199D01*
X99773396Y-73612000D01*
X102168250Y-73612000D01*
X102241250Y-73685000D01*
X102241250Y-73685000D01*
G37*
X102241250Y-73685000D02*
X103085000Y-73685000D01*
X103085000Y-73665000D01*
X103335000Y-73665000D01*
X103335000Y-73685000D01*
X103355000Y-73685000D01*
X103355000Y-73935000D01*
X103335000Y-73935000D01*
X103335000Y-73955000D01*
X103085000Y-73955000D01*
X103085000Y-73935000D01*
X102241250Y-73935000D01*
X102135000Y-74041250D01*
X102135000Y-74103199D01*
X100264595Y-74103199D01*
X99773396Y-73612000D01*
X102168250Y-73612000D01*
X102241250Y-73685000D01*
G36*
X105435000Y-73435000D02*
X105455000Y-73435000D01*
X105455000Y-73685000D01*
X105435000Y-73685000D01*
X105435000Y-73705000D01*
X105185000Y-73705000D01*
X105185000Y-73685000D01*
X105165000Y-73685000D01*
X105165000Y-73435000D01*
X105185000Y-73435000D01*
X105185000Y-73415000D01*
X105435000Y-73415000D01*
X105435000Y-73435000D01*
X105435000Y-73435000D01*
G37*
X105435000Y-73435000D02*
X105455000Y-73435000D01*
X105455000Y-73685000D01*
X105435000Y-73685000D01*
X105435000Y-73705000D01*
X105185000Y-73705000D01*
X105185000Y-73685000D01*
X105165000Y-73685000D01*
X105165000Y-73435000D01*
X105185000Y-73435000D01*
X105185000Y-73415000D01*
X105435000Y-73415000D01*
X105435000Y-73435000D01*
M02*
